<?xml version="1.0" encoding="utf-8" standalone="no"?>
<!DOCTYPE svg PUBLIC "-//W3C//DTD SVG 1.1//EN"
  "http://www.w3.org/Graphics/SVG/1.1/DTD/svg11.dtd">
<!-- Created with matplotlib (http://matplotlib.org/) -->
<svg height="366pt" version="1.1" viewBox="0 0 501 366" width="501pt" xmlns="http://www.w3.org/2000/svg" xmlns:xlink="http://www.w3.org/1999/xlink">
 <defs>
  <style type="text/css">
*{stroke-linecap:butt;stroke-linejoin:round;}
  </style>
 </defs>
 <g id="figure_1">
  <g id="patch_1">
   <path d="
M0 366.241
L501.192 366.241
L501.192 0
L0 0
L0 366.241" style="fill:none;"/>
  </g>
  <g id="axes_1">
   <g id="patch_2">
    <path d="
M42.4783 327.836
L488.878 327.836
L488.878 20.9356
L42.4783 20.9356
z
" style="fill:#eaeaf2;"/>
   </g>
   <g id="matplotlib.axis_1">
    <g id="xtick_1">
     <g id="line2d_1">
      <path clip-path="url(#p79c2174f66)" d="
M42.4783 327.836
L42.4783 20.9356" style="fill:none;stroke:#ffffff;stroke-linecap:round;"/>
     </g>
     <g id="line2d_2">
      <defs>
       <path d="
M0 0
L0 0" id="md70f53a077" style="stroke:#262626;"/>
      </defs>
      <g>
       <use style="fill:#262626;stroke:#262626;" x="42.47828125" xlink:href="#md70f53a077" y="327.835625"/>
      </g>
     </g>
     <g id="line2d_3">
      <g>
       <use style="fill:#262626;stroke:#262626;" x="42.47828125" xlink:href="#md70f53a077" y="20.935625"/>
      </g>
     </g>
     <g id="text_1">
      <text style="fill:#262626;font-family:Arial;font-size:10.0px;font-style:normal;text-anchor:middle;" transform="rotate(-0.000000, 42.478281, 341.993437)" x="42.47828125" y="341.9934375">0</text>
     </g>
    </g>
    <g id="xtick_2">
     <g id="line2d_4">
      <path clip-path="url(#p79c2174f66)" d="
M131.758 327.836
L131.758 20.9356" style="fill:none;stroke:#ffffff;stroke-linecap:round;"/>
     </g>
     <g id="line2d_5">
      <g>
       <use style="fill:#262626;stroke:#262626;" x="131.75828125" xlink:href="#md70f53a077" y="327.835625"/>
      </g>
     </g>
     <g id="line2d_6">
      <g>
       <use style="fill:#262626;stroke:#262626;" x="131.75828125" xlink:href="#md70f53a077" y="20.935625"/>
      </g>
     </g>
     <g id="text_2">
      <text style="fill:#262626;font-family:Arial;font-size:10.0px;font-style:normal;text-anchor:middle;" transform="rotate(-0.000000, 131.758281, 341.993437)" x="131.75828125" y="341.9934375">10</text>
     </g>
    </g>
    <g id="xtick_3">
     <g id="line2d_7">
      <path clip-path="url(#p79c2174f66)" d="
M221.038 327.836
L221.038 20.9356" style="fill:none;stroke:#ffffff;stroke-linecap:round;"/>
     </g>
     <g id="line2d_8">
      <g>
       <use style="fill:#262626;stroke:#262626;" x="221.03828125" xlink:href="#md70f53a077" y="327.835625"/>
      </g>
     </g>
     <g id="line2d_9">
      <g>
       <use style="fill:#262626;stroke:#262626;" x="221.03828125" xlink:href="#md70f53a077" y="20.935625"/>
      </g>
     </g>
     <g id="text_3">
      <text style="fill:#262626;font-family:Arial;font-size:10.0px;font-style:normal;text-anchor:middle;" transform="rotate(-0.000000, 221.038281, 341.993437)" x="221.03828125" y="341.9934375">20</text>
     </g>
    </g>
    <g id="xtick_4">
     <g id="line2d_10">
      <path clip-path="url(#p79c2174f66)" d="
M310.318 327.836
L310.318 20.9356" style="fill:none;stroke:#ffffff;stroke-linecap:round;"/>
     </g>
     <g id="line2d_11">
      <g>
       <use style="fill:#262626;stroke:#262626;" x="310.31828125" xlink:href="#md70f53a077" y="327.835625"/>
      </g>
     </g>
     <g id="line2d_12">
      <g>
       <use style="fill:#262626;stroke:#262626;" x="310.31828125" xlink:href="#md70f53a077" y="20.935625"/>
      </g>
     </g>
     <g id="text_4">
      <text style="fill:#262626;font-family:Arial;font-size:10.0px;font-style:normal;text-anchor:middle;" transform="rotate(-0.000000, 310.318281, 341.993437)" x="310.31828125" y="341.9934375">30</text>
     </g>
    </g>
    <g id="xtick_5">
     <g id="line2d_13">
      <path clip-path="url(#p79c2174f66)" d="
M399.598 327.836
L399.598 20.9356" style="fill:none;stroke:#ffffff;stroke-linecap:round;"/>
     </g>
     <g id="line2d_14">
      <g>
       <use style="fill:#262626;stroke:#262626;" x="399.59828125" xlink:href="#md70f53a077" y="327.835625"/>
      </g>
     </g>
     <g id="line2d_15">
      <g>
       <use style="fill:#262626;stroke:#262626;" x="399.59828125" xlink:href="#md70f53a077" y="20.935625"/>
      </g>
     </g>
     <g id="text_5">
      <text style="fill:#262626;font-family:Arial;font-size:10.0px;font-style:normal;text-anchor:middle;" transform="rotate(-0.000000, 399.598281, 341.993437)" x="399.59828125" y="341.9934375">40</text>
     </g>
    </g>
    <g id="xtick_6">
     <g id="line2d_16">
      <path clip-path="url(#p79c2174f66)" d="
M488.878 327.836
L488.878 20.9356" style="fill:none;stroke:#ffffff;stroke-linecap:round;"/>
     </g>
     <g id="line2d_17">
      <g>
       <use style="fill:#262626;stroke:#262626;" x="488.87828125" xlink:href="#md70f53a077" y="327.835625"/>
      </g>
     </g>
     <g id="line2d_18">
      <g>
       <use style="fill:#262626;stroke:#262626;" x="488.87828125" xlink:href="#md70f53a077" y="20.935625"/>
      </g>
     </g>
     <g id="text_6">
      <text style="fill:#262626;font-family:Arial;font-size:10.0px;font-style:normal;text-anchor:middle;" transform="rotate(-0.000000, 488.878281, 341.993437)" x="488.87828125" y="341.9934375">50</text>
     </g>
    </g>
    <g id="text_7">
     <text style="fill:#262626;font-family:Arial;font-size:11.0px;font-style:normal;text-anchor:middle;" transform="rotate(-0.000000, 265.678281, 356.854531)" x="265.67828125" y="356.85453125">Experiment time [h]</text>
    </g>
   </g>
   <g id="matplotlib.axis_2">
    <g id="ytick_1">
     <g id="line2d_19">
      <path clip-path="url(#p79c2174f66)" d="
M42.4783 327.836
L488.878 327.836" style="fill:none;stroke:#ffffff;stroke-linecap:round;"/>
     </g>
     <g id="line2d_20">
      <g>
       <use style="fill:#262626;stroke:#262626;" x="42.47828125" xlink:href="#md70f53a077" y="327.835625"/>
      </g>
     </g>
     <g id="line2d_21">
      <g>
       <use style="fill:#262626;stroke:#262626;" x="488.87828125" xlink:href="#md70f53a077" y="327.835625"/>
      </g>
     </g>
     <g id="text_8">
      <text style="fill:#262626;font-family:Arial;font-size:10.0px;font-style:normal;text-anchor:end;" transform="rotate(-0.000000, 35.478281, 330.420781)" x="35.47828125" y="330.42078125">0.1</text>
     </g>
    </g>
    <g id="ytick_2">
     <g id="line2d_22">
      <path clip-path="url(#p79c2174f66)" d="
M42.4783 293.736
L488.878 293.736" style="fill:none;stroke:#ffffff;stroke-linecap:round;"/>
     </g>
     <g id="line2d_23">
      <g>
       <use style="fill:#262626;stroke:#262626;" x="42.47828125" xlink:href="#md70f53a077" y="293.735625"/>
      </g>
     </g>
     <g id="line2d_24">
      <g>
       <use style="fill:#262626;stroke:#262626;" x="488.87828125" xlink:href="#md70f53a077" y="293.735625"/>
      </g>
     </g>
     <g id="text_9">
      <text style="fill:#262626;font-family:Arial;font-size:10.0px;font-style:normal;text-anchor:end;" transform="rotate(-0.000000, 35.478281, 296.320781)" x="35.47828125" y="296.32078125">0.2</text>
     </g>
    </g>
    <g id="ytick_3">
     <g id="line2d_25">
      <path clip-path="url(#p79c2174f66)" d="
M42.4783 259.636
L488.878 259.636" style="fill:none;stroke:#ffffff;stroke-linecap:round;"/>
     </g>
     <g id="line2d_26">
      <g>
       <use style="fill:#262626;stroke:#262626;" x="42.47828125" xlink:href="#md70f53a077" y="259.635625"/>
      </g>
     </g>
     <g id="line2d_27">
      <g>
       <use style="fill:#262626;stroke:#262626;" x="488.87828125" xlink:href="#md70f53a077" y="259.635625"/>
      </g>
     </g>
     <g id="text_10">
      <text style="fill:#262626;font-family:Arial;font-size:10.0px;font-style:normal;text-anchor:end;" transform="rotate(-0.000000, 35.478281, 262.220781)" x="35.47828125" y="262.22078125">0.3</text>
     </g>
    </g>
    <g id="ytick_4">
     <g id="line2d_28">
      <path clip-path="url(#p79c2174f66)" d="
M42.4783 225.536
L488.878 225.536" style="fill:none;stroke:#ffffff;stroke-linecap:round;"/>
     </g>
     <g id="line2d_29">
      <g>
       <use style="fill:#262626;stroke:#262626;" x="42.47828125" xlink:href="#md70f53a077" y="225.535625"/>
      </g>
     </g>
     <g id="line2d_30">
      <g>
       <use style="fill:#262626;stroke:#262626;" x="488.87828125" xlink:href="#md70f53a077" y="225.535625"/>
      </g>
     </g>
     <g id="text_11">
      <text style="fill:#262626;font-family:Arial;font-size:10.0px;font-style:normal;text-anchor:end;" transform="rotate(-0.000000, 35.478281, 228.120781)" x="35.47828125" y="228.12078125">0.4</text>
     </g>
    </g>
    <g id="ytick_5">
     <g id="line2d_31">
      <path clip-path="url(#p79c2174f66)" d="
M42.4783 191.436
L488.878 191.436" style="fill:none;stroke:#ffffff;stroke-linecap:round;"/>
     </g>
     <g id="line2d_32">
      <g>
       <use style="fill:#262626;stroke:#262626;" x="42.47828125" xlink:href="#md70f53a077" y="191.435625"/>
      </g>
     </g>
     <g id="line2d_33">
      <g>
       <use style="fill:#262626;stroke:#262626;" x="488.87828125" xlink:href="#md70f53a077" y="191.435625"/>
      </g>
     </g>
     <g id="text_12">
      <text style="fill:#262626;font-family:Arial;font-size:10.0px;font-style:normal;text-anchor:end;" transform="rotate(-0.000000, 35.478281, 194.020781)" x="35.47828125" y="194.02078125">0.5</text>
     </g>
    </g>
    <g id="ytick_6">
     <g id="line2d_34">
      <path clip-path="url(#p79c2174f66)" d="
M42.4783 157.336
L488.878 157.336" style="fill:none;stroke:#ffffff;stroke-linecap:round;"/>
     </g>
     <g id="line2d_35">
      <g>
       <use style="fill:#262626;stroke:#262626;" x="42.47828125" xlink:href="#md70f53a077" y="157.335625"/>
      </g>
     </g>
     <g id="line2d_36">
      <g>
       <use style="fill:#262626;stroke:#262626;" x="488.87828125" xlink:href="#md70f53a077" y="157.335625"/>
      </g>
     </g>
     <g id="text_13">
      <text style="fill:#262626;font-family:Arial;font-size:10.0px;font-style:normal;text-anchor:end;" transform="rotate(-0.000000, 35.478281, 159.920781)" x="35.47828125" y="159.92078125">0.6</text>
     </g>
    </g>
    <g id="ytick_7">
     <g id="line2d_37">
      <path clip-path="url(#p79c2174f66)" d="
M42.4783 123.236
L488.878 123.236" style="fill:none;stroke:#ffffff;stroke-linecap:round;"/>
     </g>
     <g id="line2d_38">
      <g>
       <use style="fill:#262626;stroke:#262626;" x="42.47828125" xlink:href="#md70f53a077" y="123.235625"/>
      </g>
     </g>
     <g id="line2d_39">
      <g>
       <use style="fill:#262626;stroke:#262626;" x="488.87828125" xlink:href="#md70f53a077" y="123.235625"/>
      </g>
     </g>
     <g id="text_14">
      <text style="fill:#262626;font-family:Arial;font-size:10.0px;font-style:normal;text-anchor:end;" transform="rotate(-0.000000, 35.478281, 125.820781)" x="35.47828125" y="125.82078125">0.7</text>
     </g>
    </g>
    <g id="ytick_8">
     <g id="line2d_40">
      <path clip-path="url(#p79c2174f66)" d="
M42.4783 89.1356
L488.878 89.1356" style="fill:none;stroke:#ffffff;stroke-linecap:round;"/>
     </g>
     <g id="line2d_41">
      <g>
       <use style="fill:#262626;stroke:#262626;" x="42.47828125" xlink:href="#md70f53a077" y="89.135625"/>
      </g>
     </g>
     <g id="line2d_42">
      <g>
       <use style="fill:#262626;stroke:#262626;" x="488.87828125" xlink:href="#md70f53a077" y="89.135625"/>
      </g>
     </g>
     <g id="text_15">
      <text style="fill:#262626;font-family:Arial;font-size:10.0px;font-style:normal;text-anchor:end;" transform="rotate(-0.000000, 35.478281, 91.720781)" x="35.47828125" y="91.72078125">0.8</text>
     </g>
    </g>
    <g id="ytick_9">
     <g id="line2d_43">
      <path clip-path="url(#p79c2174f66)" d="
M42.4783 55.0356
L488.878 55.0356" style="fill:none;stroke:#ffffff;stroke-linecap:round;"/>
     </g>
     <g id="line2d_44">
      <g>
       <use style="fill:#262626;stroke:#262626;" x="42.47828125" xlink:href="#md70f53a077" y="55.035625"/>
      </g>
     </g>
     <g id="line2d_45">
      <g>
       <use style="fill:#262626;stroke:#262626;" x="488.87828125" xlink:href="#md70f53a077" y="55.035625"/>
      </g>
     </g>
     <g id="text_16">
      <text style="fill:#262626;font-family:Arial;font-size:10.0px;font-style:normal;text-anchor:end;" transform="rotate(-0.000000, 35.478281, 57.620781)" x="35.47828125" y="57.62078125">0.9</text>
     </g>
    </g>
    <g id="ytick_10">
     <g id="line2d_46">
      <path clip-path="url(#p79c2174f66)" d="
M42.4783 20.9356
L488.878 20.9356" style="fill:none;stroke:#ffffff;stroke-linecap:round;"/>
     </g>
     <g id="line2d_47">
      <g>
       <use style="fill:#262626;stroke:#262626;" x="42.47828125" xlink:href="#md70f53a077" y="20.935625"/>
      </g>
     </g>
     <g id="line2d_48">
      <g>
       <use style="fill:#262626;stroke:#262626;" x="488.87828125" xlink:href="#md70f53a077" y="20.935625"/>
      </g>
     </g>
     <g id="text_17">
      <text style="fill:#262626;font-family:Arial;font-size:10.0px;font-style:normal;text-anchor:end;" transform="rotate(-0.000000, 35.478281, 23.520781)" x="35.47828125" y="23.52078125">1.0</text>
     </g>
    </g>
    <g id="text_18">
     <text style="fill:#262626;font-family:Arial;font-size:11.0px;font-style:normal;text-anchor:middle;" transform="rotate(-90.000000, 15.207656, 174.385625)" x="15.20765625" y="174.385625">Growth rate µ [h⁻¹]</text>
    </g>
   </g>
   <g id="line2d_49">
    <path clip-path="url(#p79c2174f66)" d="
M53.2409 34.2116
L55.4728 94.3271
L57.7066 114.086
L59.9386 156.68
L62.1705 146.8
L64.4031 174.469
L66.6328 200.378
L68.8655 210.657
L71.098 224.513
L73.3296 212.885
L75.5611 203.208
L77.7929 192.048
L80.0242 183.635
L82.2564 188.324
L84.4893 164.116
L86.7207 142.229
L88.9528 125.817
L91.1858 102.536
L93.4185 122.888
L95.6512 110.491
L97.8834 117.714
L100.115 141.922
L102.347 151.209
L104.579 166.08
L106.811 167.734
L109.042 165.124
L111.272 191.938
L113.505 204.133
L115.737 214.711
L120.203 200.22
L122.434 200.672
L124.666 190.559
L126.898 199.744
L129.129 190.729
L131.361 179.174
L133.593 212.463
L135.825 211.477
L138.059 217.261
L140.291 225.319
L142.523 203.475
L144.754 209.217
L146.986 195.778
L149.219 191.061
L151.451 193.758
L153.682 199.218
L155.915 207.506
L158.146 211.549
L160.378 205.912
L162.611 204.892
L164.844 216.313
L167.075 208.786
L169.307 233.731
L171.539 238.286
L173.768 229.554
L176.001 234.028
L178.233 206.924
L180.465 185.965
L182.699 203.023
L184.931 193.132
L187.163 187.223
L189.395 190.08
L191.898 167.304
L194.403 182.58
L196.908 220.321
L199.415 225.413
L201.65 213.554
L203.882 191.703
L206.114 167.023
L208.346 163.547
L210.576 181.458
L212.809 207.038
L215.041 196.357
L217.273 184.667
L219.511 198.134
L223.973 210.225
L226.206 217.075
L228.431 217.183
L230.663 215.152
L232.895 221.097
L235.126 219.373
L237.358 223.53
L239.591 213.074
L241.836 204.682
L244.456 209.625
L247.075 187.135
L249.694 207.65
L252.3 207.59
L254.533 225.105
L256.766 236.415
L258.998 238.603
L261.23 240.281
L263.461 229.243
L265.693 229.199
L267.925 212.156
L270.156 174.163
L272.388 164.335
L274.621 166.086
L276.853 177.832
L279.085 195.152
L281.317 189.871
L283.55 125.677
L285.782 109.833
L288.014 145.044
L290.245 150.053
L292.477 232.082
L294.709 242.211
L296.941 237.644
L299.173 242.666
L301.403 216.397
L303.636 220.366
L305.867 238.672
L308.1 250.043
L310.333 246.512
L312.565 225.428
L314.797 209.775
L319.261 150.793
L321.493 176.28
L324.283 174.438
L327.38 182.919
L329.865 204.985
L333.21 216.939
L336.308 197.793
L339.349 152.163
L342.694 205.016
L345.791 152.455
M351.621 247.705
L354.72 240.348
L357.206 238.13
L360.863 213.896
L364.771 132.531
L369.487 153.879
L375.928 253.052
L380.643 275.444
L387.895 300.213
L387.895 300.213" style="fill:none;stroke:#4c72b0;stroke-linecap:round;stroke-width:1.75;"/>
   </g>
   <g id="patch_3">
    <path d="
M42.4783 20.9356
L488.878 20.9356" style="fill:none;"/>
   </g>
   <g id="patch_4">
    <path d="
M488.878 327.836
L488.878 20.9356" style="fill:none;"/>
   </g>
   <g id="patch_5">
    <path d="
M42.4783 327.836
L42.4783 20.9356" style="fill:none;"/>
   </g>
   <g id="patch_6">
    <path d="
M42.4783 327.836
L488.878 327.836" style="fill:none;"/>
   </g>
   <g id="text_19">
    <text style="fill:#262626;font-family:Arial;font-size:12.0px;font-style:normal;text-anchor:middle;" transform="rotate(-0.000000, 265.678281, 15.935625)" x="265.67828125" y="15.935625">Growth graph</text>
   </g>
  </g>
 </g>
 <defs>
  <clipPath id="p79c2174f66">
   <rect height="306.9" width="446.4" x="42.47828125" y="20.935625"/>
  </clipPath>
 </defs>
</svg>
