<?xml version="1.0" encoding="utf-8" standalone="no"?>
<!DOCTYPE svg PUBLIC "-//W3C//DTD SVG 1.1//EN"
  "http://www.w3.org/Graphics/SVG/1.1/DTD/svg11.dtd">
<!-- Created with matplotlib (http://matplotlib.org/) -->
<svg height="366pt" version="1.1" viewBox="0 0 501 366" width="501pt" xmlns="http://www.w3.org/2000/svg" xmlns:xlink="http://www.w3.org/1999/xlink">
 <defs>
  <style type="text/css">
*{stroke-linecap:butt;stroke-linejoin:round;}
  </style>
 </defs>
 <g id="figure_1">
  <g id="patch_1">
   <path d="
M0 366.241
L501.212 366.241
L501.212 0
L0 0
z
" style="fill:#ffffff;"/>
  </g>
  <g id="axes_1">
   <g id="patch_2">
    <path d="
M42.4783 327.836
L488.878 327.836
L488.878 20.9356
L42.4783 20.9356
z
" style="fill:#eaeaf2;"/>
   </g>
   <g id="matplotlib.axis_1">
    <g id="xtick_1">
     <g id="line2d_1">
      <path clip-path="url(#p79c2174f66)" d="
M42.4783 327.836
L42.4783 20.9356" style="fill:none;stroke:#ffffff;stroke-linecap:round;"/>
     </g>
     <g id="line2d_2">
      <defs>
       <path d="
M0 0
L0 0" id="md70f53a077" style="stroke:#262626;"/>
      </defs>
      <g>
       <use style="fill:#262626;stroke:#262626;" x="42.47828125" xlink:href="#md70f53a077" y="327.835625"/>
      </g>
     </g>
     <g id="line2d_3">
      <g>
       <use style="fill:#262626;stroke:#262626;" x="42.47828125" xlink:href="#md70f53a077" y="20.935625"/>
      </g>
     </g>
     <g id="text_1">
      <text style="fill:#262626;font-family:Arial;font-size:10.0px;font-style:normal;text-anchor:middle;" transform="rotate(-0.000000, 42.478281, 341.993437)" x="42.47828125" y="341.9934375">0</text>
     </g>
    </g>
    <g id="xtick_2">
     <g id="line2d_4">
      <path clip-path="url(#p79c2174f66)" d="
M116.878 327.836
L116.878 20.9356" style="fill:none;stroke:#ffffff;stroke-linecap:round;"/>
     </g>
     <g id="line2d_5">
      <g>
       <use style="fill:#262626;stroke:#262626;" x="116.87828125" xlink:href="#md70f53a077" y="327.835625"/>
      </g>
     </g>
     <g id="line2d_6">
      <g>
       <use style="fill:#262626;stroke:#262626;" x="116.87828125" xlink:href="#md70f53a077" y="20.935625"/>
      </g>
     </g>
     <g id="text_2">
      <text style="fill:#262626;font-family:Arial;font-size:10.0px;font-style:normal;text-anchor:middle;" transform="rotate(-0.000000, 116.878281, 341.993437)" x="116.87828125" y="341.9934375">10</text>
     </g>
    </g>
    <g id="xtick_3">
     <g id="line2d_7">
      <path clip-path="url(#p79c2174f66)" d="
M191.278 327.836
L191.278 20.9356" style="fill:none;stroke:#ffffff;stroke-linecap:round;"/>
     </g>
     <g id="line2d_8">
      <g>
       <use style="fill:#262626;stroke:#262626;" x="191.27828125" xlink:href="#md70f53a077" y="327.835625"/>
      </g>
     </g>
     <g id="line2d_9">
      <g>
       <use style="fill:#262626;stroke:#262626;" x="191.27828125" xlink:href="#md70f53a077" y="20.935625"/>
      </g>
     </g>
     <g id="text_3">
      <text style="fill:#262626;font-family:Arial;font-size:10.0px;font-style:normal;text-anchor:middle;" transform="rotate(-0.000000, 191.278281, 341.993437)" x="191.27828125" y="341.9934375">20</text>
     </g>
    </g>
    <g id="xtick_4">
     <g id="line2d_10">
      <path clip-path="url(#p79c2174f66)" d="
M265.678 327.836
L265.678 20.9356" style="fill:none;stroke:#ffffff;stroke-linecap:round;"/>
     </g>
     <g id="line2d_11">
      <g>
       <use style="fill:#262626;stroke:#262626;" x="265.67828125" xlink:href="#md70f53a077" y="327.835625"/>
      </g>
     </g>
     <g id="line2d_12">
      <g>
       <use style="fill:#262626;stroke:#262626;" x="265.67828125" xlink:href="#md70f53a077" y="20.935625"/>
      </g>
     </g>
     <g id="text_4">
      <text style="fill:#262626;font-family:Arial;font-size:10.0px;font-style:normal;text-anchor:middle;" transform="rotate(-0.000000, 265.678281, 341.993437)" x="265.67828125" y="341.9934375">30</text>
     </g>
    </g>
    <g id="xtick_5">
     <g id="line2d_13">
      <path clip-path="url(#p79c2174f66)" d="
M340.078 327.836
L340.078 20.9356" style="fill:none;stroke:#ffffff;stroke-linecap:round;"/>
     </g>
     <g id="line2d_14">
      <g>
       <use style="fill:#262626;stroke:#262626;" x="340.07828125" xlink:href="#md70f53a077" y="327.835625"/>
      </g>
     </g>
     <g id="line2d_15">
      <g>
       <use style="fill:#262626;stroke:#262626;" x="340.07828125" xlink:href="#md70f53a077" y="20.935625"/>
      </g>
     </g>
     <g id="text_5">
      <text style="fill:#262626;font-family:Arial;font-size:10.0px;font-style:normal;text-anchor:middle;" transform="rotate(-0.000000, 340.078281, 341.993437)" x="340.07828125" y="341.9934375">40</text>
     </g>
    </g>
    <g id="xtick_6">
     <g id="line2d_16">
      <path clip-path="url(#p79c2174f66)" d="
M414.478 327.836
L414.478 20.9356" style="fill:none;stroke:#ffffff;stroke-linecap:round;"/>
     </g>
     <g id="line2d_17">
      <g>
       <use style="fill:#262626;stroke:#262626;" x="414.47828125" xlink:href="#md70f53a077" y="327.835625"/>
      </g>
     </g>
     <g id="line2d_18">
      <g>
       <use style="fill:#262626;stroke:#262626;" x="414.47828125" xlink:href="#md70f53a077" y="20.935625"/>
      </g>
     </g>
     <g id="text_6">
      <text style="fill:#262626;font-family:Arial;font-size:10.0px;font-style:normal;text-anchor:middle;" transform="rotate(-0.000000, 414.478281, 341.993437)" x="414.47828125" y="341.9934375">50</text>
     </g>
    </g>
    <g id="xtick_7">
     <g id="line2d_19">
      <path clip-path="url(#p79c2174f66)" d="
M488.878 327.836
L488.878 20.9356" style="fill:none;stroke:#ffffff;stroke-linecap:round;"/>
     </g>
     <g id="line2d_20">
      <g>
       <use style="fill:#262626;stroke:#262626;" x="488.87828125" xlink:href="#md70f53a077" y="327.835625"/>
      </g>
     </g>
     <g id="line2d_21">
      <g>
       <use style="fill:#262626;stroke:#262626;" x="488.87828125" xlink:href="#md70f53a077" y="20.935625"/>
      </g>
     </g>
     <g id="text_7">
      <text style="fill:#262626;font-family:Arial;font-size:10.0px;font-style:normal;text-anchor:middle;" transform="rotate(-0.000000, 488.878281, 341.993437)" x="488.87828125" y="341.9934375">60</text>
     </g>
    </g>
    <g id="text_8">
     <text style="fill:#262626;font-family:Arial;font-size:11.0px;font-style:normal;text-anchor:middle;" transform="rotate(-0.000000, 265.678281, 356.854531)" x="265.67828125" y="356.85453125">Experiment time [h]</text>
    </g>
   </g>
   <g id="matplotlib.axis_2">
    <g id="ytick_1">
     <g id="line2d_22">
      <path clip-path="url(#p79c2174f66)" d="
M42.4783 327.836
L488.878 327.836" style="fill:none;stroke:#ffffff;stroke-linecap:round;"/>
     </g>
     <g id="line2d_23">
      <g>
       <use style="fill:#262626;stroke:#262626;" x="42.47828125" xlink:href="#md70f53a077" y="327.835625"/>
      </g>
     </g>
     <g id="line2d_24">
      <g>
       <use style="fill:#262626;stroke:#262626;" x="488.87828125" xlink:href="#md70f53a077" y="327.835625"/>
      </g>
     </g>
     <g id="text_9">
      <text style="fill:#262626;font-family:Arial;font-size:10.0px;font-style:normal;text-anchor:end;" transform="rotate(-0.000000, 35.478281, 330.420781)" x="35.47828125" y="330.42078125">0.0</text>
     </g>
    </g>
    <g id="ytick_2">
     <g id="line2d_25">
      <path clip-path="url(#p79c2174f66)" d="
M42.4783 276.686
L488.878 276.686" style="fill:none;stroke:#ffffff;stroke-linecap:round;"/>
     </g>
     <g id="line2d_26">
      <g>
       <use style="fill:#262626;stroke:#262626;" x="42.47828125" xlink:href="#md70f53a077" y="276.685625"/>
      </g>
     </g>
     <g id="line2d_27">
      <g>
       <use style="fill:#262626;stroke:#262626;" x="488.87828125" xlink:href="#md70f53a077" y="276.685625"/>
      </g>
     </g>
     <g id="text_10">
      <text style="fill:#262626;font-family:Arial;font-size:10.0px;font-style:normal;text-anchor:end;" transform="rotate(-0.000000, 35.478281, 279.270781)" x="35.47828125" y="279.27078125">0.1</text>
     </g>
    </g>
    <g id="ytick_3">
     <g id="line2d_28">
      <path clip-path="url(#p79c2174f66)" d="
M42.4783 225.536
L488.878 225.536" style="fill:none;stroke:#ffffff;stroke-linecap:round;"/>
     </g>
     <g id="line2d_29">
      <g>
       <use style="fill:#262626;stroke:#262626;" x="42.47828125" xlink:href="#md70f53a077" y="225.535625"/>
      </g>
     </g>
     <g id="line2d_30">
      <g>
       <use style="fill:#262626;stroke:#262626;" x="488.87828125" xlink:href="#md70f53a077" y="225.535625"/>
      </g>
     </g>
     <g id="text_11">
      <text style="fill:#262626;font-family:Arial;font-size:10.0px;font-style:normal;text-anchor:end;" transform="rotate(-0.000000, 35.478281, 228.120781)" x="35.47828125" y="228.12078125">0.2</text>
     </g>
    </g>
    <g id="ytick_4">
     <g id="line2d_31">
      <path clip-path="url(#p79c2174f66)" d="
M42.4783 174.386
L488.878 174.386" style="fill:none;stroke:#ffffff;stroke-linecap:round;"/>
     </g>
     <g id="line2d_32">
      <g>
       <use style="fill:#262626;stroke:#262626;" x="42.47828125" xlink:href="#md70f53a077" y="174.385625"/>
      </g>
     </g>
     <g id="line2d_33">
      <g>
       <use style="fill:#262626;stroke:#262626;" x="488.87828125" xlink:href="#md70f53a077" y="174.385625"/>
      </g>
     </g>
     <g id="text_12">
      <text style="fill:#262626;font-family:Arial;font-size:10.0px;font-style:normal;text-anchor:end;" transform="rotate(-0.000000, 35.478281, 176.970781)" x="35.47828125" y="176.97078125">0.3</text>
     </g>
    </g>
    <g id="ytick_5">
     <g id="line2d_34">
      <path clip-path="url(#p79c2174f66)" d="
M42.4783 123.236
L488.878 123.236" style="fill:none;stroke:#ffffff;stroke-linecap:round;"/>
     </g>
     <g id="line2d_35">
      <g>
       <use style="fill:#262626;stroke:#262626;" x="42.47828125" xlink:href="#md70f53a077" y="123.235625"/>
      </g>
     </g>
     <g id="line2d_36">
      <g>
       <use style="fill:#262626;stroke:#262626;" x="488.87828125" xlink:href="#md70f53a077" y="123.235625"/>
      </g>
     </g>
     <g id="text_13">
      <text style="fill:#262626;font-family:Arial;font-size:10.0px;font-style:normal;text-anchor:end;" transform="rotate(-0.000000, 35.478281, 125.820781)" x="35.47828125" y="125.82078125">0.4</text>
     </g>
    </g>
    <g id="ytick_6">
     <g id="line2d_37">
      <path clip-path="url(#p79c2174f66)" d="
M42.4783 72.0856
L488.878 72.0856" style="fill:none;stroke:#ffffff;stroke-linecap:round;"/>
     </g>
     <g id="line2d_38">
      <g>
       <use style="fill:#262626;stroke:#262626;" x="42.47828125" xlink:href="#md70f53a077" y="72.085625"/>
      </g>
     </g>
     <g id="line2d_39">
      <g>
       <use style="fill:#262626;stroke:#262626;" x="488.87828125" xlink:href="#md70f53a077" y="72.085625"/>
      </g>
     </g>
     <g id="text_14">
      <text style="fill:#262626;font-family:Arial;font-size:10.0px;font-style:normal;text-anchor:end;" transform="rotate(-0.000000, 35.478281, 74.670781)" x="35.47828125" y="74.67078125">0.5</text>
     </g>
    </g>
    <g id="ytick_7">
     <g id="text_15">
      <text style="fill:#262626;font-family:Arial;font-size:10.0px;font-style:normal;text-anchor:end;" transform="rotate(-0.000000, 35.478281, 23.520781)" x="35.47828125" y="23.52078125">0.6</text>
     </g>
    </g>
    <g id="text_16">
     <text style="fill:#262626;font-family:Arial;font-size:11.0px;font-style:normal;text-anchor:middle;" transform="rotate(-90.000000, 15.207656, 174.385625)" x="15.20765625" y="174.385625">Growth rate µ [h⁻¹]</text>
    </g>
   </g>
   <g id="line2d_40">
    <path clip-path="url(#p79c2174f66)" d="
M70.9674 20.289
L72.8687 25.7924
L76.5476 37.8988
L78.4076 39.4878
L80.3086 45.3221
L82.1277 51.7884
L83.9873 54.1528
L85.8474 54.8013
L87.7485 52.3729
L89.5679 51.8801
L91.4274 47.8155
L93.2874 45.6691
L95.1884 45.1616
L97.0078 44.9821
L98.8674 54.382
L100.728 54.2159
L102.629 54.6512
L104.448 63.0726
L106.308 67.7289
L108.168 71.5181
L110.069 70.851
L111.888 74.9902
L113.748 81.2028
L115.608 85.128
L117.509 83.7654
L119.328 87.3404
L121.188 89.3797
L123.048 92.5496
L124.949 94.6101
L126.768 91.2674
L128.628 97.935
L130.488 99.9562
L132.389 100.724
L134.208 100.638
L136.068 99.3363
L137.928 99.1093
L139.829 101.422
L143.508 100.732
L145.368 94.1413
L147.305 92.8619
L149.161 93.5207
L151.057 99.3015
L152.954 99.903
L154.891 93.9835
L156.747 92.674
L158.643 95.2087
L160.54 94.7723
L162.477 90.4017
L164.333 92.5585
L166.229 91.6329
L170.064 88.8112
L171.919 89.3814
L173.816 92.001
L175.712 84.7087
L177.65 81.4032
L179.505 84.7998
L181.401 87.664
L183.298 88.2095
L185.235 91.005
L187.091 87.4476
L190.937 93.257
L192.926 90.4171
L194.797 95.4534
L196.708 95.6267
L198.62 94.6972
L200.573 94.2155
L202.444 103.079
L204.355 108.377
L206.266 107.857
L208.219 107.881
L210.09 109.036
L212.001 102.413
L213.913 102.687
L215.865 105.084
L217.736 105.543
L219.647 100.552
L221.559 98.3902
L223.511 89.992
L227.294 87.7339
L229.205 84.1942
L231.158 94.0636
L233.029 95.5505
L234.94 95.6311
L236.85 96.3763
L238.751 95.8312
L240.571 103.03
L242.43 104.648
L244.29 109.62
L246.191 103.361
L248.01 99.5197
L249.87 96.1766
L251.73 94.9867
L253.631 87.2293
L255.45 86.9205
L257.384 88.2243
L259.36 96.4835
L261.295 95.0596
L263.262 97.5191
L265.312 92.2024
L267.395 89.2491
L269.478 98.2571
L271.561 100.54
L273.718 105.566
L275.876 112.008
L278.075 116.404
L280.192 102.595
L282.539 96.8152
L284.92 91.9927
L287.45 97.8458
L290.128 114.453
L292.807 119.867
L292.807 119.867" style="fill:none;stroke:#4c72b0;stroke-linecap:round;stroke-width:1.75;"/>
   </g>
   <g id="patch_3">
    <path d="
M42.4783 20.9356
L488.878 20.9356" style="fill:none;"/>
   </g>
   <g id="patch_4">
    <path d="
M42.4783 327.836
L42.4783 20.9356" style="fill:none;"/>
   </g>
   <g id="patch_5">
    <path d="
M42.4783 327.836
L488.878 327.836" style="fill:none;"/>
   </g>
   <g id="patch_6">
    <path d="
M488.878 327.836
L488.878 20.9356" style="fill:none;"/>
   </g>
   <g id="text_17">
    <text style="fill:#262626;font-family:Arial;font-size:12.0px;font-style:normal;text-anchor:middle;" transform="rotate(-0.000000, 265.678281, 15.935625)" x="265.67828125" y="15.935625">Growth graph</text>
   </g>
  </g>
 </g>
 <defs>
  <clipPath id="p79c2174f66">
   <rect height="306.9" width="446.4" x="42.47828125" y="20.935625"/>
  </clipPath>
 </defs>
</svg>
