<?xml version="1.0" encoding="utf-8" standalone="no"?>
<!DOCTYPE svg PUBLIC "-//W3C//DTD SVG 1.1//EN"
  "http://www.w3.org/Graphics/SVG/1.1/DTD/svg11.dtd">
<!-- Created with matplotlib (http://matplotlib.org/) -->
<svg height="488pt" version="1.1" viewBox="0 0 712 488" width="712pt" xmlns="http://www.w3.org/2000/svg" xmlns:xlink="http://www.w3.org/1999/xlink">
 <defs>
  <style type="text/css">
*{stroke-linecap:butt;stroke-linejoin:round;}
  </style>
 </defs>
 <g id="figure_1">
  <g id="patch_1">
   <path d="
M0 488.836
L712.461 488.836
L712.461 0
L0 0
L0 488.836" style="fill:none;"/>
  </g>
  <g id="axes_1">
   <g id="patch_2">
    <path d="
M27.1109 467.336
L696.711 467.336
L696.711 20.9356
L27.1109 20.9356
z
" style="fill:#ffffff;"/>
   </g>
   <g id="line2d_1">
    <path clip-path="url(#p8a97c097eb)" d="
M590.217 441.153
L580.004 287.606
L570.766 235.622
L562.331 215.264
L554.572 217.58
L547.389 240.113
L540.701 278.592
L534.445 327.375
L528.568 379.755
L523.028 425.77
L517.787 438.65
L512.815 416.579
L508.085 399.769
L503.576 396.674
L499.267 407.168
L495.141 428.639
L491.184 454.18
L487.382 445.872
L483.724 420.335
L480.199 401.457
L476.797 394.497
L473.511 401.702
L470.332 422.67
L467.255 445.707
L464.272 419.92
L461.378 369.641
L458.568 316.675
L455.838 269.193
L453.182 233.447
L450.597 214.699
L448.079 216.763
L445.625 241.576
L443.231 288.914
L440.895 356.138
L438.614 428.438
L436.386 395.412
L432.077 213.777
L429.992 135.694
L427.951 76.5926
L425.953 41.4429
L423.994 33.1847
L422.075 52.462
L420.192 97.5683
L418.346 164.613
L416.534 247.884
L413.009 425.83
L411.293 405.532
L409.607 334.064
L407.95 275.513
L406.321 237.953
L404.719 222.773
L403.143 229.159
L401.592 254.279
L400.065 293.62
L397.082 390.518
L395.625 429.368
L394.188 432.661
L392.773 413.596
L391.379 401.393
L390.004 402.185
L388.648 415.443
L385.992 461.068
L384.691 438.572
L383.407 414.338
L382.14 398.818
L380.889 395.652
L379.654 406.671
L378.435 430.672
L377.231 449.914
L376.041 412.207
L373.705 308.786
L372.558 264.077
L371.424 232.095
L370.304 217.656
L369.196 224.083
L368.101 252.799
L367.017 303.085
L364.887 438.428
L363.839 382.509
L361.776 206.489
L360.761 133.899
L359.757 80.8093
L358.763 51.6473
L357.779 48.8011
L356.804 72.4081
L355.84 120.353
L354.885 188.476
L352.075 440.87
L351.156 397.482
L350.246 329.465
L349.344 276.904
L348.451 244.922
L347.566 234.35
L346.688 243.943
L345.819 270.576
L344.957 309.576
L343.257 399.488
L342.417 429.908
L341.585 427.712
L340.76 412.359
L339.942 404.542
L339.131 408.683
L338.327 423.895
L337.529 445.944
L336.738 455.42
L335.174 411.05
L334.402 399.17
L333.635 399.666
L332.875 413.935
L332.121 439.464
L331.372 447.318
L330.629 404.326
L329.161 305.147
L328.435 264.579
L327.714 237.261
L326.999 227.44
L326.288 237.853
L325.583 269.377
L324.883 320.817
L324.189 387.516
L323.499 440.623
L322.814 373.53
L321.458 209.621
L320.787 144.751
L320.121 99.1946
L319.459 76.6955
L318.802 79.0207
L318.149 105.814
L317.501 154.646
L316.857 221.254
L314.95 454.371
L313.699 329.856
L313.08 284.779
L312.464 259.063
L311.853 253.014
L311.245 265.049
L310.641 291.896
L308.851 408.111
L308.262 429.515
L307.676 424.765
L307.094 413.388
L306.515 409.562
L305.94 416.247
L305.368 432.118
L304.8 451.399
L304.234 449.106
L303.114 410.943
L302.558 402.876
L302.006 406.656
L301.457 423.274
L300.911 448.805
L300.368 441.113
L298.225 271.495
L297.697 249.337
L297.172 244.005
L296.649 257.651
L296.129 290.662
L295.612 341.47
L295.098 403.697
L294.587 435.062
L292.567 162.522
L292.069 124.589
L291.573 108.242
L291.08 114.693
L290.589 143.206
L290.1 191.185
L289.131 327.544
L288.65 402.715
L288.171 446.505
L287.221 335.196
L286.749 297.511
L286.28 277.549
L285.813 275.202
L285.348 288.664
L284.885 314.629
L283.51 415.215
L283.056 428.512
L282.604 423.003
L282.154 415.255
L281.707 414.706
L281.261 423.07
L280.376 452.274
L279.936 443.87
L279.063 412.618
L278.629 408.05
L278.197 414.502
L277.767 432.564
L277.339 457.008
L276.913 435.115
L275.646 312.63
L275.227 282.867
L274.811 265.93
L274.395 264.807
L273.982 281.082
L273.57 314.7
L272.752 419.99
L272.346 427.322
L270.737 184.114
L270.339 153.745
L269.943 143.134
L269.548 152.969
L269.154 182.199
L268.373 286.76
L267.597 418.337
L267.212 439.793
L266.446 344.722
L266.065 314.277
L265.685 299.576
L265.307 300.17
L264.931 314.116
L264.182 368.009
L263.44 420.852
L263.07 427.972
L262.336 418.535
L261.971 420.384
L261.607 429.227
L261.245 442.039
L260.884 449.152
L260.524 439.785
L260.166 425.914
L259.809 416.493
L259.453 415.206
L259.098 423.695
L258.393 458.664
L257.694 392.63
L256.999 323.269
L256.653 299.569
L256.309 287.849
L255.966 290.437
L255.624 308.375
L255.283 341.24
L254.605 435.291
L254.268 421.332
L253.263 251.419
L252.931 212.7
L252.6 189.649
L252.269 184.003
L251.94 196.004
L251.612 224.401
L250.959 318.779
L250.311 430.612
L249.988 436.327
L249.346 358.462
L249.027 334.847
L248.709 324.628
L248.391 327.137
L248.075 340.426
L246.82 425.013
L246.509 428.176
L246.199 424.575
L245.89 422.574
L245.581 425.749
L244.968 443.14
L244.663 445.631
L243.752 422.32
L243.451 423.656
L243.15 433.19
L242.851 449.258
L242.552 453.452
L241.072 320.539
L240.779 313.49
L240.486 318.918
L240.195 337.413
L239.614 409.161
L239.325 447.305
L239.037 416.99
L238.178 273.872
L237.894 243.5
L237.61 226.803
L237.327 224.968
L237.045 237.908
L236.763 264.294
L236.203 346.693
L235.646 437.914
L235.368 435.625
L234.816 374.172
L234.541 356.344
L234.267 349.521
L233.993 352.935
L233.721 364.747
L232.638 428.55
L232.369 429.677
L232.101 427.335
L231.833 426.865
L231.567 430.22
L231.035 442.4
L230.771 442.86
L229.982 429.161
L229.72 432.476
L229.199 455.577
L228.939 450.16
L227.908 356.391
L227.652 343.929
L227.397 340.724
L227.142 347.963
L226.888 365.876
L226.13 451.252
L224.879 277.958
L224.631 266.675
L224.383 267.549
L224.136 280.266
L223.644 335.124
L222.91 441.813
L222.667 436.701
L222.183 390.872
L221.941 377.985
L221.7 373.655
L221.46 377.129
L220.981 400.22
L220.505 425.871
L220.268 431.51
L220.031 431.773
L219.795 430.425
L219.559 430.603
L219.324 433.244
L218.856 440.838
L218.623 441.247
L218.158 436.682
L217.926 437.103
L217.695 441.786
L217.235 459.935
L217.005 448.567
L216.093 376.99
L215.866 369.212
L215.64 368.941
L215.414 376.905
L214.964 416.585
L214.74 443.732
L214.517 449.265
L213.627 330.861
L213.406 314.833
L213.186 307.82
L212.966 310.188
L212.746 321.507
L212.309 365.588
L211.656 442.185
L211.439 438.105
L211.007 407.25
L210.792 398.553
L210.578 396.007
L210.363 398.992
L209.936 415.625
L209.511 431.74
L209.299 434.467
L209.088 434.155
L208.877 433.203
L208.666 433.33
L208.456 434.96
L208.038 439.784
L207.829 440.988
L207.621 441.327
L207.413 442.068
L207.206 444.66
L206.586 461.011
L205.359 394.738
L205.156 396.363
L204.954 404.036
L204.55 436.063
L204.348 455.162
L204.147 447.587
L203.348 361.731
L203.149 351.231
L202.951 347.332
L202.753 350.146
L202.555 359.212
L202.161 391.584
L201.573 441.214
L201.378 439.7
L200.794 417.102
L200.601 415.743
L200.407 417.829
L199.638 436.139
L199.447 436.933
L198.875 435.309
L198.685 436.119
L198.306 439.638
L197.741 447.122
L197.366 457.116
L197.179 463.691
L196.992 460.672
L196.25 425.083
L196.065 420.557
L195.88 419.437
L195.696 422.143
L195.329 438.987
L194.963 459.939
L194.599 431.492
L194.055 392.694
L193.874 386.562
L193.694 384.624
L193.514 386.823
L193.155 401.619
L192.441 439.382
L192.263 440.46
L191.555 432.238
L191.379 433.216
L190.853 438.958
L190.678 439.546
L190.504 439.156
L190.156 437.44
L189.982 437.121
L189.809 437.535
L189.463 440.745
L189.119 446.872
L188.434 464.063
L188.263 460.976
L187.754 446.382
L187.415 442.467
L187.247 443.29
L186.91 450.725
L186.575 460.779
L186.407 457.075
L185.575 420.325
L185.244 415.608
L185.079 416.092
L184.75 421.604
L183.932 440.594
L183.607 442.977
L183.283 443.63
L182.96 443.888
L182.798 443.741
L182.477 442.501
L181.997 439.893
L181.837 439.677
L181.678 440.102
L181.36 443.163
L180.885 452.332
L180.413 461.322
L180.256 462.19
L180.099 461.838
L179.786 460.933
L179.63 461.202
L179.319 462.664
L179.164 462.703
L179.009 461.488
L178.546 453.774
L177.473 433.948
L177.168 431.236
L177.017 430.953
L176.865 431.431
L176.563 434.442
L175.661 447.793
L175.511 448.48
L175.362 448.406
L175.064 446.575
L174.619 443.249
L174.471 442.792
L174.324 442.831
L174.176 443.372
L173.882 445.736
L173.443 451.36
L172.714 463.205
L172.569 461.761
L171.991 450.437
L171.848 449.257
L171.704 449.083
L171.417 451.037
L171.274 452.107
L171.131 452.102
L170.988 450.446
L170.137 432.797
L169.996 432.192
L169.855 432.336
L169.573 434.058
L169.153 438.226
L168.595 446.964
L168.317 450.097
L168.179 450.141
L167.489 446.316
L167.214 447.299
L166.94 448.175
L166.667 448.823
L166.395 451.397
L165.988 456.696
L165.853 454.602
L165.179 436.527
L165.045 436.956
L164.777 443.295
L164.51 451.719
L164.377 451.63
L164.111 441.128
L163.713 426.903
L163.581 425.536
L163.449 425.93
L163.186 430.342
L162.792 436.658
L162.4 438.393
L162.139 442.192
L161.62 451.746
L161.491 451.489
L161.233 449.732
L161.104 449.503
L160.847 450.662
L160.718 451.211
L160.59 451.106
L160.207 448.725
L160.079 448.96
L159.698 452.185
L159.571 450.381
L158.814 427.432
L158.688 429.611
L158.437 440.738
L158.187 452.187
L158.062 449.672
L157.441 418.482
L157.317 418.307
L157.069 424.405
L156.7 437.517
L156.577 439.142
L156.454 439.172
L156.209 438.453
L156.087 439.349
L155.842 444.504
L155.477 452.729
L155.356 453.098
L155.114 452.452
L154.993 452.82
L154.631 455.139
L154.39 452.317
L154.15 449.12
L154.031 448.734
L153.911 448.979
L153.791 448.964
L153.672 447.443
L153.434 438.419
L153.078 423.447
L152.959 421.87
L152.841 422.935
L152.605 433.138
L152.252 452.034
L152.017 436.969
L151.666 415.296
L151.549 413.291
L151.433 414.198
L151.2 423.114
L150.852 440.133
L150.736 442
L150.621 441.609
L150.39 439.561
L150.275 439.951
L150.045 444.495
L149.701 453.144
L149.472 454.594
L149.358 455.074
L149.017 458.872
L148.903 458.753
L147.999 443.128
L147.439 420.556
L147.327 420.325
L147.215 422.773
L146.992 435.35
L146.77 451.201
L146.659 451.008
L146.106 413.199
L145.996 412.008
L145.886 413.719
L145.666 424.026
L145.337 442.463
L145.228 444.451
L145.119 443.926
L144.901 441.299
L144.792 441.316
L144.574 444.957
L144.141 455.059
L143.602 462.611
L143.495 462.048
L142.746 443.577
L142.109 421.019
L142.004 422.345
L141.792 432.173
L141.476 452.349
L141.371 448.772
L140.848 414.468
L140.743 414.114
L140.535 420.841
L140.016 446.865
L139.912 446.409
L139.602 443.144
L139.499 443.871
L139.191 450.747
L138.576 464.121
L138.475 465.656
L138.373 464.612
L137.966 453.462
L137.461 431.907
L137.158 423.949
L137.058 424.564
L136.857 431.818
L136.457 452.34
L136.158 431.792
L135.86 418.986
L135.761 419.16
L135.563 425.592
L135.069 448.275
L134.971 447.886
L134.677 444.276
L134.579 444.548
L134.383 447.896
L133.701 464.993
L133.508 466.854
L133.314 462.27
L132.928 444.558
L132.544 428.936
L132.448 427.821
L132.352 428.314
L132.161 434.267
L131.78 453.826
L131.685 451.788
L131.211 427.268
L131.116 426.103
L131.022 426.62
L130.833 431.981
L130.363 449.659
L130.27 449.402
L129.896 445.542
L129.709 448.153
L129.06 464.209
L128.967 464.343
L128.875 464.886
L128.783 464.638
L128.598 458.087
L128.048 432.766
L127.956 431.791
L127.865 432.336
L127.682 437.797
L127.318 455.493
L127.227 455.253
L126.594 435.124
L126.504 435.52
L126.324 438.857
L125.875 450.071
L125.786 449.813
L125.429 446.21
L125.34 446.872
L125.162 450.899
L124.719 463.264
L124.454 461.602
L124.277 458.186
L123.663 436.187
L123.576 436.756
L123.401 442.071
L123.053 459.442
L122.966 459.371
L122.446 446.282
L122.273 445.55
L122.187 445.477
L122.101 445.606
L121.929 446.692
L121.586 449.618
L121.415 448.432
L121.159 446.772
L120.988 449.024
L120.479 461.894
L120.225 457.833
L119.888 448.075
L119.636 441.404
L119.552 440.876
L119.468 441.527
L119.301 446.395
L118.884 464.24
L118.551 455.122
L118.468 455.022
L118.22 456.177
L118.054 454.486
L117.643 449.158
L117.15 446.915
L117.069 447.271
L116.905 449.583
L116.498 459.129
L116.417 458.968
L116.174 453.333
L115.77 444.756
L115.689 444.574
L115.528 446.462
L115.207 457.243
L114.967 462.119
L114.727 459.997
L114.647 460.199
L114.488 462.515
L114.329 466.25
L114.17 462.7
L113.616 447.41
L113.38 445.46
L113.301 445.72
L113.144 447.41
L112.596 456.596
L112.518 455.879
L112.052 444.477
L111.974 444.603
L111.819 447.781
L111.433 458.622
L111.202 455.903
L111.125 456.138
L110.971 459.37
L110.741 465.54
L110.435 457.7
L110.131 455.434
L109.675 444.259
L109.599 444.369
L109.448 446.509
L109.071 452.751
L108.921 453.262
L108.771 451.407
L108.396 442.381
L108.321 442.768
L108.172 447.477
L107.874 463.551
L107.503 450.723
L107.355 454.917
L107.134 463.207
L106.766 449.669
L106.619 451.713
L106.472 454.177
L106.399 453.397
L106.034 443.364
L105.961 443.668
L105.742 448.676
L105.524 452.063
L105.452 451.919
L105.307 450.398
L104.874 440.984
L104.802 441.222
L104.658 445.697
L104.37 463.68
L104.013 446.801
L103.941 447.658
L103.656 459.575
L103.585 457.27
L103.301 443.883
L103.23 443.788
L103.088 447.67
L102.876 453.125
L102.524 443.652
L102.454 444.076
L102.103 452.439
L102.033 452.209
L101.823 447.349
L101.475 439.406
L101.405 439.705
L101.266 443.772
L100.989 458.334
L100.919 456.621
L100.643 444.661
L100.574 444.987
L100.367 453.68
L100.299 455.995
L100.23 455.13
L99.8871 439.66
L99.8187 440.254
L99.6136 449.107
L99.4772 453.163
L99.341 449.526
L99.137 444.315
L99.0691 444.656
L98.7303 452.728
L98.6626 451.865
L98.1906 438.179
L98.1234 438.753
L97.989 442.916
L97.7209 454.246
L97.5871 450.478
L97.3867 444.007
L97.32 444.204
L97.1202 451.236
L97.0537 453.243
L96.9873 452.95
L96.5894 437.542
L96.4572 441.3
L96.1933 453.009
L96.1274 452.302
L95.8643 445.097
L95.7987 445.268
L95.602 450.778
L95.4711 453.286
L95.3404 449.216
L95.0143 437.372
L94.9492 437.972
L94.7543 446.003
L94.5597 452.535
L94.3655 446.157
L94.3655 446.157" style="fill:none;stroke:#0000ff;stroke-linecap:square;"/>
   </g>
   <g id="patch_3">
    <path d="
M696.711 467.336
L696.711 20.9356" style="fill:none;stroke:#000000;stroke-linecap:square;stroke-linejoin:miter;"/>
   </g>
   <g id="patch_4">
    <path d="
M27.1109 20.9356
L696.711 20.9356" style="fill:none;stroke:#000000;stroke-linecap:square;stroke-linejoin:miter;"/>
   </g>
   <g id="patch_5">
    <path d="
M27.1109 467.336
L27.1109 20.9356" style="fill:none;stroke:#000000;stroke-linecap:square;stroke-linejoin:miter;"/>
   </g>
   <g id="patch_6">
    <path d="
M27.1109 467.336
L696.711 467.336" style="fill:none;stroke:#000000;stroke-linecap:square;stroke-linejoin:miter;"/>
   </g>
   <g id="matplotlib.axis_1">
    <g id="xtick_1">
     <g id="line2d_2">
      <defs>
       <path d="
M0 0
L0 -4" id="mc7db9fdffb" style="stroke:#000000;stroke-width:0.5;"/>
      </defs>
      <g>
       <use style="stroke:#000000;stroke-width:0.5;" x="27.1109375" xlink:href="#mc7db9fdffb" y="467.335625"/>
      </g>
     </g>
     <g id="line2d_3">
      <defs>
       <path d="
M0 0
L0 4" id="m5a7d422ac3" style="stroke:#000000;stroke-width:0.5;"/>
      </defs>
      <g>
       <use style="stroke:#000000;stroke-width:0.5;" x="27.1109375" xlink:href="#m5a7d422ac3" y="20.935625"/>
      </g>
     </g>
     <g id="text_1">
      <!-- $\mathdefault{10^{0}}$ -->
      <g transform="translate(18.5609375 479.648125)">
       <text>
        <tspan style="font-family:Arial;font-size:7.0px;font-style:regular;" x="11.123046875" y="-5.968750000000001">0</tspan>
        <tspan style="font-family:Arial;font-size:10.0px;font-style:regular;" x="0.0 5.5615234375" y="-0.9906250000000014">10</tspan>
       </text>
      </g>
     </g>
    </g>
    <g id="xtick_2">
     <g id="line2d_4">
      <g>
       <use style="stroke:#000000;stroke-width:0.5;" x="250.3109375" xlink:href="#mc7db9fdffb" y="467.335625"/>
      </g>
     </g>
     <g id="line2d_5">
      <g>
       <use style="stroke:#000000;stroke-width:0.5;" x="250.3109375" xlink:href="#m5a7d422ac3" y="20.935625"/>
      </g>
     </g>
     <g id="text_2">
      <!-- $\mathdefault{10^{1}}$ -->
      <g transform="translate(241.7609375 479.648125)">
       <text>
        <tspan style="font-family:Arial;font-size:7.0px;font-style:regular;" x="11.123046875" y="-5.968750000000001">1</tspan>
        <tspan style="font-family:Arial;font-size:10.0px;font-style:regular;" x="0.0 5.5615234375" y="-0.9906250000000014">10</tspan>
       </text>
      </g>
     </g>
    </g>
    <g id="xtick_3">
     <g id="line2d_6">
      <g>
       <use style="stroke:#000000;stroke-width:0.5;" x="473.5109375" xlink:href="#mc7db9fdffb" y="467.335625"/>
      </g>
     </g>
     <g id="line2d_7">
      <g>
       <use style="stroke:#000000;stroke-width:0.5;" x="473.5109375" xlink:href="#m5a7d422ac3" y="20.935625"/>
      </g>
     </g>
     <g id="text_3">
      <!-- $\mathdefault{10^{2}}$ -->
      <g transform="translate(464.9609375 479.648125)">
       <text>
        <tspan style="font-family:Arial;font-size:7.0px;font-style:regular;" x="11.123046875" y="-5.968750000000001">2</tspan>
        <tspan style="font-family:Arial;font-size:10.0px;font-style:regular;" x="0.0 5.5615234375" y="-0.9906250000000014">10</tspan>
       </text>
      </g>
     </g>
    </g>
    <g id="xtick_4">
     <g id="line2d_8">
      <g>
       <use style="stroke:#000000;stroke-width:0.5;" x="696.7109375" xlink:href="#mc7db9fdffb" y="467.335625"/>
      </g>
     </g>
     <g id="line2d_9">
      <g>
       <use style="stroke:#000000;stroke-width:0.5;" x="696.7109375" xlink:href="#m5a7d422ac3" y="20.935625"/>
      </g>
     </g>
     <g id="text_4">
      <!-- $\mathdefault{10^{3}}$ -->
      <g transform="translate(688.1609375 479.648125)">
       <text>
        <tspan style="font-family:Arial;font-size:7.0px;font-style:regular;" x="11.123046875" y="-5.968750000000001">3</tspan>
        <tspan style="font-family:Arial;font-size:10.0px;font-style:regular;" x="0.0 5.5615234375" y="-0.9906250000000014">10</tspan>
       </text>
      </g>
     </g>
    </g>
    <g id="xtick_5">
     <g id="line2d_10">
      <defs>
       <path d="
M0 0
L0 -2" id="mc21db286a6" style="stroke:#000000;stroke-width:0.5;"/>
      </defs>
      <g>
       <use style="stroke:#000000;stroke-width:0.5;" x="94.3008325322" xlink:href="#mc21db286a6" y="467.335625"/>
      </g>
     </g>
     <g id="line2d_11">
      <defs>
       <path d="
M0 0
L0 2" id="ma9c915e141" style="stroke:#000000;stroke-width:0.5;"/>
      </defs>
      <g>
       <use style="stroke:#000000;stroke-width:0.5;" x="94.3008325322" xlink:href="#ma9c915e141" y="20.935625"/>
      </g>
     </g>
    </g>
    <g id="xtick_6">
     <g id="line2d_12">
      <g>
       <use style="stroke:#000000;stroke-width:0.5;" x="133.604401553" xlink:href="#mc21db286a6" y="467.335625"/>
      </g>
     </g>
     <g id="line2d_13">
      <g>
       <use style="stroke:#000000;stroke-width:0.5;" x="133.604401553" xlink:href="#ma9c915e141" y="20.935625"/>
      </g>
     </g>
    </g>
    <g id="xtick_7">
     <g id="line2d_14">
      <g>
       <use style="stroke:#000000;stroke-width:0.5;" x="161.490727564" xlink:href="#mc21db286a6" y="467.335625"/>
      </g>
     </g>
     <g id="line2d_15">
      <g>
       <use style="stroke:#000000;stroke-width:0.5;" x="161.490727564" xlink:href="#ma9c915e141" y="20.935625"/>
      </g>
     </g>
    </g>
    <g id="xtick_8">
     <g id="line2d_16">
      <g>
       <use style="stroke:#000000;stroke-width:0.5;" x="183.121042468" xlink:href="#mc21db286a6" y="467.335625"/>
      </g>
     </g>
     <g id="line2d_17">
      <g>
       <use style="stroke:#000000;stroke-width:0.5;" x="183.121042468" xlink:href="#ma9c915e141" y="20.935625"/>
      </g>
     </g>
    </g>
    <g id="xtick_9">
     <g id="line2d_18">
      <g>
       <use style="stroke:#000000;stroke-width:0.5;" x="200.794296586" xlink:href="#mc21db286a6" y="467.335625"/>
      </g>
     </g>
     <g id="line2d_19">
      <g>
       <use style="stroke:#000000;stroke-width:0.5;" x="200.794296586" xlink:href="#ma9c915e141" y="20.935625"/>
      </g>
     </g>
    </g>
    <g id="xtick_10">
     <g id="line2d_20">
      <g>
       <use style="stroke:#000000;stroke-width:0.5;" x="215.736820031" xlink:href="#mc21db286a6" y="467.335625"/>
      </g>
     </g>
     <g id="line2d_21">
      <g>
       <use style="stroke:#000000;stroke-width:0.5;" x="215.736820031" xlink:href="#ma9c915e141" y="20.935625"/>
      </g>
     </g>
    </g>
    <g id="xtick_11">
     <g id="line2d_22">
      <g>
       <use style="stroke:#000000;stroke-width:0.5;" x="228.680622597" xlink:href="#mc21db286a6" y="467.335625"/>
      </g>
     </g>
     <g id="line2d_23">
      <g>
       <use style="stroke:#000000;stroke-width:0.5;" x="228.680622597" xlink:href="#ma9c915e141" y="20.935625"/>
      </g>
     </g>
    </g>
    <g id="xtick_12">
     <g id="line2d_24">
      <g>
       <use style="stroke:#000000;stroke-width:0.5;" x="240.097865607" xlink:href="#mc21db286a6" y="467.335625"/>
      </g>
     </g>
     <g id="line2d_25">
      <g>
       <use style="stroke:#000000;stroke-width:0.5;" x="240.097865607" xlink:href="#ma9c915e141" y="20.935625"/>
      </g>
     </g>
    </g>
    <g id="xtick_13">
     <g id="line2d_26">
      <g>
       <use style="stroke:#000000;stroke-width:0.5;" x="317.500832532" xlink:href="#mc21db286a6" y="467.335625"/>
      </g>
     </g>
     <g id="line2d_27">
      <g>
       <use style="stroke:#000000;stroke-width:0.5;" x="317.500832532" xlink:href="#ma9c915e141" y="20.935625"/>
      </g>
     </g>
    </g>
    <g id="xtick_14">
     <g id="line2d_28">
      <g>
       <use style="stroke:#000000;stroke-width:0.5;" x="356.804401553" xlink:href="#mc21db286a6" y="467.335625"/>
      </g>
     </g>
     <g id="line2d_29">
      <g>
       <use style="stroke:#000000;stroke-width:0.5;" x="356.804401553" xlink:href="#ma9c915e141" y="20.935625"/>
      </g>
     </g>
    </g>
    <g id="xtick_15">
     <g id="line2d_30">
      <g>
       <use style="stroke:#000000;stroke-width:0.5;" x="384.690727564" xlink:href="#mc21db286a6" y="467.335625"/>
      </g>
     </g>
     <g id="line2d_31">
      <g>
       <use style="stroke:#000000;stroke-width:0.5;" x="384.690727564" xlink:href="#ma9c915e141" y="20.935625"/>
      </g>
     </g>
    </g>
    <g id="xtick_16">
     <g id="line2d_32">
      <g>
       <use style="stroke:#000000;stroke-width:0.5;" x="406.321042468" xlink:href="#mc21db286a6" y="467.335625"/>
      </g>
     </g>
     <g id="line2d_33">
      <g>
       <use style="stroke:#000000;stroke-width:0.5;" x="406.321042468" xlink:href="#ma9c915e141" y="20.935625"/>
      </g>
     </g>
    </g>
    <g id="xtick_17">
     <g id="line2d_34">
      <g>
       <use style="stroke:#000000;stroke-width:0.5;" x="423.994296586" xlink:href="#mc21db286a6" y="467.335625"/>
      </g>
     </g>
     <g id="line2d_35">
      <g>
       <use style="stroke:#000000;stroke-width:0.5;" x="423.994296586" xlink:href="#ma9c915e141" y="20.935625"/>
      </g>
     </g>
    </g>
    <g id="xtick_18">
     <g id="line2d_36">
      <g>
       <use style="stroke:#000000;stroke-width:0.5;" x="438.936820031" xlink:href="#mc21db286a6" y="467.335625"/>
      </g>
     </g>
     <g id="line2d_37">
      <g>
       <use style="stroke:#000000;stroke-width:0.5;" x="438.936820031" xlink:href="#ma9c915e141" y="20.935625"/>
      </g>
     </g>
    </g>
    <g id="xtick_19">
     <g id="line2d_38">
      <g>
       <use style="stroke:#000000;stroke-width:0.5;" x="451.880622597" xlink:href="#mc21db286a6" y="467.335625"/>
      </g>
     </g>
     <g id="line2d_39">
      <g>
       <use style="stroke:#000000;stroke-width:0.5;" x="451.880622597" xlink:href="#ma9c915e141" y="20.935625"/>
      </g>
     </g>
    </g>
    <g id="xtick_20">
     <g id="line2d_40">
      <g>
       <use style="stroke:#000000;stroke-width:0.5;" x="463.297865607" xlink:href="#mc21db286a6" y="467.335625"/>
      </g>
     </g>
     <g id="line2d_41">
      <g>
       <use style="stroke:#000000;stroke-width:0.5;" x="463.297865607" xlink:href="#ma9c915e141" y="20.935625"/>
      </g>
     </g>
    </g>
    <g id="xtick_21">
     <g id="line2d_42">
      <g>
       <use style="stroke:#000000;stroke-width:0.5;" x="540.700832532" xlink:href="#mc21db286a6" y="467.335625"/>
      </g>
     </g>
     <g id="line2d_43">
      <g>
       <use style="stroke:#000000;stroke-width:0.5;" x="540.700832532" xlink:href="#ma9c915e141" y="20.935625"/>
      </g>
     </g>
    </g>
    <g id="xtick_22">
     <g id="line2d_44">
      <g>
       <use style="stroke:#000000;stroke-width:0.5;" x="580.004401553" xlink:href="#mc21db286a6" y="467.335625"/>
      </g>
     </g>
     <g id="line2d_45">
      <g>
       <use style="stroke:#000000;stroke-width:0.5;" x="580.004401553" xlink:href="#ma9c915e141" y="20.935625"/>
      </g>
     </g>
    </g>
    <g id="xtick_23">
     <g id="line2d_46">
      <g>
       <use style="stroke:#000000;stroke-width:0.5;" x="607.890727564" xlink:href="#mc21db286a6" y="467.335625"/>
      </g>
     </g>
     <g id="line2d_47">
      <g>
       <use style="stroke:#000000;stroke-width:0.5;" x="607.890727564" xlink:href="#ma9c915e141" y="20.935625"/>
      </g>
     </g>
    </g>
    <g id="xtick_24">
     <g id="line2d_48">
      <g>
       <use style="stroke:#000000;stroke-width:0.5;" x="629.521042468" xlink:href="#mc21db286a6" y="467.335625"/>
      </g>
     </g>
     <g id="line2d_49">
      <g>
       <use style="stroke:#000000;stroke-width:0.5;" x="629.521042468" xlink:href="#ma9c915e141" y="20.935625"/>
      </g>
     </g>
    </g>
    <g id="xtick_25">
     <g id="line2d_50">
      <g>
       <use style="stroke:#000000;stroke-width:0.5;" x="647.194296586" xlink:href="#mc21db286a6" y="467.335625"/>
      </g>
     </g>
     <g id="line2d_51">
      <g>
       <use style="stroke:#000000;stroke-width:0.5;" x="647.194296586" xlink:href="#ma9c915e141" y="20.935625"/>
      </g>
     </g>
    </g>
    <g id="xtick_26">
     <g id="line2d_52">
      <g>
       <use style="stroke:#000000;stroke-width:0.5;" x="662.136820031" xlink:href="#mc21db286a6" y="467.335625"/>
      </g>
     </g>
     <g id="line2d_53">
      <g>
       <use style="stroke:#000000;stroke-width:0.5;" x="662.136820031" xlink:href="#ma9c915e141" y="20.935625"/>
      </g>
     </g>
    </g>
    <g id="xtick_27">
     <g id="line2d_54">
      <g>
       <use style="stroke:#000000;stroke-width:0.5;" x="675.080622597" xlink:href="#mc21db286a6" y="467.335625"/>
      </g>
     </g>
     <g id="line2d_55">
      <g>
       <use style="stroke:#000000;stroke-width:0.5;" x="675.080622597" xlink:href="#ma9c915e141" y="20.935625"/>
      </g>
     </g>
    </g>
    <g id="xtick_28">
     <g id="line2d_56">
      <g>
       <use style="stroke:#000000;stroke-width:0.5;" x="686.497865607" xlink:href="#mc21db286a6" y="467.335625"/>
      </g>
     </g>
     <g id="line2d_57">
      <g>
       <use style="stroke:#000000;stroke-width:0.5;" x="686.497865607" xlink:href="#ma9c915e141" y="20.935625"/>
      </g>
     </g>
    </g>
   </g>
   <g id="matplotlib.axis_2">
    <g id="ytick_1">
     <g id="line2d_58">
      <defs>
       <path d="
M0 0
L4 0" id="md7965d1ba0" style="stroke:#000000;stroke-width:0.5;"/>
      </defs>
      <g>
       <use style="stroke:#000000;stroke-width:0.5;" x="27.1109375" xlink:href="#md7965d1ba0" y="467.335625"/>
      </g>
     </g>
     <g id="line2d_59">
      <defs>
       <path d="
M0 0
L-4 0" id="md9a1c1a7cd" style="stroke:#000000;stroke-width:0.5;"/>
      </defs>
      <g>
       <use style="stroke:#000000;stroke-width:0.5;" x="696.7109375" xlink:href="#md9a1c1a7cd" y="467.335625"/>
      </g>
     </g>
     <g id="text_5">
      <text style="font-family:Arial;font-size:10.0px;font-style:normal;text-anchor:end;" transform="rotate(-0.000000, 23.110938, 469.920781)" x="23.1109375" y="469.92078125">0</text>
     </g>
    </g>
    <g id="ytick_2">
     <g id="line2d_60">
      <g>
       <use style="stroke:#000000;stroke-width:0.5;" x="27.1109375" xlink:href="#md7965d1ba0" y="403.564196429"/>
      </g>
     </g>
     <g id="line2d_61">
      <g>
       <use style="stroke:#000000;stroke-width:0.5;" x="696.7109375" xlink:href="#md9a1c1a7cd" y="403.564196429"/>
      </g>
     </g>
     <g id="text_6">
      <text style="font-family:Arial;font-size:10.0px;font-style:normal;text-anchor:end;" transform="rotate(-0.000000, 23.110938, 406.149353)" x="23.1109375" y="406.149352679">50</text>
     </g>
    </g>
    <g id="ytick_3">
     <g id="line2d_62">
      <g>
       <use style="stroke:#000000;stroke-width:0.5;" x="27.1109375" xlink:href="#md7965d1ba0" y="339.792767857"/>
      </g>
     </g>
     <g id="line2d_63">
      <g>
       <use style="stroke:#000000;stroke-width:0.5;" x="696.7109375" xlink:href="#md9a1c1a7cd" y="339.792767857"/>
      </g>
     </g>
     <g id="text_7">
      <text style="font-family:Arial;font-size:10.0px;font-style:normal;text-anchor:end;" transform="rotate(-0.000000, 23.110938, 342.377924)" x="23.1109375" y="342.377924107">100</text>
     </g>
    </g>
    <g id="ytick_4">
     <g id="line2d_64">
      <g>
       <use style="stroke:#000000;stroke-width:0.5;" x="27.1109375" xlink:href="#md7965d1ba0" y="276.021339286"/>
      </g>
     </g>
     <g id="line2d_65">
      <g>
       <use style="stroke:#000000;stroke-width:0.5;" x="696.7109375" xlink:href="#md9a1c1a7cd" y="276.021339286"/>
      </g>
     </g>
     <g id="text_8">
      <text style="font-family:Arial;font-size:10.0px;font-style:normal;text-anchor:end;" transform="rotate(-0.000000, 23.110938, 278.606496)" x="23.1109375" y="278.606495536">150</text>
     </g>
    </g>
    <g id="ytick_5">
     <g id="line2d_66">
      <g>
       <use style="stroke:#000000;stroke-width:0.5;" x="27.1109375" xlink:href="#md7965d1ba0" y="212.249910714"/>
      </g>
     </g>
     <g id="line2d_67">
      <g>
       <use style="stroke:#000000;stroke-width:0.5;" x="696.7109375" xlink:href="#md9a1c1a7cd" y="212.249910714"/>
      </g>
     </g>
     <g id="text_9">
      <text style="font-family:Arial;font-size:10.0px;font-style:normal;text-anchor:end;" transform="rotate(-0.000000, 23.110938, 214.835067)" x="23.1109375" y="214.835066964">200</text>
     </g>
    </g>
    <g id="ytick_6">
     <g id="line2d_68">
      <g>
       <use style="stroke:#000000;stroke-width:0.5;" x="27.1109375" xlink:href="#md7965d1ba0" y="148.478482143"/>
      </g>
     </g>
     <g id="line2d_69">
      <g>
       <use style="stroke:#000000;stroke-width:0.5;" x="696.7109375" xlink:href="#md9a1c1a7cd" y="148.478482143"/>
      </g>
     </g>
     <g id="text_10">
      <text style="font-family:Arial;font-size:10.0px;font-style:normal;text-anchor:end;" transform="rotate(-0.000000, 23.110938, 151.063638)" x="23.1109375" y="151.063638393">250</text>
     </g>
    </g>
    <g id="ytick_7">
     <g id="line2d_70">
      <g>
       <use style="stroke:#000000;stroke-width:0.5;" x="27.1109375" xlink:href="#md7965d1ba0" y="84.7070535714"/>
      </g>
     </g>
     <g id="line2d_71">
      <g>
       <use style="stroke:#000000;stroke-width:0.5;" x="696.7109375" xlink:href="#md9a1c1a7cd" y="84.7070535714"/>
      </g>
     </g>
     <g id="text_11">
      <text style="font-family:Arial;font-size:10.0px;font-style:normal;text-anchor:end;" transform="rotate(-0.000000, 23.110938, 87.292210)" x="23.1109375" y="87.2922098214">300</text>
     </g>
    </g>
    <g id="ytick_8">
     <g id="line2d_72">
      <g>
       <use style="stroke:#000000;stroke-width:0.5;" x="27.1109375" xlink:href="#md7965d1ba0" y="20.935625"/>
      </g>
     </g>
     <g id="line2d_73">
      <g>
       <use style="stroke:#000000;stroke-width:0.5;" x="696.7109375" xlink:href="#md9a1c1a7cd" y="20.935625"/>
      </g>
     </g>
     <g id="text_12">
      <text style="font-family:Arial;font-size:10.0px;font-style:normal;text-anchor:end;" transform="rotate(-0.000000, 23.110938, 23.520781)" x="23.1109375" y="23.52078125">350</text>
     </g>
    </g>
   </g>
   <g id="text_13">
    <text style="font-family:Arial;font-size:10.0px;font-style:normal;" transform="translate(33.8069375 441.717875)"/>
    <text style="font-family:Arial;font-size:10.0px;font-style:normal;" transform="translate(33.8069375 452.29475)"/>
    <text style="font-family:Arial;font-size:10.0px;font-style:normal;" transform="translate(33.8069375 462.871625)">channel_detection.details.powerspectra.upper</text>
   </g>
   <g id="text_14">
    <text style="font-family:Arial;font-size:12.0px;font-style:normal;text-anchor:middle;" transform="rotate(-0.000000, 361.910938, 15.935625)" x="361.9109375" y="15.935625">mainfreq=60.000000</text>
   </g>
  </g>
 </g>
 <defs>
  <clipPath id="p8a97c097eb">
   <rect height="446.4" width="669.6" x="27.1109375" y="20.935625"/>
  </clipPath>
 </defs>
</svg>
