<?xml version="1.0" encoding="utf-8" standalone="no"?>
<!DOCTYPE svg PUBLIC "-//W3C//DTD SVG 1.1//EN"
  "http://www.w3.org/Graphics/SVG/1.1/DTD/svg11.dtd">
<!-- Created with matplotlib (http://matplotlib.org/) -->
<svg height="487pt" version="1.1" viewBox="0 0 711 487" width="711pt" xmlns="http://www.w3.org/2000/svg" xmlns:xlink="http://www.w3.org/1999/xlink">
 <defs>
  <style type="text/css">
*{stroke-linecap:butt;stroke-linejoin:round;}
  </style>
 </defs>
 <g id="figure_1">
  <g id="patch_1">
   <path d="
M0 487.535
L711.825 487.535
L711.825 0
L0 0
L0 487.535" style="fill:none;"/>
  </g>
  <g id="axes_1">
   <g id="patch_2">
    <path d="
M27.1109 467.189
L696.711 467.189
L696.711 20.7894
L27.1109 20.7894
z
" style="fill:#ffffff;"/>
   </g>
   <g id="line2d_1">
    <path clip-path="url(#pdc80724929)" d="
M27.1109 433.534
L28.2269 433.253
L31.5749 432.902
L32.6909 432.56
L33.8069 432.057
L34.9229 431.886
L36.0389 431.344
L37.1549 431.002
L39.3869 430.043
L40.5029 429.692
L44.9669 427.583
L46.0829 427.393
L47.1989 426.709
L49.4309 426.026
L50.5469 425.593
L53.8949 424.696
L56.1269 423.637
L58.3589 421.771
L59.4749 420.745
L61.7069 417.767
L68.4029 406.099
L72.8669 397.551
L73.9829 395.827
L76.2149 392.698
L78.4469 391.187
L79.5629 391.23
L80.6789 391.544
L81.7949 392.128
L82.9109 393.12
L87.3749 398.102
L88.4909 398.933
L90.7229 400.904
L91.8389 401.208
L92.9549 401.683
L94.0709 401.787
L95.1869 401.288
L96.3029 399.726
L97.4189 397.195
L98.5349 393.258
L99.6509 388.025
L100.767 382.012
L102.999 368.065
L106.347 347.63
L107.463 341.262
L108.579 336.256
L110.811 328.763
L111.927 323.814
L113.043 314.654
L114.159 298.93
L115.275 276.681
L116.391 248.197
L119.739 150.63
L120.855 123.243
L121.971 103.682
L123.087 92.1944
L124.203 90.5323
L125.319 101.317
L126.435 124.995
L127.551 160.285
L129.783 244.787
L130.899 280.437
L132.015 304.6
L133.131 315.907
L134.247 317.807
L135.363 313.813
L136.479 307.82
L137.595 302.539
L138.711 298.73
L139.827 297.861
L140.943 299.675
L142.059 303.617
L145.407 321.734
L146.523 324.84
L147.639 325.923
L148.755 324.878
L149.871 322.28
L150.987 319.094
L152.103 315.428
L156.567 298.327
L157.683 292.965
L162.147 268.869
L163.263 264.567
L164.379 261.513
L165.495 260.24
L166.611 259.442
L167.727 260.957
L168.843 266.233
L169.959 277.341
L172.191 312.184
L173.307 326.702
L174.423 337.277
L176.655 353.747
L178.887 372.989
L180.003 381.253
L182.235 394.516
L183.351 399.65
L184.467 403.748
L185.583 407.372
L186.699 410.525
L187.815 413.227
L188.931 415.511
L190.047 417.463
L191.163 419.125
L192.279 420.26
L193.395 420.963
L194.511 421.405
L196.743 421.262
L197.859 421.063
L198.975 420.626
L200.091 420.431
L202.323 419.548
L203.439 418.764
L204.555 418.218
L206.787 416.798
L210.135 414.628
L211.251 414.305
L213.483 413.17
L214.599 412.776
L215.715 412.125
L216.831 411.826
L217.947 411.062
L219.063 410.658
L220.179 410.44
L221.295 409.965
L222.411 409.618
L224.643 408.407
L226.875 407.728
L227.991 407.177
L229.107 406.854
L230.223 406.688
L231.339 407.125
L232.455 406.688
L240.267 406.712
L241.383 406.636
L242.499 406.313
L243.615 406.56
L245.847 406.64
L246.963 406.602
L248.079 406.811
L249.195 407.168
L250.311 407.206
L251.427 407.058
L252.543 407.111
L253.659 407.31
L255.891 407.391
L257.007 407.609
L258.123 408.013
L259.239 408.003
L260.355 408.222
L262.587 408.279
L263.703 408.706
L265.935 409.908
L267.051 411
L268.167 411.632
L269.283 412.51
L270.399 412.8
L271.515 413.322
L273.747 413.469
L274.863 413.512
L275.979 413.693
L277.095 413.735
L278.211 413.431
L279.327 413.389
L280.443 413.517
L281.559 413.232
L282.675 413.156
L283.791 413.294
L284.907 413.688
L286.023 414.334
L289.371 415.72
L291.603 416.309
L292.719 416.29
L293.835 416.746
L296.067 417.221
L298.299 417.33
L300.531 417.829
L302.763 418.114
L303.879 418.005
L304.995 418.014
L306.111 417.881
L309.459 417.06
L310.575 417.226
L312.807 416.138
L313.923 415.293
L316.155 413.161
L317.271 411.779
L318.387 411.242
L319.503 411.119
L320.619 411.508
L321.735 412.273
L323.967 413.982
L325.083 414.547
L326.199 415.435
L328.431 416.319
L329.547 416.727
L332.895 417.316
L334.011 417.425
L336.243 417.886
L337.359 417.686
L338.475 418.128
L339.591 418.081
L340.707 418.147
L341.823 418.014
L342.939 417.615
L344.055 417.463
L348.519 414.766
L349.635 414.552
L350.751 414.861
L352.983 415.127
L354.099 415.454
L358.563 416.134
L359.679 416.214
L363.027 414.932
L364.143 414.163
L365.259 414.438
L368.607 416.086
L370.839 417.591
L371.955 417.971
L373.071 418.798
L378.651 420.564
L380.883 421.196
L381.999 421.576
L383.115 421.642
L384.231 422.108
L386.463 422.787
L387.579 422.872
L388.695 422.592
L389.811 422.706
L390.927 422.621
L392.043 422.231
L394.275 421.785
L398.739 419.353
L399.855 419.026
L400.971 418.442
L404.319 419.795
L405.435 420.256
L406.551 420.56
L407.667 420.313
L409.899 419.258
L411.015 418.916
L412.131 418.446
L413.247 418.522
L415.479 417.805
L422.175 413.83
L423.291 413.674
L424.407 413.854
L425.523 414.357
L426.639 415.331
L427.755 416.034
L428.871 416.908
L431.103 418.252
L432.219 418.043
L433.335 417.349
L434.451 415.711
L435.567 413.156
L436.683 409.267
L437.799 403.739
L438.915 396.615
L440.031 387.93
L441.147 377.71
L442.263 365.876
L444.495 338.46
L448.959 280.485
L451.191 254.594
L452.307 243.386
L454.539 223.944
L455.655 214.931
L456.771 207.859
L457.887 202.094
L459.003 197.763
L460.119 195.099
L461.235 193.408
L462.351 193.299
L463.467 194.154
L464.583 195.37
L465.699 196.837
L466.815 197.645
L467.931 198.309
L469.047 198.457
L470.163 197.279
L471.279 195.047
L472.395 191.461
L473.511 186.285
L474.627 180.045
L476.859 164.468
L479.091 148.958
L480.207 142.908
L481.323 139.931
L482.439 141.142
L483.555 145.378
L484.671 154.486
L485.787 165.846
L488.019 191.713
L489.135 201.372
L490.251 204.939
L491.367 202.555
L492.483 194.496
L493.599 185.012
L494.715 179.988
L495.831 184.29
L496.947 198.59
L498.063 217.153
L499.179 229.643
L500.295 225.017
L502.527 188.508
L503.643 189.98
L504.759 214.722
L505.875 248.867
L506.991 274.606
L508.107 287.575
L509.223 295.724
L510.339 307.359
L512.571 340.82
L513.687 353.372
L514.803 360.4
L515.919 363.568
L517.035 365.405
L518.151 368.184
L519.267 371.959
L521.499 381.604
L522.615 385.636
L523.731 388.49
L524.847 390.152
L529.311 393.02
L530.427 393.999
L533.775 395.191
L534.891 395.143
L536.007 395.333
L537.123 395.238
L540.471 395.86
L541.587 396.297
L542.703 396.858
L544.935 397.641
L548.283 399.93
L551.631 402.86
L553.863 404.522
L558.327 408.146
L562.791 411.351
L563.907 411.879
L565.023 412.7
L567.255 413.892
L569.487 414.699
L570.603 415.606
L571.719 416.048
L573.951 417.216
L575.067 417.696
L576.183 418.541
L577.299 419.106
L579.531 419.885
L580.647 420.488
L581.763 420.901
L583.995 422.326
L587.343 423.76
L588.459 424.216
L591.807 425.271
L594.039 425.997
L595.155 426.273
L596.271 426.795
L597.387 427.032
L598.503 427.631
L600.735 428.139
L601.851 428.419
L601.851 428.419" style="fill:none;stroke:#0000ff;stroke-linecap:square;"/>
   </g>
   <g id="patch_3">
    <path d="
M27.1109 467.189
L696.711 467.189" style="fill:none;stroke:#000000;stroke-linecap:square;stroke-linejoin:miter;"/>
   </g>
   <g id="patch_4">
    <path d="
M27.1109 20.7894
L696.711 20.7894" style="fill:none;stroke:#000000;stroke-linecap:square;stroke-linejoin:miter;"/>
   </g>
   <g id="patch_5">
    <path d="
M696.711 467.189
L696.711 20.7894" style="fill:none;stroke:#000000;stroke-linecap:square;stroke-linejoin:miter;"/>
   </g>
   <g id="patch_6">
    <path d="
M27.1109 467.189
L27.1109 20.7894" style="fill:none;stroke:#000000;stroke-linecap:square;stroke-linejoin:miter;"/>
   </g>
   <g id="matplotlib.axis_1">
    <g id="xtick_1">
     <g id="line2d_2">
      <defs>
       <path d="
M0 0
L0 -4" id="mc7db9fdffb" style="stroke:#000000;stroke-width:0.5;"/>
      </defs>
      <g>
       <use style="stroke:#000000;stroke-width:0.5;" x="27.1109375" xlink:href="#mc7db9fdffb" y="467.189375"/>
      </g>
     </g>
     <g id="line2d_3">
      <defs>
       <path d="
M0 0
L0 4" id="m5a7d422ac3" style="stroke:#000000;stroke-width:0.5;"/>
      </defs>
      <g>
       <use style="stroke:#000000;stroke-width:0.5;" x="27.1109375" xlink:href="#m5a7d422ac3" y="20.789375"/>
      </g>
     </g>
     <g id="text_1">
      <text style="font-family:Arial;font-size:10.0px;font-style:normal;text-anchor:middle;" transform="rotate(-0.000000, 27.110938, 478.347187)" x="27.1109375" y="478.3471875">0</text>
     </g>
    </g>
    <g id="xtick_2">
     <g id="line2d_4">
      <g>
       <use style="stroke:#000000;stroke-width:0.5;" x="138.7109375" xlink:href="#mc7db9fdffb" y="467.189375"/>
      </g>
     </g>
     <g id="line2d_5">
      <g>
       <use style="stroke:#000000;stroke-width:0.5;" x="138.7109375" xlink:href="#m5a7d422ac3" y="20.789375"/>
      </g>
     </g>
     <g id="text_2">
      <text style="font-family:Arial;font-size:10.0px;font-style:normal;text-anchor:middle;" transform="rotate(-0.000000, 138.710938, 478.347187)" x="138.7109375" y="478.3471875">100</text>
     </g>
    </g>
    <g id="xtick_3">
     <g id="line2d_6">
      <g>
       <use style="stroke:#000000;stroke-width:0.5;" x="250.3109375" xlink:href="#mc7db9fdffb" y="467.189375"/>
      </g>
     </g>
     <g id="line2d_7">
      <g>
       <use style="stroke:#000000;stroke-width:0.5;" x="250.3109375" xlink:href="#m5a7d422ac3" y="20.789375"/>
      </g>
     </g>
     <g id="text_3">
      <text style="font-family:Arial;font-size:10.0px;font-style:normal;text-anchor:middle;" transform="rotate(-0.000000, 250.310938, 478.347187)" x="250.3109375" y="478.3471875">200</text>
     </g>
    </g>
    <g id="xtick_4">
     <g id="line2d_8">
      <g>
       <use style="stroke:#000000;stroke-width:0.5;" x="361.9109375" xlink:href="#mc7db9fdffb" y="467.189375"/>
      </g>
     </g>
     <g id="line2d_9">
      <g>
       <use style="stroke:#000000;stroke-width:0.5;" x="361.9109375" xlink:href="#m5a7d422ac3" y="20.789375"/>
      </g>
     </g>
     <g id="text_4">
      <text style="font-family:Arial;font-size:10.0px;font-style:normal;text-anchor:middle;" transform="rotate(-0.000000, 361.910938, 478.347187)" x="361.9109375" y="478.3471875">300</text>
     </g>
    </g>
    <g id="xtick_5">
     <g id="line2d_10">
      <g>
       <use style="stroke:#000000;stroke-width:0.5;" x="473.5109375" xlink:href="#mc7db9fdffb" y="467.189375"/>
      </g>
     </g>
     <g id="line2d_11">
      <g>
       <use style="stroke:#000000;stroke-width:0.5;" x="473.5109375" xlink:href="#m5a7d422ac3" y="20.789375"/>
      </g>
     </g>
     <g id="text_5">
      <text style="font-family:Arial;font-size:10.0px;font-style:normal;text-anchor:middle;" transform="rotate(-0.000000, 473.510938, 478.347187)" x="473.5109375" y="478.3471875">400</text>
     </g>
    </g>
    <g id="xtick_6">
     <g id="line2d_12">
      <g>
       <use style="stroke:#000000;stroke-width:0.5;" x="585.1109375" xlink:href="#mc7db9fdffb" y="467.189375"/>
      </g>
     </g>
     <g id="line2d_13">
      <g>
       <use style="stroke:#000000;stroke-width:0.5;" x="585.1109375" xlink:href="#m5a7d422ac3" y="20.789375"/>
      </g>
     </g>
     <g id="text_6">
      <text style="font-family:Arial;font-size:10.0px;font-style:normal;text-anchor:middle;" transform="rotate(-0.000000, 585.110937, 478.347187)" x="585.1109375" y="478.3471875">500</text>
     </g>
    </g>
    <g id="xtick_7">
     <g id="line2d_14">
      <g>
       <use style="stroke:#000000;stroke-width:0.5;" x="696.7109375" xlink:href="#mc7db9fdffb" y="467.189375"/>
      </g>
     </g>
     <g id="line2d_15">
      <g>
       <use style="stroke:#000000;stroke-width:0.5;" x="696.7109375" xlink:href="#m5a7d422ac3" y="20.789375"/>
      </g>
     </g>
     <g id="text_7">
      <text style="font-family:Arial;font-size:10.0px;font-style:normal;text-anchor:middle;" transform="rotate(-0.000000, 696.710938, 478.347187)" x="696.7109375" y="478.3471875">600</text>
     </g>
    </g>
   </g>
   <g id="matplotlib.axis_2">
    <g id="ytick_1">
     <g id="line2d_16">
      <defs>
       <path d="
M0 0
L4 0" id="md7965d1ba0" style="stroke:#000000;stroke-width:0.5;"/>
      </defs>
      <g>
       <use style="stroke:#000000;stroke-width:0.5;" x="27.1109375" xlink:href="#md7965d1ba0" y="467.189375"/>
      </g>
     </g>
     <g id="line2d_17">
      <defs>
       <path d="
M0 0
L-4 0" id="md9a1c1a7cd" style="stroke:#000000;stroke-width:0.5;"/>
      </defs>
      <g>
       <use style="stroke:#000000;stroke-width:0.5;" x="696.7109375" xlink:href="#md9a1c1a7cd" y="467.189375"/>
      </g>
     </g>
     <g id="text_8">
      <text style="font-family:Arial;font-size:10.0px;font-style:normal;text-anchor:end;" transform="rotate(-0.000000, 23.110938, 469.774531)" x="23.1109375" y="469.77453125">0</text>
     </g>
    </g>
    <g id="ytick_2">
     <g id="line2d_18">
      <g>
       <use style="stroke:#000000;stroke-width:0.5;" x="27.1109375" xlink:href="#md7965d1ba0" y="377.909375"/>
      </g>
     </g>
     <g id="line2d_19">
      <g>
       <use style="stroke:#000000;stroke-width:0.5;" x="696.7109375" xlink:href="#md9a1c1a7cd" y="377.909375"/>
      </g>
     </g>
     <g id="text_9">
      <text style="font-family:Arial;font-size:10.0px;font-style:normal;text-anchor:end;" transform="rotate(-0.000000, 23.110938, 380.494531)" x="23.1109375" y="380.49453125">50</text>
     </g>
    </g>
    <g id="ytick_3">
     <g id="line2d_20">
      <g>
       <use style="stroke:#000000;stroke-width:0.5;" x="27.1109375" xlink:href="#md7965d1ba0" y="288.629375"/>
      </g>
     </g>
     <g id="line2d_21">
      <g>
       <use style="stroke:#000000;stroke-width:0.5;" x="696.7109375" xlink:href="#md9a1c1a7cd" y="288.629375"/>
      </g>
     </g>
     <g id="text_10">
      <text style="font-family:Arial;font-size:10.0px;font-style:normal;text-anchor:end;" transform="rotate(-0.000000, 23.110938, 291.214531)" x="23.1109375" y="291.21453125">100</text>
     </g>
    </g>
    <g id="ytick_4">
     <g id="line2d_22">
      <g>
       <use style="stroke:#000000;stroke-width:0.5;" x="27.1109375" xlink:href="#md7965d1ba0" y="199.349375"/>
      </g>
     </g>
     <g id="line2d_23">
      <g>
       <use style="stroke:#000000;stroke-width:0.5;" x="696.7109375" xlink:href="#md9a1c1a7cd" y="199.349375"/>
      </g>
     </g>
     <g id="text_11">
      <text style="font-family:Arial;font-size:10.0px;font-style:normal;text-anchor:end;" transform="rotate(-0.000000, 23.110938, 201.934531)" x="23.1109375" y="201.93453125">150</text>
     </g>
    </g>
    <g id="ytick_5">
     <g id="line2d_24">
      <g>
       <use style="stroke:#000000;stroke-width:0.5;" x="27.1109375" xlink:href="#md7965d1ba0" y="110.069375"/>
      </g>
     </g>
     <g id="line2d_25">
      <g>
       <use style="stroke:#000000;stroke-width:0.5;" x="696.7109375" xlink:href="#md9a1c1a7cd" y="110.069375"/>
      </g>
     </g>
     <g id="text_12">
      <text style="font-family:Arial;font-size:10.0px;font-style:normal;text-anchor:end;" transform="rotate(-0.000000, 23.110938, 112.654531)" x="23.1109375" y="112.65453125">200</text>
     </g>
    </g>
    <g id="ytick_6">
     <g id="line2d_26">
      <g>
       <use style="stroke:#000000;stroke-width:0.5;" x="27.1109375" xlink:href="#md7965d1ba0" y="20.789375"/>
      </g>
     </g>
     <g id="line2d_27">
      <g>
       <use style="stroke:#000000;stroke-width:0.5;" x="696.7109375" xlink:href="#md9a1c1a7cd" y="20.789375"/>
      </g>
     </g>
     <g id="text_13">
      <text style="font-family:Arial;font-size:10.0px;font-style:normal;text-anchor:end;" transform="rotate(-0.000000, 23.110938, 23.374531)" x="23.1109375" y="23.37453125">250</text>
     </g>
    </g>
   </g>
   <g id="text_14">
    <text style="font-family:Arial;font-size:10.0px;font-style:normal;" transform="translate(33.8069375 441.571625)"/>
    <text style="font-family:Arial;font-size:10.0px;font-style:normal;" transform="translate(33.8069375 452.1485)"/>
    <text style="font-family:Arial;font-size:10.0px;font-style:normal;" transform="translate(33.8069375 462.725375)">channel_detection.details.overview.vertical</text>
   </g>
   <g id="text_15">
    <text style="font-family:Arial;font-size:12.0px;font-style:normal;text-anchor:middle;" transform="rotate(-0.000000, 361.910938, 15.789375)" x="361.9109375" y="15.789375">Basic vertical overview</text>
   </g>
  </g>
 </g>
 <defs>
  <clipPath id="pdc80724929">
   <rect height="446.4" width="669.6" x="27.1109375" y="20.789375"/>
  </clipPath>
 </defs>
</svg>
