<?xml version="1.0" encoding="utf-8" standalone="no"?>
<!DOCTYPE svg PUBLIC "-//W3C//DTD SVG 1.1//EN"
  "http://www.w3.org/Graphics/SVG/1.1/DTD/svg11.dtd">
<!-- Created with matplotlib (http://matplotlib.org/) -->
<svg height="487pt" version="1.1" viewBox="0 0 706 487" width="706pt" xmlns="http://www.w3.org/2000/svg" xmlns:xlink="http://www.w3.org/1999/xlink">
 <defs>
  <style type="text/css">
*{stroke-linecap:butt;stroke-linejoin:round;}
  </style>
 </defs>
 <g id="figure_1">
  <g id="patch_1">
   <path d="
M0 487.535
L706.389 487.535
L706.389 0
L0 0
L0 487.535" style="fill:none;"/>
  </g>
  <g id="axes_1">
   <g id="patch_2">
    <path d="
M21.55 467.189
L691.15 467.189
L691.15 20.7894
L21.55 20.7894
z
" style="fill:#ffffff;"/>
   </g>
   <g id="line2d_1">
    <path clip-path="url(#pa0f70f91c6)" d="
M21.55 467.189
L31.594 467.189
L33.268 466.998
L34.942 466.038
L36.616 465.454
L38.29 466.091
L39.964 467.189
L41.638 467.189
L43.312 467.006
L44.986 465.821
L46.66 464.888
L48.334 460.267
L50.008 451.827
L51.682 190.195
L53.356 111.813
L55.03 96.3809
L56.704 132.041
L58.378 203.447
L60.052 451.975
L61.726 463.109
L63.4 466.387
L65.074 461.461
L66.748 461.295
L68.422 467.189
L90.184 467.189
L91.858 466.841
L93.532 466.352
L100.228 466.317
L103.576 467.015
L105.25 466.719
L106.924 467.102
L108.598 466.596
L110.272 467.015
L111.946 466.762
L113.62 466.788
L115.294 467.189
L116.968 467.032
L118.642 467.189
L145.426 467.189
L147.1 466.849
L148.774 465.071
L150.448 463.772
L152.122 458.741
L153.796 448.252
L155.47 158.11
L157.144 89.4931
L158.818 94.3756
L160.492 140.236
L162.166 232.829
L163.84 455.881
L165.514 464.364
L167.188 465.149
L168.862 459.778
L170.536 463.1
L172.21 467.189
L192.298 467.189
L193.972 466.937
L195.646 466.544
L197.32 465.995
L198.994 465.803
L200.668 466.335
L202.342 466.553
L204.016 466.195
L205.69 466.344
L207.364 466.78
L210.712 466.579
L212.386 466.719
L214.06 466.527
L215.734 466.814
L219.082 467.067
L220.756 466.91
L222.43 467.181
L225.778 467.189
L227.452 466.937
L229.126 467.189
L230.8 467.189
L232.474 467.067
L234.148 467.189
L240.844 467.189
L242.518 466.823
L244.192 467.189
L247.54 467.189
L249.214 466.187
L252.562 463.745
L254.236 460.947
L257.584 447.729
L259.258 237.102
L260.932 256.806
L262.606 451.687
L264.28 457.468
L265.954 464.033
L267.628 467.189
L270.976 467.189
L272.65 462.08
L274.324 462.159
L275.998 467.189
L296.086 467.189
L297.76 466.544
L301.108 466.535
L302.782 466.073
L304.456 466.736
L306.13 466.501
L307.804 466.841
L309.478 466.701
L311.152 467.015
L316.174 466.727
L317.848 467.024
L319.522 467.006
L321.196 466.867
L322.87 467.111
L326.218 467.189
L331.24 467.189
L332.914 467.067
L334.588 467.189
L344.632 467.189
L346.306 467.067
L347.98 467.189
L351.328 467.189
L353.002 465.297
L354.676 463.196
L356.35 460.04
L358.024 454.547
L359.698 448.331
L361.372 258.811
L363.046 447.415
L364.72 453.78
L366.394 459.404
L368.068 464.495
L369.742 467.189
L373.09 467.189
L374.764 464.705
L376.438 459.264
L378.112 461.792
L379.786 467.189
L399.874 467.189
L401.548 466.745
L403.222 466.431
L404.896 466.431
L406.57 466.64
L408.244 466.588
L413.266 467.189
L414.94 466.998
L416.614 467.181
L418.288 467.006
L419.962 467.189
L421.636 467.189
L423.31 467.059
L424.984 467.189
L455.116 467.189
L456.79 466.082
L458.464 464.242
L460.138 460.615
L461.812 451.661
L463.486 182.435
L465.16 81.3847
L466.834 58.8903
L468.508 109.285
L470.182 201.965
L471.856 451.958
L473.53 462.202
L475.204 466.187
L476.878 463.388
L478.552 461.888
L480.226 467.189
L500.314 467.189
L501.988 466.963
L503.662 466.204
L505.336 466.091
L507.01 466.448
L508.684 466.1
L510.358 466.614
L512.032 466.474
L515.38 466.875
L517.054 466.727
L518.728 466.919
L520.402 466.588
L522.076 467.189
L525.424 466.902
L527.098 467.172
L528.772 467.163
L530.446 467.006
L532.12 467.189
L557.23 467.189
L558.904 466.623
L560.578 464.33
L562.252 462.577
L563.926 456.204
L565.6 247.39
L567.274 123.845
L568.948 56.4491
L570.622 72.0556
L572.296 154.186
L573.97 261.34
L575.644 456.797
L577.318 463.815
L578.992 465.698
L580.666 461.147
L582.34 465.263
L584.014 467.189
L604.102 467.189
L605.776 466.771
L607.45 466.535
L609.124 466.1
L610.798 466.082
L612.472 466.291
L614.146 466.23
L615.82 467.111
L617.494 466.64
L619.168 466.753
L620.842 467.154
L622.516 466.78
L624.19 467.076
L625.864 467.12
L627.538 466.849
L629.212 467.189
L647.626 467.189
L647.626 467.189" style="fill:none;stroke:#0000ff;stroke-linecap:square;"/>
   </g>
   <g id="line2d_2">
    <path clip-path="url(#pa0f70f91c6)" d="
M21.55 465.96
L23.224 465.603
L24.898 466.335
L26.572 465.716
L28.246 466.222
L29.92 466.248
L31.594 466.954
L33.268 467.189
L38.29 467.189
L41.638 466.317
L43.312 467.189
L66.748 467.189
L68.422 461.47
L70.096 217.659
L71.77 91.76
L73.444 88.0981
L75.118 150.524
L76.792 226.29
L78.466 449.072
L80.14 453.327
L81.814 456.849
L85.162 463.135
L86.836 464.495
L88.51 466.483
L90.184 466.937
L91.858 467.189
L113.62 467.189
L115.294 467.032
L116.968 467.189
L121.99 467.006
L123.664 466.248
L125.338 466.797
L127.012 466.466
L128.686 466.719
L132.034 466.527
L133.708 466.78
L135.382 466.3
L137.056 466.335
L138.73 466.78
L140.404 466.684
L142.078 466.335
L143.752 465.698
L145.426 466.265
L147.1 467.189
L170.536 467.189
L172.21 456.718
L173.884 154.186
L175.558 65.7781
L177.232 92.3703
L178.906 168.311
L180.58 445.628
L182.254 451.068
L183.928 454.416
L185.602 458.261
L187.276 461.522
L188.95 463.929
L190.624 465.289
L192.298 466.919
L193.972 467.189
L224.104 467.085
L225.778 466.814
L227.452 467.189
L230.8 466.675
L232.474 467.189
L234.148 466.553
L235.822 466.492
L237.496 466.806
L239.17 466.605
L240.844 467.032
L242.518 467.189
L244.192 467.05
L245.866 466.562
L247.54 466.492
L249.214 467.189
L265.954 467.189
L267.628 465.289
L269.302 462.708
L270.976 466.283
L272.65 467.189
L274.324 467.189
L275.998 464.347
L277.672 453.571
L279.346 448.688
L281.02 448.958
L282.694 452.847
L284.368 454.661
L286.042 456.038
L289.39 459.43
L291.064 462.08
L292.738 464.094
L294.412 465.838
L296.086 466.405
L297.76 467.189
L324.544 467.128
L326.218 467.006
L327.892 466.771
L331.24 466.719
L332.914 467.189
L334.588 466.771
L336.262 466.71
L337.936 466.858
L341.284 466.265
L344.632 467.076
L346.306 467.189
L347.98 466.387
L349.654 465.977
L351.328 466.937
L353.002 467.189
L368.068 467.189
L369.742 466.012
L371.416 461.967
L373.09 463.205
L374.764 467.189
L378.112 467.189
L379.786 463.187
L381.46 452.455
L383.134 448.488
L384.808 450.72
L386.482 453.919
L389.83 456.57
L391.504 457.651
L393.178 460.31
L394.852 462.699
L396.526 464.582
L398.2 465.995
L399.874 467.146
L404.896 467.189
L411.592 467.189
L413.266 466.98
L414.94 467.189
L418.288 467.189
L419.962 466.832
L421.636 466.814
L423.31 467.189
L424.984 466.98
L426.658 466.91
L428.332 466.98
L430.006 466.893
L431.68 466.379
L433.354 466.623
L435.028 466.03
L436.702 466.701
L438.376 466.344
L440.05 466.387
L441.724 466.021
L443.398 466.71
L445.072 466.483
L446.746 466.422
L448.42 467.05
L450.094 466.692
L453.442 465.271
L456.79 467.189
L478.552 467.189
L480.226 463.248
L481.9 230.475
L483.574 61.5059
L485.248 29.6825
L486.922 124.978
L488.596 232.917
L490.27 450.292
L491.944 454.146
L493.618 456.805
L495.292 460.598
L496.966 463.222
L498.64 465.254
L500.314 466.047
L501.988 467.189
L530.446 467.189
L532.12 466.832
L533.794 467.006
L535.468 466.649
L537.142 466.71
L538.816 466.649
L540.49 466.274
L542.164 466.701
L543.838 466.422
L545.512 466.291
L547.186 466.579
L548.86 466.596
L550.534 466.806
L553.882 466.344
L555.556 464.975
L557.23 465.829
L558.904 467.189
L582.34 467.189
L584.014 454.085
L585.688 135.79
L587.362 23.9281
L589.036 62.465
L590.71 173.455
L592.384 447.45
L594.058 452.542
L595.732 455.131
L597.406 458.575
L599.08 461.644
L600.754 463.937
L602.428 465.568
L604.102 466.963
L605.776 467.189
L630.886 467.154
L634.234 466.823
L635.908 467.12
L637.582 466.762
L639.256 466.623
L642.604 466.64
L644.278 467.111
L645.952 466.387
L647.626 466.501
L647.626 466.501" style="fill:none;stroke:#008000;stroke-linecap:square;"/>
   </g>
   <g id="patch_3">
    <path d="
M21.55 467.189
L691.15 467.189" style="fill:none;stroke:#000000;stroke-linecap:square;stroke-linejoin:miter;"/>
   </g>
   <g id="patch_4">
    <path d="
M21.55 20.7894
L691.15 20.7894" style="fill:none;stroke:#000000;stroke-linecap:square;stroke-linejoin:miter;"/>
   </g>
   <g id="patch_5">
    <path d="
M691.15 467.189
L691.15 20.7894" style="fill:none;stroke:#000000;stroke-linecap:square;stroke-linejoin:miter;"/>
   </g>
   <g id="patch_6">
    <path d="
M21.55 467.189
L21.55 20.7894" style="fill:none;stroke:#000000;stroke-linecap:square;stroke-linejoin:miter;"/>
   </g>
   <g id="matplotlib.axis_1">
    <g id="xtick_1">
     <g id="line2d_3">
      <defs>
       <path d="
M0 0
L0 -4" id="mc7db9fdffb" style="stroke:#000000;stroke-width:0.5;"/>
      </defs>
      <g>
       <use style="stroke:#000000;stroke-width:0.5;" x="21.55" xlink:href="#mc7db9fdffb" y="467.189375"/>
      </g>
     </g>
     <g id="line2d_4">
      <defs>
       <path d="
M0 0
L0 4" id="m5a7d422ac3" style="stroke:#000000;stroke-width:0.5;"/>
      </defs>
      <g>
       <use style="stroke:#000000;stroke-width:0.5;" x="21.55" xlink:href="#m5a7d422ac3" y="20.789375"/>
      </g>
     </g>
     <g id="text_1">
      <text style="font-family:Arial;font-size:10.0px;font-style:normal;text-anchor:middle;" transform="rotate(-0.000000, 21.550000, 478.347187)" x="21.55" y="478.3471875">0</text>
     </g>
    </g>
    <g id="xtick_2">
     <g id="line2d_5">
      <g>
       <use style="stroke:#000000;stroke-width:0.5;" x="105.25" xlink:href="#mc7db9fdffb" y="467.189375"/>
      </g>
     </g>
     <g id="line2d_6">
      <g>
       <use style="stroke:#000000;stroke-width:0.5;" x="105.25" xlink:href="#m5a7d422ac3" y="20.789375"/>
      </g>
     </g>
     <g id="text_2">
      <text style="font-family:Arial;font-size:10.0px;font-style:normal;text-anchor:middle;" transform="rotate(-0.000000, 105.250000, 478.347187)" x="105.25" y="478.3471875">50</text>
     </g>
    </g>
    <g id="xtick_3">
     <g id="line2d_7">
      <g>
       <use style="stroke:#000000;stroke-width:0.5;" x="188.95" xlink:href="#mc7db9fdffb" y="467.189375"/>
      </g>
     </g>
     <g id="line2d_8">
      <g>
       <use style="stroke:#000000;stroke-width:0.5;" x="188.95" xlink:href="#m5a7d422ac3" y="20.789375"/>
      </g>
     </g>
     <g id="text_3">
      <text style="font-family:Arial;font-size:10.0px;font-style:normal;text-anchor:middle;" transform="rotate(-0.000000, 188.950000, 478.347187)" x="188.95" y="478.3471875">100</text>
     </g>
    </g>
    <g id="xtick_4">
     <g id="line2d_9">
      <g>
       <use style="stroke:#000000;stroke-width:0.5;" x="272.65" xlink:href="#mc7db9fdffb" y="467.189375"/>
      </g>
     </g>
     <g id="line2d_10">
      <g>
       <use style="stroke:#000000;stroke-width:0.5;" x="272.65" xlink:href="#m5a7d422ac3" y="20.789375"/>
      </g>
     </g>
     <g id="text_4">
      <text style="font-family:Arial;font-size:10.0px;font-style:normal;text-anchor:middle;" transform="rotate(-0.000000, 272.650000, 478.347187)" x="272.65" y="478.3471875">150</text>
     </g>
    </g>
    <g id="xtick_5">
     <g id="line2d_11">
      <g>
       <use style="stroke:#000000;stroke-width:0.5;" x="356.35" xlink:href="#mc7db9fdffb" y="467.189375"/>
      </g>
     </g>
     <g id="line2d_12">
      <g>
       <use style="stroke:#000000;stroke-width:0.5;" x="356.35" xlink:href="#m5a7d422ac3" y="20.789375"/>
      </g>
     </g>
     <g id="text_5">
      <text style="font-family:Arial;font-size:10.0px;font-style:normal;text-anchor:middle;" transform="rotate(-0.000000, 356.350000, 478.347187)" x="356.35" y="478.3471875">200</text>
     </g>
    </g>
    <g id="xtick_6">
     <g id="line2d_13">
      <g>
       <use style="stroke:#000000;stroke-width:0.5;" x="440.05" xlink:href="#mc7db9fdffb" y="467.189375"/>
      </g>
     </g>
     <g id="line2d_14">
      <g>
       <use style="stroke:#000000;stroke-width:0.5;" x="440.05" xlink:href="#m5a7d422ac3" y="20.789375"/>
      </g>
     </g>
     <g id="text_6">
      <text style="font-family:Arial;font-size:10.0px;font-style:normal;text-anchor:middle;" transform="rotate(-0.000000, 440.050000, 478.347187)" x="440.05" y="478.3471875">250</text>
     </g>
    </g>
    <g id="xtick_7">
     <g id="line2d_15">
      <g>
       <use style="stroke:#000000;stroke-width:0.5;" x="523.75" xlink:href="#mc7db9fdffb" y="467.189375"/>
      </g>
     </g>
     <g id="line2d_16">
      <g>
       <use style="stroke:#000000;stroke-width:0.5;" x="523.75" xlink:href="#m5a7d422ac3" y="20.789375"/>
      </g>
     </g>
     <g id="text_7">
      <text style="font-family:Arial;font-size:10.0px;font-style:normal;text-anchor:middle;" transform="rotate(-0.000000, 523.750000, 478.347187)" x="523.75" y="478.3471875">300</text>
     </g>
    </g>
    <g id="xtick_8">
     <g id="line2d_17">
      <g>
       <use style="stroke:#000000;stroke-width:0.5;" x="607.45" xlink:href="#mc7db9fdffb" y="467.189375"/>
      </g>
     </g>
     <g id="line2d_18">
      <g>
       <use style="stroke:#000000;stroke-width:0.5;" x="607.45" xlink:href="#m5a7d422ac3" y="20.789375"/>
      </g>
     </g>
     <g id="text_8">
      <text style="font-family:Arial;font-size:10.0px;font-style:normal;text-anchor:middle;" transform="rotate(-0.000000, 607.450000, 478.347187)" x="607.45" y="478.3471875">350</text>
     </g>
    </g>
    <g id="xtick_9">
     <g id="line2d_19">
      <g>
       <use style="stroke:#000000;stroke-width:0.5;" x="691.15" xlink:href="#mc7db9fdffb" y="467.189375"/>
      </g>
     </g>
     <g id="line2d_20">
      <g>
       <use style="stroke:#000000;stroke-width:0.5;" x="691.15" xlink:href="#m5a7d422ac3" y="20.789375"/>
      </g>
     </g>
     <g id="text_9">
      <text style="font-family:Arial;font-size:10.0px;font-style:normal;text-anchor:middle;" transform="rotate(-0.000000, 691.150000, 478.347187)" x="691.15" y="478.3471875">400</text>
     </g>
    </g>
   </g>
   <g id="matplotlib.axis_2">
    <g id="ytick_1">
     <g id="line2d_21">
      <defs>
       <path d="
M0 0
L4 0" id="md7965d1ba0" style="stroke:#000000;stroke-width:0.5;"/>
      </defs>
      <g>
       <use style="stroke:#000000;stroke-width:0.5;" x="21.55" xlink:href="#md7965d1ba0" y="467.189375"/>
      </g>
     </g>
     <g id="line2d_22">
      <defs>
       <path d="
M0 0
L-4 0" id="md9a1c1a7cd" style="stroke:#000000;stroke-width:0.5;"/>
      </defs>
      <g>
       <use style="stroke:#000000;stroke-width:0.5;" x="691.15" xlink:href="#md9a1c1a7cd" y="467.189375"/>
      </g>
     </g>
     <g id="text_10">
      <text style="font-family:Arial;font-size:10.0px;font-style:normal;text-anchor:end;" transform="rotate(-0.000000, 17.550000, 469.774531)" x="17.55" y="469.77453125">0</text>
     </g>
    </g>
    <g id="ytick_2">
     <g id="line2d_23">
      <g>
       <use style="stroke:#000000;stroke-width:0.5;" x="21.55" xlink:href="#md7965d1ba0" y="355.589375"/>
      </g>
     </g>
     <g id="line2d_24">
      <g>
       <use style="stroke:#000000;stroke-width:0.5;" x="691.15" xlink:href="#md9a1c1a7cd" y="355.589375"/>
      </g>
     </g>
     <g id="text_11">
      <text style="font-family:Arial;font-size:10.0px;font-style:normal;text-anchor:end;" transform="rotate(-0.000000, 17.550000, 358.174531)" x="17.55" y="358.17453125">5</text>
     </g>
    </g>
    <g id="ytick_3">
     <g id="line2d_25">
      <g>
       <use style="stroke:#000000;stroke-width:0.5;" x="21.55" xlink:href="#md7965d1ba0" y="243.989375"/>
      </g>
     </g>
     <g id="line2d_26">
      <g>
       <use style="stroke:#000000;stroke-width:0.5;" x="691.15" xlink:href="#md9a1c1a7cd" y="243.989375"/>
      </g>
     </g>
     <g id="text_12">
      <text style="font-family:Arial;font-size:10.0px;font-style:normal;text-anchor:end;" transform="rotate(-0.000000, 17.550000, 246.574531)" x="17.55" y="246.57453125">10</text>
     </g>
    </g>
    <g id="ytick_4">
     <g id="line2d_27">
      <g>
       <use style="stroke:#000000;stroke-width:0.5;" x="21.55" xlink:href="#md7965d1ba0" y="132.389375"/>
      </g>
     </g>
     <g id="line2d_28">
      <g>
       <use style="stroke:#000000;stroke-width:0.5;" x="691.15" xlink:href="#md9a1c1a7cd" y="132.389375"/>
      </g>
     </g>
     <g id="text_13">
      <text style="font-family:Arial;font-size:10.0px;font-style:normal;text-anchor:end;" transform="rotate(-0.000000, 17.550000, 134.974531)" x="17.55" y="134.97453125">15</text>
     </g>
    </g>
    <g id="ytick_5">
     <g id="line2d_29">
      <g>
       <use style="stroke:#000000;stroke-width:0.5;" x="21.55" xlink:href="#md7965d1ba0" y="20.789375"/>
      </g>
     </g>
     <g id="line2d_30">
      <g>
       <use style="stroke:#000000;stroke-width:0.5;" x="691.15" xlink:href="#md9a1c1a7cd" y="20.789375"/>
      </g>
     </g>
     <g id="text_14">
      <text style="font-family:Arial;font-size:10.0px;font-style:normal;text-anchor:end;" transform="rotate(-0.000000, 17.550000, 23.374531)" x="17.55" y="23.37453125">20</text>
     </g>
    </g>
   </g>
   <g id="text_15">
    <text style="font-family:Arial;font-size:10.0px;font-style:normal;" transform="translate(28.246 441.44975)"/>
    <text style="font-family:Arial;font-size:10.0px;font-style:normal;" transform="translate(28.246 452.026625)"/>
    <text style="font-family:Arial;font-size:10.0px;font-style:normal;" transform="translate(28.246 462.74975)">channel_detection.details.differentials.smoothed</text>
   </g>
   <g id="text_16">
    <text style="font-family:Arial;font-size:12.0px;font-style:normal;text-anchor:middle;" transform="rotate(-0.000000, 356.350000, 15.789375)" x="356.35" y="15.789375">Channel detection/Differentials/Smoothed</text>
   </g>
  </g>
 </g>
 <defs>
  <clipPath id="pa0f70f91c6">
   <rect height="446.4" width="669.6" x="21.55" y="20.789375"/>
  </clipPath>
 </defs>
</svg>
