<?xml version="1.0" encoding="utf-8" standalone="no"?>
<!DOCTYPE svg PUBLIC "-//W3C//DTD SVG 1.1//EN"
  "http://www.w3.org/Graphics/SVG/1.1/DTD/svg11.dtd">
<!-- Created with matplotlib (http://matplotlib.org/) -->
<svg height="487pt" version="1.1" viewBox="0 0 711 487" width="711pt" xmlns="http://www.w3.org/2000/svg" xmlns:xlink="http://www.w3.org/1999/xlink">
 <defs>
  <style type="text/css">
*{stroke-linecap:butt;stroke-linejoin:round;}
  </style>
 </defs>
 <g id="figure_1">
  <g id="patch_1">
   <path d="
M0 487.535
L711.155 487.535
L711.155 0
L0 0
L0 487.535" style="fill:none;"/>
  </g>
  <g id="axes_1">
   <g id="patch_2">
    <path d="
M26.3156 467.189
L695.916 467.189
L695.916 20.7894
L26.3156 20.7894
z
" style="fill:#ffffff;"/>
   </g>
   <g id="line2d_1">
    <path clip-path="url(#p81dc7147e6)" d="
M26.3156 424.179
L27.9896 417.344
L31.3376 419.651
L33.0116 421.511
L34.6856 424.107
L36.3596 424.078
L38.0336 423.458
L39.7076 421.425
L41.3816 417.07
L43.0556 411.836
L44.7296 410.553
L46.4036 411.793
L48.0776 415.254
L49.7516 416.926
L51.4256 419.074
L53.0996 419.882
L54.7736 413.48
L56.4476 389.545
L58.1216 342.699
L59.7956 278.522
L61.4696 209.096
L63.1436 144.934
L64.8176 94.1801
L66.4916 63.1224
L68.1656 51.1117
L69.8396 47.5503
L71.5136 42.2154
L73.1876 41.0475
L74.8616 60.3684
L76.5356 110.79
L79.8836 248.185
L81.5576 304.418
L83.2316 345.886
L84.9056 376.9
L86.5796 399.249
L88.2536 416.681
L89.9276 426.803
L91.6016 432.729
L93.2756 435.901
L94.9496 435.8
L96.6236 435.223
L98.2976 434.027
L103.32 428.548
L104.994 427.942
L106.668 425.909
L108.342 425.289
L110.016 425.476
L111.69 425.174
L113.364 425.073
L116.712 423.559
L118.386 423.068
L120.06 421.324
L121.734 421.353
L123.408 420.733
L125.082 421.18
L126.756 420.646
L128.43 421.886
L130.104 423.919
L131.778 424.28
L133.452 425.462
L138.474 428.201
L140.148 428.85
L141.822 431.965
L145.17 435.627
L146.844 437.559
L148.518 439.015
L151.866 443.355
L153.54 444.682
L155.214 444.812
L156.888 442.231
L158.562 431.301
L160.236 399.105
L161.91 343.088
L165.258 199.09
L166.932 135.461
L168.606 90.2582
L170.28 65.2419
L171.954 58.0038
L173.628 56.7061
L175.302 51.2559
L176.976 53.4331
L178.65 79.9922
L180.324 139.166
L181.998 210.754
L183.672 276.518
L185.346 327.603
L187.02 363.289
L188.694 388.925
L190.368 408.981
L192.042 422.939
L193.716 430.696
L195.39 434.574
L197.064 436.204
L198.738 435.901
L200.412 433.897
L202.086 432.614
L203.76 429.86
L205.434 428.187
L207.108 426.068
L208.782 425.188
L210.456 423.04
L212.13 422.131
L217.152 418.671
L218.826 418.253
L220.5 417.373
L222.174 417.33
L223.848 416.494
L227.196 415.902
L228.87 416.119
L230.544 416.003
L232.218 417.517
L233.892 416.667
L235.566 417.546
L237.24 418.555
L238.914 418.339
L242.262 421.454
L243.936 422.304
L245.61 424.121
L247.284 424.9
L248.958 424.568
L250.632 423.775
L252.306 425.044
L253.98 426.039
L255.654 425.145
L257.328 422.996
L259.002 420.3
L260.676 412.572
L262.35 392.905
L264.024 358.891
L267.372 272.394
L269.046 238.77
L270.72 216.248
L272.394 206.472
L274.068 206.89
L275.742 213.681
L277.416 218.656
L279.09 216.926
L280.764 214.979
L282.438 224.582
L284.112 250.492
L285.786 284.419
L287.46 316.039
L289.134 340.969
L290.808 361.429
L292.482 380.49
L294.156 395.514
L295.83 406.516
L297.504 413.595
L299.178 418.036
L300.852 419.406
L302.526 419.781
L304.2 418.022
L305.874 417.474
L307.548 416.566
L309.222 414.965
L310.896 414.201
L312.57 413.639
L314.244 413.869
L315.918 414.302
L317.592 413.668
L319.266 413.884
L320.94 412.874
L322.614 412.759
L324.288 412.428
L325.962 412.889
L327.636 411.908
L329.31 411.981
L330.984 412.644
L332.658 412.327
L334.332 412.557
L336.006 414.187
L337.68 415.095
L339.354 415.427
L341.028 415.499
L342.702 416.234
L344.376 416.566
L346.05 418.094
L347.724 419.017
L349.398 420.502
L351.072 421.007
L352.746 420.689
L354.42 421.612
L356.094 423.66
L357.768 423.443
L359.442 420.891
L361.116 415.441
L362.79 406.631
L364.464 387.397
L366.138 356.253
L369.486 279.012
L371.16 249.872
L372.834 230.897
L374.508 220.386
L376.182 218.656
L377.856 223.948
L379.53 232.613
L381.204 233.781
L382.878 227.682
L384.552 223.803
L386.226 235.237
L387.9 262.647
L389.574 295.781
L391.248 324.863
L392.922 347.616
L394.596 366.533
L396.27 383.677
L397.944 398.355
L399.618 409.068
L401.292 415.542
L402.966 419.06
L404.64 420.314
L406.314 420.675
L407.988 419.68
L409.662 418.411
L411.336 416.335
L413.01 416.623
L414.684 415.931
L416.358 415.96
L418.032 415.47
L419.706 416.321
L421.38 415.643
L423.054 416.075
L424.728 415.542
L428.076 414.994
L429.75 415.672
L431.424 415.153
L433.098 415.542
L434.772 415.628
L436.446 416.926
L439.794 418.512
L441.468 420.141
L443.142 420.704
L444.816 422.463
L446.49 423.876
L448.164 425.534
L449.838 427.452
L451.512 428.49
L453.186 430.97
L454.86 431.835
L456.534 432.844
L458.208 435.252
L459.882 439.52
L461.556 441.236
L463.23 442.115
L464.904 440.501
L466.578 432.066
L468.252 407.698
L469.926 358.545
L471.6 287.937
L473.274 210.754
L474.948 141.877
L476.622 89.2345
L478.296 56.7494
L479.97 43.3112
L481.644 39.4759
L483.318 37.0391
L484.992 37.688
L486.666 54.8029
L488.34 103.422
L491.688 254.414
L493.362 313.271
L495.036 352.778
L496.71 380.721
L498.384 401.714
L500.058 417.46
L501.732 426.284
L503.406 431.936
L505.08 433.219
L506.754 433.926
L508.428 432.282
L510.102 430.263
L511.776 427.956
L513.45 426.788
L515.124 424.755
L516.798 423.717
L518.472 422.001
L520.146 421.007
L521.82 420.257
L525.168 417.993
L526.842 417.373
L528.516 416.984
L530.19 417.013
L531.864 416.926
L533.538 416.652
L535.212 416.753
L536.886 416.998
L538.56 417.546
L540.234 417.705
L541.908 418.094
L543.582 419.175
L545.256 419.925
L546.93 421.122
L548.604 422.16
L550.278 424.698
L553.626 427.437
L555.3 428.677
L556.974 430.436
L558.648 431.518
L560.322 433.854
L561.996 437.256
L563.67 441.236
L565.344 442.144
L567.018 440.76
L568.692 436.708
L570.366 420.314
L572.04 382.091
L573.714 319.932
L577.062 167.383
L578.736 106.061
L580.41 64.8526
L582.084 42.0712
L583.758 34.141
L585.432 34.8908
L587.106 33.8959
L588.78 41.0475
L590.454 73.2298
L592.128 135.114
L593.802 212.903
L595.476 281.809
L597.15 331.006
L598.824 363.491
L600.498 386.618
L602.172 405.334
L603.846 418.7
L605.52 426.024
L607.194 429.888
L608.868 431.446
L610.542 431.128
L615.564 426.976
L617.238 425.534
L618.912 423.371
L620.586 422.03
L625.608 418.685
L627.282 419.031
L630.63 417.834
L632.304 417.82
L635.652 418.31
L637.326 418.642
L639 418.426
L640.674 419.204
L642.348 419.406
L644.022 421.093
L645.696 421.857
L647.37 422.939
L649.044 423.588
L650.718 423.833
L652.392 424.251
L654.066 435.166
L654.066 435.166" style="fill:none;stroke:#0000ff;stroke-linecap:square;"/>
   </g>
   <g id="patch_3">
    <path d="
M26.3156 467.189
L695.916 467.189" style="fill:none;stroke:#000000;stroke-linecap:square;stroke-linejoin:miter;"/>
   </g>
   <g id="patch_4">
    <path d="
M26.3156 20.7894
L695.916 20.7894" style="fill:none;stroke:#000000;stroke-linecap:square;stroke-linejoin:miter;"/>
   </g>
   <g id="patch_5">
    <path d="
M695.916 467.189
L695.916 20.7894" style="fill:none;stroke:#000000;stroke-linecap:square;stroke-linejoin:miter;"/>
   </g>
   <g id="patch_6">
    <path d="
M26.3156 467.189
L26.3156 20.7894" style="fill:none;stroke:#000000;stroke-linecap:square;stroke-linejoin:miter;"/>
   </g>
   <g id="matplotlib.axis_1">
    <g id="xtick_1">
     <g id="line2d_2">
      <defs>
       <path d="
M0 0
L0 -4" id="mc7db9fdffb" style="stroke:#000000;stroke-width:0.5;"/>
      </defs>
      <g>
       <use style="stroke:#000000;stroke-width:0.5;" x="26.315625" xlink:href="#mc7db9fdffb" y="467.189375"/>
      </g>
     </g>
     <g id="line2d_3">
      <defs>
       <path d="
M0 0
L0 4" id="m5a7d422ac3" style="stroke:#000000;stroke-width:0.5;"/>
      </defs>
      <g>
       <use style="stroke:#000000;stroke-width:0.5;" x="26.315625" xlink:href="#m5a7d422ac3" y="20.789375"/>
      </g>
     </g>
     <g id="text_1">
      <text style="font-family:Arial;font-size:10.0px;font-style:normal;text-anchor:middle;" transform="rotate(-0.000000, 26.315625, 478.347187)" x="26.315625" y="478.3471875">0</text>
     </g>
    </g>
    <g id="xtick_2">
     <g id="line2d_4">
      <g>
       <use style="stroke:#000000;stroke-width:0.5;" x="110.015625" xlink:href="#mc7db9fdffb" y="467.189375"/>
      </g>
     </g>
     <g id="line2d_5">
      <g>
       <use style="stroke:#000000;stroke-width:0.5;" x="110.015625" xlink:href="#m5a7d422ac3" y="20.789375"/>
      </g>
     </g>
     <g id="text_2">
      <text style="font-family:Arial;font-size:10.0px;font-style:normal;text-anchor:middle;" transform="rotate(-0.000000, 110.015625, 478.347187)" x="110.015625" y="478.3471875">50</text>
     </g>
    </g>
    <g id="xtick_3">
     <g id="line2d_6">
      <g>
       <use style="stroke:#000000;stroke-width:0.5;" x="193.715625" xlink:href="#mc7db9fdffb" y="467.189375"/>
      </g>
     </g>
     <g id="line2d_7">
      <g>
       <use style="stroke:#000000;stroke-width:0.5;" x="193.715625" xlink:href="#m5a7d422ac3" y="20.789375"/>
      </g>
     </g>
     <g id="text_3">
      <text style="font-family:Arial;font-size:10.0px;font-style:normal;text-anchor:middle;" transform="rotate(-0.000000, 193.715625, 478.347187)" x="193.715625" y="478.3471875">100</text>
     </g>
    </g>
    <g id="xtick_4">
     <g id="line2d_8">
      <g>
       <use style="stroke:#000000;stroke-width:0.5;" x="277.415625" xlink:href="#mc7db9fdffb" y="467.189375"/>
      </g>
     </g>
     <g id="line2d_9">
      <g>
       <use style="stroke:#000000;stroke-width:0.5;" x="277.415625" xlink:href="#m5a7d422ac3" y="20.789375"/>
      </g>
     </g>
     <g id="text_4">
      <text style="font-family:Arial;font-size:10.0px;font-style:normal;text-anchor:middle;" transform="rotate(-0.000000, 277.415625, 478.347187)" x="277.415625" y="478.3471875">150</text>
     </g>
    </g>
    <g id="xtick_5">
     <g id="line2d_10">
      <g>
       <use style="stroke:#000000;stroke-width:0.5;" x="361.115625" xlink:href="#mc7db9fdffb" y="467.189375"/>
      </g>
     </g>
     <g id="line2d_11">
      <g>
       <use style="stroke:#000000;stroke-width:0.5;" x="361.115625" xlink:href="#m5a7d422ac3" y="20.789375"/>
      </g>
     </g>
     <g id="text_5">
      <text style="font-family:Arial;font-size:10.0px;font-style:normal;text-anchor:middle;" transform="rotate(-0.000000, 361.115625, 478.347187)" x="361.115625" y="478.3471875">200</text>
     </g>
    </g>
    <g id="xtick_6">
     <g id="line2d_12">
      <g>
       <use style="stroke:#000000;stroke-width:0.5;" x="444.815625" xlink:href="#mc7db9fdffb" y="467.189375"/>
      </g>
     </g>
     <g id="line2d_13">
      <g>
       <use style="stroke:#000000;stroke-width:0.5;" x="444.815625" xlink:href="#m5a7d422ac3" y="20.789375"/>
      </g>
     </g>
     <g id="text_6">
      <text style="font-family:Arial;font-size:10.0px;font-style:normal;text-anchor:middle;" transform="rotate(-0.000000, 444.815625, 478.347187)" x="444.815625" y="478.3471875">250</text>
     </g>
    </g>
    <g id="xtick_7">
     <g id="line2d_14">
      <g>
       <use style="stroke:#000000;stroke-width:0.5;" x="528.515625" xlink:href="#mc7db9fdffb" y="467.189375"/>
      </g>
     </g>
     <g id="line2d_15">
      <g>
       <use style="stroke:#000000;stroke-width:0.5;" x="528.515625" xlink:href="#m5a7d422ac3" y="20.789375"/>
      </g>
     </g>
     <g id="text_7">
      <text style="font-family:Arial;font-size:10.0px;font-style:normal;text-anchor:middle;" transform="rotate(-0.000000, 528.515625, 478.347187)" x="528.515625" y="478.3471875">300</text>
     </g>
    </g>
    <g id="xtick_8">
     <g id="line2d_16">
      <g>
       <use style="stroke:#000000;stroke-width:0.5;" x="612.215625" xlink:href="#mc7db9fdffb" y="467.189375"/>
      </g>
     </g>
     <g id="line2d_17">
      <g>
       <use style="stroke:#000000;stroke-width:0.5;" x="612.215625" xlink:href="#m5a7d422ac3" y="20.789375"/>
      </g>
     </g>
     <g id="text_8">
      <text style="font-family:Arial;font-size:10.0px;font-style:normal;text-anchor:middle;" transform="rotate(-0.000000, 612.215625, 478.347187)" x="612.215625" y="478.3471875">350</text>
     </g>
    </g>
    <g id="xtick_9">
     <g id="line2d_18">
      <g>
       <use style="stroke:#000000;stroke-width:0.5;" x="695.915625" xlink:href="#mc7db9fdffb" y="467.189375"/>
      </g>
     </g>
     <g id="line2d_19">
      <g>
       <use style="stroke:#000000;stroke-width:0.5;" x="695.915625" xlink:href="#m5a7d422ac3" y="20.789375"/>
      </g>
     </g>
     <g id="text_9">
      <text style="font-family:Arial;font-size:10.0px;font-style:normal;text-anchor:middle;" transform="rotate(-0.000000, 695.915625, 478.347187)" x="695.915625" y="478.3471875">400</text>
     </g>
    </g>
   </g>
   <g id="matplotlib.axis_2">
    <g id="ytick_1">
     <g id="line2d_20">
      <defs>
       <path d="
M0 0
L4 0" id="md7965d1ba0" style="stroke:#000000;stroke-width:0.5;"/>
      </defs>
      <g>
       <use style="stroke:#000000;stroke-width:0.5;" x="26.315625" xlink:href="#md7965d1ba0" y="467.189375"/>
      </g>
     </g>
     <g id="line2d_21">
      <defs>
       <path d="
M0 0
L-4 0" id="md9a1c1a7cd" style="stroke:#000000;stroke-width:0.5;"/>
      </defs>
      <g>
       <use style="stroke:#000000;stroke-width:0.5;" x="695.915625" xlink:href="#md9a1c1a7cd" y="467.189375"/>
      </g>
     </g>
     <g id="text_10">
      <text style="font-family:Arial;font-size:10.0px;font-style:normal;text-anchor:end;" transform="rotate(-0.000000, 22.315625, 469.774531)" x="22.315625" y="469.77453125">40</text>
     </g>
    </g>
    <g id="ytick_2">
     <g id="line2d_22">
      <g>
       <use style="stroke:#000000;stroke-width:0.5;" x="26.315625" xlink:href="#md7965d1ba0" y="392.789375"/>
      </g>
     </g>
     <g id="line2d_23">
      <g>
       <use style="stroke:#000000;stroke-width:0.5;" x="695.915625" xlink:href="#md9a1c1a7cd" y="392.789375"/>
      </g>
     </g>
     <g id="text_11">
      <text style="font-family:Arial;font-size:10.0px;font-style:normal;text-anchor:end;" transform="rotate(-0.000000, 22.315625, 395.374531)" x="22.315625" y="395.37453125">50</text>
     </g>
    </g>
    <g id="ytick_3">
     <g id="line2d_24">
      <g>
       <use style="stroke:#000000;stroke-width:0.5;" x="26.315625" xlink:href="#md7965d1ba0" y="318.389375"/>
      </g>
     </g>
     <g id="line2d_25">
      <g>
       <use style="stroke:#000000;stroke-width:0.5;" x="695.915625" xlink:href="#md9a1c1a7cd" y="318.389375"/>
      </g>
     </g>
     <g id="text_12">
      <text style="font-family:Arial;font-size:10.0px;font-style:normal;text-anchor:end;" transform="rotate(-0.000000, 22.315625, 320.974531)" x="22.315625" y="320.97453125">60</text>
     </g>
    </g>
    <g id="ytick_4">
     <g id="line2d_26">
      <g>
       <use style="stroke:#000000;stroke-width:0.5;" x="26.315625" xlink:href="#md7965d1ba0" y="243.989375"/>
      </g>
     </g>
     <g id="line2d_27">
      <g>
       <use style="stroke:#000000;stroke-width:0.5;" x="695.915625" xlink:href="#md9a1c1a7cd" y="243.989375"/>
      </g>
     </g>
     <g id="text_13">
      <text style="font-family:Arial;font-size:10.0px;font-style:normal;text-anchor:end;" transform="rotate(-0.000000, 22.315625, 246.574531)" x="22.315625" y="246.57453125">70</text>
     </g>
    </g>
    <g id="ytick_5">
     <g id="line2d_28">
      <g>
       <use style="stroke:#000000;stroke-width:0.5;" x="26.315625" xlink:href="#md7965d1ba0" y="169.589375"/>
      </g>
     </g>
     <g id="line2d_29">
      <g>
       <use style="stroke:#000000;stroke-width:0.5;" x="695.915625" xlink:href="#md9a1c1a7cd" y="169.589375"/>
      </g>
     </g>
     <g id="text_14">
      <text style="font-family:Arial;font-size:10.0px;font-style:normal;text-anchor:end;" transform="rotate(-0.000000, 22.315625, 172.174531)" x="22.315625" y="172.17453125">80</text>
     </g>
    </g>
    <g id="ytick_6">
     <g id="line2d_30">
      <g>
       <use style="stroke:#000000;stroke-width:0.5;" x="26.315625" xlink:href="#md7965d1ba0" y="95.189375"/>
      </g>
     </g>
     <g id="line2d_31">
      <g>
       <use style="stroke:#000000;stroke-width:0.5;" x="695.915625" xlink:href="#md9a1c1a7cd" y="95.189375"/>
      </g>
     </g>
     <g id="text_15">
      <text style="font-family:Arial;font-size:10.0px;font-style:normal;text-anchor:end;" transform="rotate(-0.000000, 22.315625, 97.774531)" x="22.315625" y="97.77453125">90</text>
     </g>
    </g>
    <g id="ytick_7">
     <g id="line2d_32">
      <g>
       <use style="stroke:#000000;stroke-width:0.5;" x="26.315625" xlink:href="#md7965d1ba0" y="20.789375"/>
      </g>
     </g>
     <g id="line2d_33">
      <g>
       <use style="stroke:#000000;stroke-width:0.5;" x="695.915625" xlink:href="#md9a1c1a7cd" y="20.789375"/>
      </g>
     </g>
     <g id="text_16">
      <text style="font-family:Arial;font-size:10.0px;font-style:normal;text-anchor:end;" transform="rotate(-0.000000, 22.315625, 23.374531)" x="22.315625" y="23.37453125">100</text>
     </g>
    </g>
   </g>
   <g id="text_17">
    <text style="font-family:Arial;font-size:10.0px;font-style:normal;" transform="translate(33.011625 441.571625)"/>
    <text style="font-family:Arial;font-size:10.0px;font-style:normal;" transform="translate(33.011625 452.1485)"/>
    <text style="font-family:Arial;font-size:10.0px;font-style:normal;" transform="translate(33.011625 462.725375)">channel_detection.details.overview.horizontal</text>
   </g>
   <g id="text_18">
    <text style="font-family:Arial;font-size:12.0px;font-style:normal;text-anchor:middle;" transform="rotate(-0.000000, 361.115625, 15.789375)" x="361.115625" y="15.789375">Basic horizontal overview</text>
   </g>
  </g>
 </g>
 <defs>
  <clipPath id="p81dc7147e6">
   <rect height="446.4" width="669.6" x="26.315625" y="20.789375"/>
  </clipPath>
 </defs>
</svg>
