<?xml version="1.0" encoding="utf-8" standalone="no"?>
<!DOCTYPE svg PUBLIC "-//W3C//DTD SVG 1.1//EN"
  "http://www.w3.org/Graphics/SVG/1.1/DTD/svg11.dtd">
<!-- Created with matplotlib (http://matplotlib.org/) -->
<svg height="488pt" version="1.1" viewBox="0 0 712 488" width="712pt" xmlns="http://www.w3.org/2000/svg" xmlns:xlink="http://www.w3.org/1999/xlink">
 <defs>
  <style type="text/css">
*{stroke-linecap:butt;stroke-linejoin:round;}
  </style>
 </defs>
 <g id="figure_1">
  <g id="patch_1">
   <path d="
M0 488.836
L712.461 488.836
L712.461 0
L0 0
L0 488.836" style="fill:none;"/>
  </g>
  <g id="axes_1">
   <g id="patch_2">
    <path d="
M27.1109 467.336
L696.711 467.336
L696.711 20.9356
L27.1109 20.9356
z
" style="fill:#ffffff;"/>
   </g>
   <g id="line2d_1">
    <path clip-path="url(#p8a97c097eb)" d="
M590.217 440.911
L580.004 285.939
L570.766 233.41
L562.331 212.818
L554.572 215.132
L547.389 237.87
L540.701 276.72
L534.445 325.982
L528.568 378.883
L523.028 425.37
L517.787 438.408
L512.815 416.11
L508.085 399.129
L503.576 396.003
L499.267 406.602
L495.141 428.285
L491.184 454.057
L487.382 445.601
L483.724 419.814
L480.199 400.753
L476.797 393.729
L473.511 401.014
L470.332 422.203
L467.255 445.496
L464.272 419.462
L461.378 368.675
L458.568 315.178
L455.838 267.225
L453.182 231.131
L450.597 212.212
L448.079 214.321
L445.625 239.414
L443.231 287.266
L440.895 355.222
L438.614 428.345
L436.386 394.582
L432.077 210.973
L429.992 132.078
L427.951 72.365
L425.953 36.853
L423.994 28.5114
L422.075 47.9903
L420.192 93.5656
L418.346 161.306
L416.534 245.443
L413.009 425.31
L411.293 405.066
L409.607 332.857
L407.95 273.681
L406.321 235.713
L404.719 220.354
L403.143 226.782
L401.592 252.136
L400.065 291.859
L397.082 389.731
L395.625 429.018
L394.188 432.413
L392.773 413.151
L391.379 400.815
L390.004 401.604
L388.648 414.982
L385.992 460.82
L384.691 438.223
L383.407 413.78
L382.14 398.124
L380.889 394.942
L379.654 406.086
L378.435 430.335
L377.231 449.729
L376.041 411.609
L373.705 307.148
L372.558 261.998
L371.424 229.706
L370.304 215.139
L369.196 221.649
L368.101 250.677
L367.017 301.499
L364.887 438.451
L363.839 381.661
L361.776 203.762
L360.761 130.422
L359.757 76.7829
L358.763 47.3167
L357.779 44.435
L356.804 68.2771
L355.84 116.706
L354.885 185.522
L352.075 440.539
L351.156 396.856
L350.246 328.14
L349.344 275.024
L348.451 242.694
L347.566 231.992
L346.688 241.66
L345.819 268.543
L344.957 307.923
L343.257 398.745
L342.417 429.521
L341.585 427.369
L340.76 411.868
L339.942 403.959
L339.131 408.122
L338.327 423.46
L337.529 445.677
L336.738 455.175
L335.174 410.492
L334.402 398.511
L333.635 399.024
L332.875 413.445
L332.121 439.218
L331.372 447.022
L330.629 403.596
L329.161 303.415
L328.435 262.437
L327.714 234.846
L326.999 224.934
L326.288 235.464
L325.583 267.326
L324.883 319.317
L324.189 386.76
L323.499 440.637
L322.814 372.631
L321.458 206.941
L320.787 141.378
L320.121 95.3296
L319.459 72.5787
L318.802 74.9115
L318.149 101.97
L317.501 151.299
L316.857 218.595
L314.95 454.253
L313.699 328.463
L313.08 282.892
L312.464 256.882
L311.853 250.745
L311.245 262.883
L310.641 289.992
L308.851 407.414
L308.262 429.094
L307.676 424.354
L307.094 412.867
L306.515 408.989
L305.94 415.72
L305.368 431.718
L304.8 451.111
L304.234 448.806
L303.114 410.348
L302.558 402.213
L302.006 406.043
L301.457 422.841
L300.911 448.627
L300.368 440.777
L298.225 269.363
L297.697 246.971
L297.172 241.586
L296.649 255.383
L296.129 288.756
L295.612 340.124
L295.098 403.058
L294.587 434.837
L292.567 159.19
L292.069 120.831
L291.573 104.293
L291.08 110.803
L290.589 139.62
L290.1 188.119
L289.131 325.979
L288.65 401.988
L288.171 446.281
L287.221 333.701
L286.749 295.577
L286.28 275.372
L285.813 272.981
L285.348 286.576
L284.885 312.819
L283.51 414.522
L283.056 427.992
L282.604 422.451
L282.154 414.617
L281.707 414.045
L281.261 422.477
L280.376 451.927
L279.936 443.57
L279.063 412.045
L278.629 407.428
L278.197 413.951
L277.767 432.214
L277.339 456.936
L276.913 434.72
L275.646 310.814
L275.227 280.7
L274.811 263.56
L274.395 262.418
L273.982 278.88
L273.57 312.893
L272.752 419.442
L272.346 426.837
L270.737 180.604
L270.339 149.84
L269.943 139.074
L269.548 149.006
L269.154 178.576
L268.373 284.409
L267.597 417.652
L267.212 439.55
L266.446 343.247
L266.065 312.395
L265.685 297.486
L265.307 298.068
L264.931 312.172
L264.182 366.718
L263.44 420.18
L263.07 427.364
L262.336 417.818
L261.971 419.7
L261.607 428.668
L261.245 441.666
L260.884 448.916
L260.524 439.447
L260.166 425.386
L259.809 415.827
L259.453 414.509
L259.098 423.1
L258.393 458.69
L257.694 391.701
L256.999 321.406
L256.653 297.386
L256.309 285.508
L255.966 288.132
L255.624 306.317
L255.283 339.634
L254.605 434.902
L254.268 420.515
L253.263 248.219
L252.931 208.955
L252.6 185.578
L252.269 179.852
L251.94 192.024
L251.612 220.826
L250.959 316.563
L250.311 430.089
L249.988 436.053
L249.346 356.998
L249.027 333.028
L248.709 322.65
L248.391 325.184
L248.075 338.652
L246.82 424.279
L246.509 427.424
L246.199 423.765
L245.89 421.758
L245.581 425.015
L244.968 442.79
L244.663 445.391
L243.752 421.639
L243.451 422.963
L243.15 432.62
L242.851 448.956
L242.552 453.414
L241.072 318.423
L240.779 311.257
L240.486 316.761
L240.195 335.54
L239.614 408.38
L239.325 446.917
L239.037 415.936
L238.178 270.5
L237.894 239.629
L237.61 222.657
L237.327 220.792
L237.045 233.951
L236.763 260.783
L236.203 344.598
L235.646 437.589
L235.368 435.375
L234.816 372.729
L234.541 354.573
L234.267 347.615
L233.993 351.071
L233.721 363.066
L232.638 427.787
L232.369 428.924
L232.101 426.584
L231.833 426.176
L231.567 429.678
L231.035 442.257
L230.771 442.683
L229.982 428.408
L229.72 431.741
L229.199 455.396
L228.939 450.125
L227.908 354.526
L227.652 341.817
L227.397 338.538
L227.142 345.901
L226.888 364.139
L226.13 450.661
L224.879 274.166
L224.631 262.682
L224.383 263.591
L224.136 276.574
L223.644 332.551
L222.91 441.784
L222.667 436.554
L222.183 389.586
L221.941 376.413
L221.7 371.977
L221.46 375.498
L220.981 398.977
L220.505 425.017
L220.268 430.728
L220.031 431.018
L219.795 429.715
L219.559 429.998
L219.324 432.807
L218.856 440.716
L218.623 441.059
L218.158 436.086
L217.926 436.403
L217.695 441.113
L217.235 459.984
L217.005 448.545
L216.093 375.349
L215.866 367.369
L215.64 367.054
L215.414 375.15
L214.964 415.59
L214.74 443.212
L214.517 448.631
L213.627 327.831
L213.406 311.473
L213.186 304.33
L212.966 306.777
L212.746 318.379
L212.309 363.538
L211.656 442.485
L211.439 438.127
L211.007 406.171
L210.792 397.219
L210.578 394.581
L210.363 397.603
L209.936 414.53
L209.511 430.904
L209.299 433.69
L209.088 433.434
L208.877 432.569
L208.666 432.833
L208.247 437.324
L207.829 440.842
L207.621 441.019
L207.413 441.595
L207.206 444.101
L206.586 461.281
L205.359 393.12
L205.156 394.728
L204.954 402.534
L204.55 435.216
L204.348 454.646
L204.147 447.038
L203.348 359.253
L203.149 348.515
L202.951 344.545
L202.753 347.46
L202.555 356.791
L202.161 390.101
L201.573 441.528
L201.378 439.814
L200.794 416.106
L200.601 414.648
L200.407 416.732
L199.638 435.344
L199.447 436.212
L199.065 434.939
L198.875 434.951
L198.685 435.915
L198.117 441.679
L197.741 446.804
L197.366 456.682
L197.179 463.391
L196.992 460.866
L196.25 424.258
L196.065 419.526
L195.88 418.284
L195.696 420.972
L195.329 438.089
L194.963 459.289
L194.599 430.525
L194.055 390.715
L193.874 384.437
L193.694 382.485
L193.514 384.809
L193.155 400.233
L192.441 439.87
L192.263 440.897
L191.555 431.613
L191.379 432.504
L190.853 438.153
L190.678 438.744
L190.504 438.396
L190.156 436.89
L189.982 436.719
L189.809 437.286
L189.463 440.718
L189.119 446.865
L188.434 463.869
L188.263 460.963
L187.754 446.094
L187.415 441.92
L187.247 442.667
L187.078 445.454
L186.575 460.23
L186.407 456.566
L185.575 418.759
L185.244 414.02
L185.079 414.649
L184.75 420.726
L183.932 441.07
L183.607 443.174
L183.283 443.405
L182.96 443.357
L182.798 443.11
L182.477 441.803
L181.997 439.478
L181.837 439.428
L181.678 440.021
L181.36 443.344
L180.885 452.505
L180.413 461.026
L180.256 461.873
L180.099 461.672
L179.786 461.098
L179.63 461.494
L179.319 463.23
L179.164 463.281
L179.009 461.839
L178.546 453.087
L177.625 434.232
L177.32 430.795
L177.168 430.127
L177.017 430.229
L176.865 431.083
L176.563 434.7
L175.661 447.901
L175.511 448.362
L175.362 448.073
L175.064 445.952
L174.619 442.665
L174.471 442.339
L174.324 442.549
L174.029 444.455
L173.443 451.559
L172.714 462.454
L172.569 461.432
L171.848 449.485
L171.704 449.224
L171.274 451.252
L171.131 450.68
L170.846 445.315
L170.278 432.765
L170.137 431.601
L169.996 431.366
L169.855 431.892
L169.433 435.728
L168.873 442.654
L168.317 449.895
L168.179 449.743
L167.626 445.835
L167.489 445.908
L166.531 449.876
L165.988 455.896
L165.853 453.89
L165.179 436.44
L165.045 436.89
L164.777 443.075
L164.51 450.622
L164.377 449.992
L163.581 424.343
L163.449 424.979
L163.186 429.986
L162.792 437.061
L162.269 440.148
L161.62 451.46
L161.491 451.072
L161.233 449.227
L161.104 449.048
L160.847 450.517
L160.59 451.403
L160.207 448.996
L160.079 449.044
L159.698 451.519
L159.571 449.673
L158.814 427.411
L158.688 429.606
L158.187 451.03
L158.062 448.214
L157.441 417.575
L157.317 417.554
L157.069 424.062
L156.7 437.942
L156.577 439.707
L156.454 439.749
L156.209 438.853
L156.087 439.648
L155.842 444.639
L155.477 452.503
L155.356 452.72
L155.114 451.918
L154.993 452.298
L154.631 455.143
L154.51 454.394
L154.031 448.677
L153.911 448.691
L153.791 448.455
L153.672 446.814
L153.434 437.92
L153.078 423.273
L152.959 421.758
L152.841 422.856
L152.605 433
L152.252 450.914
L152.017 436.027
L151.666 414.646
L151.549 412.73
L151.433 413.741
L151.2 422.93
L150.852 440.52
L150.736 442.491
L150.621 442.086
L150.39 439.853
L150.275 440.153
L150.045 444.561
L149.701 452.973
L149.472 454.222
L149.358 454.644
L148.903 458.849
L148.676 454.625
L148.337 448.85
L148.112 445.804
L147.887 438.047
L147.439 420.608
L147.327 420.417
L147.215 422.869
L146.992 435.298
L146.77 450.536
L146.659 450.096
L145.996 411.583
L145.886 413.346
L145.666 423.822
L145.337 442.753
L145.228 444.862
L145.119 444.342
L144.901 441.549
L144.792 441.482
L144.574 445.003
L144.141 454.826
L143.71 460.692
L143.602 462.316
L143.495 462.121
L142.96 449.462
L142.64 438.836
L142.215 422.021
L142.109 421.082
L142.004 422.417
L141.792 432.147
L141.476 451.549
L141.371 447.934
L140.848 413.977
L140.743 413.653
L140.535 420.48
L140.016 447.061
L139.912 446.607
L139.602 443.18
L139.499 443.88
L139.191 450.72
L138.679 461.5
L138.475 465.231
L138.373 464.745
L137.966 453.145
L137.158 424.119
L137.058 424.731
L136.857 431.872
L136.457 451.614
L136.158 431.199
L135.86 418.383
L135.761 418.572
L135.563 425.111
L135.069 448.431
L134.971 448.068
L134.677 444.375
L134.579 444.636
L134.383 447.967
L133.701 464.487
L133.508 466.882
L133.314 462.089
L132.928 444.317
L132.544 428.872
L132.448 427.772
L132.352 428.263
L132.161 434.16
L131.78 453.223
L131.685 451.136
L131.211 426.596
L131.116 425.423
L131.022 425.954
L130.833 431.426
L130.363 449.671
L130.27 449.453
L129.896 445.629
L129.709 448.281
L129.06 463.737
L128.875 464.501
L128.783 464.063
L128.598 457.519
L128.048 432.684
L127.956 431.776
L127.865 432.357
L127.682 437.788
L127.318 454.957
L127.227 454.633
L126.594 434.43
L126.504 434.873
L126.324 438.412
L125.875 450.267
L125.786 450.064
L125.429 446.516
L125.34 447.159
L125.162 451.07
L124.719 462.69
L124.542 461.853
L124.366 460.129
L124.189 454.569
L123.751 437.027
L123.663 436.165
L123.576 436.733
L123.401 442.008
L123.053 459.047
L122.966 458.922
L122.446 445.662
L122.273 444.901
L122.187 444.858
L122.101 445.044
L121.929 446.291
L121.586 449.646
L121.5 449.387
L121.159 447.056
L120.988 449.245
L120.479 461.379
L120.225 457.358
L119.888 447.653
L119.636 441.21
L119.552 440.768
L119.468 441.499
L119.301 446.493
L118.967 464.118
L118.884 463.889
L118.551 454.761
L118.468 454.603
L118.22 455.579
L118.054 453.994
L117.725 449.606
L117.232 447.433
L117.15 447.378
L117.069 447.724
L116.905 449.924
L116.498 458.653
L116.417 458.377
L116.174 452.867
L115.77 444.742
L115.689 444.65
L115.528 446.683
L115.207 457.563
L114.967 462.179
L114.727 459.857
L114.647 460.035
L114.488 462.308
L114.329 465.921
L114.249 465.112
L113.538 446.269
L113.38 445.546
L113.223 446.57
L112.909 451.839
L112.596 456.096
L112.44 453.558
L112.052 444.168
L111.974 444.378
L111.819 447.752
L111.433 458.901
L111.202 455.907
L111.125 456.105
L110.971 459.299
L110.741 465.685
L110.435 457.974
L110.131 455.399
L109.675 444.193
L109.599 444.385
L109.373 448.293
L109.071 452.779
L108.996 453.093
L108.921 452.987
L108.771 450.878
L108.396 442.012
L108.321 442.503
L108.172 447.448
L107.874 463.933
L107.578 450.656
L107.503 450.463
L107.355 454.681
L107.134 463.063
L106.766 449.805
L106.619 451.917
L106.472 454.318
L106.399 453.422
L106.034 443.14
L105.961 443.473
L105.742 448.652
L105.524 452.072
L105.452 451.839
L105.307 450.065
L104.874 440.561
L104.802 440.876
L104.658 445.508
L104.37 463.171
L104.013 446.589
L103.941 447.485
L103.656 459.322
L103.585 457.011
L103.301 443.825
L103.23 443.798
L103.088 447.806
L102.876 453.098
L102.524 443.337
L102.454 443.804
L102.103 452.505
L102.033 452.241
L101.823 447.043
L101.475 438.865
L101.405 439.206
L101.266 443.387
L100.989 457.715
L100.85 452.182
L100.643 444.26
L100.574 444.642
L100.299 455.697
L100.23 454.807
L99.8871 439.526
L99.8187 440.195
L99.4772 453.233
L99.4091 451.911
L99.137 443.942
L99.0691 444.298
L98.7303 452.791
L98.6626 451.954
L98.1906 437.786
L98.1234 438.355
L97.989 442.556
L97.7209 453.776
L97.5871 449.964
L97.3867 443.588
L97.32 443.832
L97.1202 450.948
L97.0537 452.929
L96.9873 452.607
L96.5894 437.417
L96.4572 441.332
L96.1933 453.085
L96.0615 449.989
L95.8643 444.691
L95.7987 444.86
L95.602 450.552
L95.4711 453.284
L95.3404 449.202
L95.0143 436.961
L94.9492 437.535
L94.7543 445.597
L94.5597 452.13
L94.3655 445.679
L94.3655 445.679" style="fill:none;stroke:#0000ff;stroke-linecap:square;"/>
   </g>
   <g id="patch_3">
    <path d="
M27.1109 467.336
L696.711 467.336" style="fill:none;stroke:#000000;stroke-linecap:square;stroke-linejoin:miter;"/>
   </g>
   <g id="patch_4">
    <path d="
M27.1109 20.9356
L696.711 20.9356" style="fill:none;stroke:#000000;stroke-linecap:square;stroke-linejoin:miter;"/>
   </g>
   <g id="patch_5">
    <path d="
M696.711 467.336
L696.711 20.9356" style="fill:none;stroke:#000000;stroke-linecap:square;stroke-linejoin:miter;"/>
   </g>
   <g id="patch_6">
    <path d="
M27.1109 467.336
L27.1109 20.9356" style="fill:none;stroke:#000000;stroke-linecap:square;stroke-linejoin:miter;"/>
   </g>
   <g id="matplotlib.axis_1">
    <g id="xtick_1">
     <g id="line2d_2">
      <defs>
       <path d="
M0 0
L0 -4" id="mc7db9fdffb" style="stroke:#000000;stroke-width:0.5;"/>
      </defs>
      <g>
       <use style="stroke:#000000;stroke-width:0.5;" x="27.1109375" xlink:href="#mc7db9fdffb" y="467.335625"/>
      </g>
     </g>
     <g id="line2d_3">
      <defs>
       <path d="
M0 0
L0 4" id="m5a7d422ac3" style="stroke:#000000;stroke-width:0.5;"/>
      </defs>
      <g>
       <use style="stroke:#000000;stroke-width:0.5;" x="27.1109375" xlink:href="#m5a7d422ac3" y="20.935625"/>
      </g>
     </g>
     <g id="text_1">
      <!-- $\mathdefault{10^{0}}$ -->
      <g transform="translate(18.5609375 479.648125)">
       <text>
        <tspan style="font-family:Arial;font-size:7.0px;font-style:regular;" x="11.123046875" y="-5.968750000000001">0</tspan>
        <tspan style="font-family:Arial;font-size:10.0px;font-style:regular;" x="0.0 5.5615234375" y="-0.9906250000000014">10</tspan>
       </text>
      </g>
     </g>
    </g>
    <g id="xtick_2">
     <g id="line2d_4">
      <g>
       <use style="stroke:#000000;stroke-width:0.5;" x="250.3109375" xlink:href="#mc7db9fdffb" y="467.335625"/>
      </g>
     </g>
     <g id="line2d_5">
      <g>
       <use style="stroke:#000000;stroke-width:0.5;" x="250.3109375" xlink:href="#m5a7d422ac3" y="20.935625"/>
      </g>
     </g>
     <g id="text_2">
      <!-- $\mathdefault{10^{1}}$ -->
      <g transform="translate(241.7609375 479.648125)">
       <text>
        <tspan style="font-family:Arial;font-size:7.0px;font-style:regular;" x="11.123046875" y="-5.968750000000001">1</tspan>
        <tspan style="font-family:Arial;font-size:10.0px;font-style:regular;" x="0.0 5.5615234375" y="-0.9906250000000014">10</tspan>
       </text>
      </g>
     </g>
    </g>
    <g id="xtick_3">
     <g id="line2d_6">
      <g>
       <use style="stroke:#000000;stroke-width:0.5;" x="473.5109375" xlink:href="#mc7db9fdffb" y="467.335625"/>
      </g>
     </g>
     <g id="line2d_7">
      <g>
       <use style="stroke:#000000;stroke-width:0.5;" x="473.5109375" xlink:href="#m5a7d422ac3" y="20.935625"/>
      </g>
     </g>
     <g id="text_3">
      <!-- $\mathdefault{10^{2}}$ -->
      <g transform="translate(464.9609375 479.648125)">
       <text>
        <tspan style="font-family:Arial;font-size:7.0px;font-style:regular;" x="11.123046875" y="-5.968750000000001">2</tspan>
        <tspan style="font-family:Arial;font-size:10.0px;font-style:regular;" x="0.0 5.5615234375" y="-0.9906250000000014">10</tspan>
       </text>
      </g>
     </g>
    </g>
    <g id="xtick_4">
     <g id="line2d_8">
      <g>
       <use style="stroke:#000000;stroke-width:0.5;" x="696.7109375" xlink:href="#mc7db9fdffb" y="467.335625"/>
      </g>
     </g>
     <g id="line2d_9">
      <g>
       <use style="stroke:#000000;stroke-width:0.5;" x="696.7109375" xlink:href="#m5a7d422ac3" y="20.935625"/>
      </g>
     </g>
     <g id="text_4">
      <!-- $\mathdefault{10^{3}}$ -->
      <g transform="translate(688.1609375 479.648125)">
       <text>
        <tspan style="font-family:Arial;font-size:7.0px;font-style:regular;" x="11.123046875" y="-5.968750000000001">3</tspan>
        <tspan style="font-family:Arial;font-size:10.0px;font-style:regular;" x="0.0 5.5615234375" y="-0.9906250000000014">10</tspan>
       </text>
      </g>
     </g>
    </g>
    <g id="xtick_5">
     <g id="line2d_10">
      <defs>
       <path d="
M0 0
L0 -2" id="mc21db286a6" style="stroke:#000000;stroke-width:0.5;"/>
      </defs>
      <g>
       <use style="stroke:#000000;stroke-width:0.5;" x="94.3008325322" xlink:href="#mc21db286a6" y="467.335625"/>
      </g>
     </g>
     <g id="line2d_11">
      <defs>
       <path d="
M0 0
L0 2" id="ma9c915e141" style="stroke:#000000;stroke-width:0.5;"/>
      </defs>
      <g>
       <use style="stroke:#000000;stroke-width:0.5;" x="94.3008325322" xlink:href="#ma9c915e141" y="20.935625"/>
      </g>
     </g>
    </g>
    <g id="xtick_6">
     <g id="line2d_12">
      <g>
       <use style="stroke:#000000;stroke-width:0.5;" x="133.604401553" xlink:href="#mc21db286a6" y="467.335625"/>
      </g>
     </g>
     <g id="line2d_13">
      <g>
       <use style="stroke:#000000;stroke-width:0.5;" x="133.604401553" xlink:href="#ma9c915e141" y="20.935625"/>
      </g>
     </g>
    </g>
    <g id="xtick_7">
     <g id="line2d_14">
      <g>
       <use style="stroke:#000000;stroke-width:0.5;" x="161.490727564" xlink:href="#mc21db286a6" y="467.335625"/>
      </g>
     </g>
     <g id="line2d_15">
      <g>
       <use style="stroke:#000000;stroke-width:0.5;" x="161.490727564" xlink:href="#ma9c915e141" y="20.935625"/>
      </g>
     </g>
    </g>
    <g id="xtick_8">
     <g id="line2d_16">
      <g>
       <use style="stroke:#000000;stroke-width:0.5;" x="183.121042468" xlink:href="#mc21db286a6" y="467.335625"/>
      </g>
     </g>
     <g id="line2d_17">
      <g>
       <use style="stroke:#000000;stroke-width:0.5;" x="183.121042468" xlink:href="#ma9c915e141" y="20.935625"/>
      </g>
     </g>
    </g>
    <g id="xtick_9">
     <g id="line2d_18">
      <g>
       <use style="stroke:#000000;stroke-width:0.5;" x="200.794296586" xlink:href="#mc21db286a6" y="467.335625"/>
      </g>
     </g>
     <g id="line2d_19">
      <g>
       <use style="stroke:#000000;stroke-width:0.5;" x="200.794296586" xlink:href="#ma9c915e141" y="20.935625"/>
      </g>
     </g>
    </g>
    <g id="xtick_10">
     <g id="line2d_20">
      <g>
       <use style="stroke:#000000;stroke-width:0.5;" x="215.736820031" xlink:href="#mc21db286a6" y="467.335625"/>
      </g>
     </g>
     <g id="line2d_21">
      <g>
       <use style="stroke:#000000;stroke-width:0.5;" x="215.736820031" xlink:href="#ma9c915e141" y="20.935625"/>
      </g>
     </g>
    </g>
    <g id="xtick_11">
     <g id="line2d_22">
      <g>
       <use style="stroke:#000000;stroke-width:0.5;" x="228.680622597" xlink:href="#mc21db286a6" y="467.335625"/>
      </g>
     </g>
     <g id="line2d_23">
      <g>
       <use style="stroke:#000000;stroke-width:0.5;" x="228.680622597" xlink:href="#ma9c915e141" y="20.935625"/>
      </g>
     </g>
    </g>
    <g id="xtick_12">
     <g id="line2d_24">
      <g>
       <use style="stroke:#000000;stroke-width:0.5;" x="240.097865607" xlink:href="#mc21db286a6" y="467.335625"/>
      </g>
     </g>
     <g id="line2d_25">
      <g>
       <use style="stroke:#000000;stroke-width:0.5;" x="240.097865607" xlink:href="#ma9c915e141" y="20.935625"/>
      </g>
     </g>
    </g>
    <g id="xtick_13">
     <g id="line2d_26">
      <g>
       <use style="stroke:#000000;stroke-width:0.5;" x="317.500832532" xlink:href="#mc21db286a6" y="467.335625"/>
      </g>
     </g>
     <g id="line2d_27">
      <g>
       <use style="stroke:#000000;stroke-width:0.5;" x="317.500832532" xlink:href="#ma9c915e141" y="20.935625"/>
      </g>
     </g>
    </g>
    <g id="xtick_14">
     <g id="line2d_28">
      <g>
       <use style="stroke:#000000;stroke-width:0.5;" x="356.804401553" xlink:href="#mc21db286a6" y="467.335625"/>
      </g>
     </g>
     <g id="line2d_29">
      <g>
       <use style="stroke:#000000;stroke-width:0.5;" x="356.804401553" xlink:href="#ma9c915e141" y="20.935625"/>
      </g>
     </g>
    </g>
    <g id="xtick_15">
     <g id="line2d_30">
      <g>
       <use style="stroke:#000000;stroke-width:0.5;" x="384.690727564" xlink:href="#mc21db286a6" y="467.335625"/>
      </g>
     </g>
     <g id="line2d_31">
      <g>
       <use style="stroke:#000000;stroke-width:0.5;" x="384.690727564" xlink:href="#ma9c915e141" y="20.935625"/>
      </g>
     </g>
    </g>
    <g id="xtick_16">
     <g id="line2d_32">
      <g>
       <use style="stroke:#000000;stroke-width:0.5;" x="406.321042468" xlink:href="#mc21db286a6" y="467.335625"/>
      </g>
     </g>
     <g id="line2d_33">
      <g>
       <use style="stroke:#000000;stroke-width:0.5;" x="406.321042468" xlink:href="#ma9c915e141" y="20.935625"/>
      </g>
     </g>
    </g>
    <g id="xtick_17">
     <g id="line2d_34">
      <g>
       <use style="stroke:#000000;stroke-width:0.5;" x="423.994296586" xlink:href="#mc21db286a6" y="467.335625"/>
      </g>
     </g>
     <g id="line2d_35">
      <g>
       <use style="stroke:#000000;stroke-width:0.5;" x="423.994296586" xlink:href="#ma9c915e141" y="20.935625"/>
      </g>
     </g>
    </g>
    <g id="xtick_18">
     <g id="line2d_36">
      <g>
       <use style="stroke:#000000;stroke-width:0.5;" x="438.936820031" xlink:href="#mc21db286a6" y="467.335625"/>
      </g>
     </g>
     <g id="line2d_37">
      <g>
       <use style="stroke:#000000;stroke-width:0.5;" x="438.936820031" xlink:href="#ma9c915e141" y="20.935625"/>
      </g>
     </g>
    </g>
    <g id="xtick_19">
     <g id="line2d_38">
      <g>
       <use style="stroke:#000000;stroke-width:0.5;" x="451.880622597" xlink:href="#mc21db286a6" y="467.335625"/>
      </g>
     </g>
     <g id="line2d_39">
      <g>
       <use style="stroke:#000000;stroke-width:0.5;" x="451.880622597" xlink:href="#ma9c915e141" y="20.935625"/>
      </g>
     </g>
    </g>
    <g id="xtick_20">
     <g id="line2d_40">
      <g>
       <use style="stroke:#000000;stroke-width:0.5;" x="463.297865607" xlink:href="#mc21db286a6" y="467.335625"/>
      </g>
     </g>
     <g id="line2d_41">
      <g>
       <use style="stroke:#000000;stroke-width:0.5;" x="463.297865607" xlink:href="#ma9c915e141" y="20.935625"/>
      </g>
     </g>
    </g>
    <g id="xtick_21">
     <g id="line2d_42">
      <g>
       <use style="stroke:#000000;stroke-width:0.5;" x="540.700832532" xlink:href="#mc21db286a6" y="467.335625"/>
      </g>
     </g>
     <g id="line2d_43">
      <g>
       <use style="stroke:#000000;stroke-width:0.5;" x="540.700832532" xlink:href="#ma9c915e141" y="20.935625"/>
      </g>
     </g>
    </g>
    <g id="xtick_22">
     <g id="line2d_44">
      <g>
       <use style="stroke:#000000;stroke-width:0.5;" x="580.004401553" xlink:href="#mc21db286a6" y="467.335625"/>
      </g>
     </g>
     <g id="line2d_45">
      <g>
       <use style="stroke:#000000;stroke-width:0.5;" x="580.004401553" xlink:href="#ma9c915e141" y="20.935625"/>
      </g>
     </g>
    </g>
    <g id="xtick_23">
     <g id="line2d_46">
      <g>
       <use style="stroke:#000000;stroke-width:0.5;" x="607.890727564" xlink:href="#mc21db286a6" y="467.335625"/>
      </g>
     </g>
     <g id="line2d_47">
      <g>
       <use style="stroke:#000000;stroke-width:0.5;" x="607.890727564" xlink:href="#ma9c915e141" y="20.935625"/>
      </g>
     </g>
    </g>
    <g id="xtick_24">
     <g id="line2d_48">
      <g>
       <use style="stroke:#000000;stroke-width:0.5;" x="629.521042468" xlink:href="#mc21db286a6" y="467.335625"/>
      </g>
     </g>
     <g id="line2d_49">
      <g>
       <use style="stroke:#000000;stroke-width:0.5;" x="629.521042468" xlink:href="#ma9c915e141" y="20.935625"/>
      </g>
     </g>
    </g>
    <g id="xtick_25">
     <g id="line2d_50">
      <g>
       <use style="stroke:#000000;stroke-width:0.5;" x="647.194296586" xlink:href="#mc21db286a6" y="467.335625"/>
      </g>
     </g>
     <g id="line2d_51">
      <g>
       <use style="stroke:#000000;stroke-width:0.5;" x="647.194296586" xlink:href="#ma9c915e141" y="20.935625"/>
      </g>
     </g>
    </g>
    <g id="xtick_26">
     <g id="line2d_52">
      <g>
       <use style="stroke:#000000;stroke-width:0.5;" x="662.136820031" xlink:href="#mc21db286a6" y="467.335625"/>
      </g>
     </g>
     <g id="line2d_53">
      <g>
       <use style="stroke:#000000;stroke-width:0.5;" x="662.136820031" xlink:href="#ma9c915e141" y="20.935625"/>
      </g>
     </g>
    </g>
    <g id="xtick_27">
     <g id="line2d_54">
      <g>
       <use style="stroke:#000000;stroke-width:0.5;" x="675.080622597" xlink:href="#mc21db286a6" y="467.335625"/>
      </g>
     </g>
     <g id="line2d_55">
      <g>
       <use style="stroke:#000000;stroke-width:0.5;" x="675.080622597" xlink:href="#ma9c915e141" y="20.935625"/>
      </g>
     </g>
    </g>
    <g id="xtick_28">
     <g id="line2d_56">
      <g>
       <use style="stroke:#000000;stroke-width:0.5;" x="686.497865607" xlink:href="#mc21db286a6" y="467.335625"/>
      </g>
     </g>
     <g id="line2d_57">
      <g>
       <use style="stroke:#000000;stroke-width:0.5;" x="686.497865607" xlink:href="#ma9c915e141" y="20.935625"/>
      </g>
     </g>
    </g>
   </g>
   <g id="matplotlib.axis_2">
    <g id="ytick_1">
     <g id="line2d_58">
      <defs>
       <path d="
M0 0
L4 0" id="md7965d1ba0" style="stroke:#000000;stroke-width:0.5;"/>
      </defs>
      <g>
       <use style="stroke:#000000;stroke-width:0.5;" x="27.1109375" xlink:href="#md7965d1ba0" y="467.335625"/>
      </g>
     </g>
     <g id="line2d_59">
      <defs>
       <path d="
M0 0
L-4 0" id="md9a1c1a7cd" style="stroke:#000000;stroke-width:0.5;"/>
      </defs>
      <g>
       <use style="stroke:#000000;stroke-width:0.5;" x="696.7109375" xlink:href="#md9a1c1a7cd" y="467.335625"/>
      </g>
     </g>
     <g id="text_5">
      <text style="font-family:Arial;font-size:10.0px;font-style:normal;text-anchor:end;" transform="rotate(-0.000000, 23.110938, 469.920781)" x="23.1109375" y="469.92078125">0</text>
     </g>
    </g>
    <g id="ytick_2">
     <g id="line2d_60">
      <g>
       <use style="stroke:#000000;stroke-width:0.5;" x="27.1109375" xlink:href="#md7965d1ba0" y="403.564196429"/>
      </g>
     </g>
     <g id="line2d_61">
      <g>
       <use style="stroke:#000000;stroke-width:0.5;" x="696.7109375" xlink:href="#md9a1c1a7cd" y="403.564196429"/>
      </g>
     </g>
     <g id="text_6">
      <text style="font-family:Arial;font-size:10.0px;font-style:normal;text-anchor:end;" transform="rotate(-0.000000, 23.110938, 406.149353)" x="23.1109375" y="406.149352679">50</text>
     </g>
    </g>
    <g id="ytick_3">
     <g id="line2d_62">
      <g>
       <use style="stroke:#000000;stroke-width:0.5;" x="27.1109375" xlink:href="#md7965d1ba0" y="339.792767857"/>
      </g>
     </g>
     <g id="line2d_63">
      <g>
       <use style="stroke:#000000;stroke-width:0.5;" x="696.7109375" xlink:href="#md9a1c1a7cd" y="339.792767857"/>
      </g>
     </g>
     <g id="text_7">
      <text style="font-family:Arial;font-size:10.0px;font-style:normal;text-anchor:end;" transform="rotate(-0.000000, 23.110938, 342.377924)" x="23.1109375" y="342.377924107">100</text>
     </g>
    </g>
    <g id="ytick_4">
     <g id="line2d_64">
      <g>
       <use style="stroke:#000000;stroke-width:0.5;" x="27.1109375" xlink:href="#md7965d1ba0" y="276.021339286"/>
      </g>
     </g>
     <g id="line2d_65">
      <g>
       <use style="stroke:#000000;stroke-width:0.5;" x="696.7109375" xlink:href="#md9a1c1a7cd" y="276.021339286"/>
      </g>
     </g>
     <g id="text_8">
      <text style="font-family:Arial;font-size:10.0px;font-style:normal;text-anchor:end;" transform="rotate(-0.000000, 23.110938, 278.606496)" x="23.1109375" y="278.606495536">150</text>
     </g>
    </g>
    <g id="ytick_5">
     <g id="line2d_66">
      <g>
       <use style="stroke:#000000;stroke-width:0.5;" x="27.1109375" xlink:href="#md7965d1ba0" y="212.249910714"/>
      </g>
     </g>
     <g id="line2d_67">
      <g>
       <use style="stroke:#000000;stroke-width:0.5;" x="696.7109375" xlink:href="#md9a1c1a7cd" y="212.249910714"/>
      </g>
     </g>
     <g id="text_9">
      <text style="font-family:Arial;font-size:10.0px;font-style:normal;text-anchor:end;" transform="rotate(-0.000000, 23.110938, 214.835067)" x="23.1109375" y="214.835066964">200</text>
     </g>
    </g>
    <g id="ytick_6">
     <g id="line2d_68">
      <g>
       <use style="stroke:#000000;stroke-width:0.5;" x="27.1109375" xlink:href="#md7965d1ba0" y="148.478482143"/>
      </g>
     </g>
     <g id="line2d_69">
      <g>
       <use style="stroke:#000000;stroke-width:0.5;" x="696.7109375" xlink:href="#md9a1c1a7cd" y="148.478482143"/>
      </g>
     </g>
     <g id="text_10">
      <text style="font-family:Arial;font-size:10.0px;font-style:normal;text-anchor:end;" transform="rotate(-0.000000, 23.110938, 151.063638)" x="23.1109375" y="151.063638393">250</text>
     </g>
    </g>
    <g id="ytick_7">
     <g id="line2d_70">
      <g>
       <use style="stroke:#000000;stroke-width:0.5;" x="27.1109375" xlink:href="#md7965d1ba0" y="84.7070535714"/>
      </g>
     </g>
     <g id="line2d_71">
      <g>
       <use style="stroke:#000000;stroke-width:0.5;" x="696.7109375" xlink:href="#md9a1c1a7cd" y="84.7070535714"/>
      </g>
     </g>
     <g id="text_11">
      <text style="font-family:Arial;font-size:10.0px;font-style:normal;text-anchor:end;" transform="rotate(-0.000000, 23.110938, 87.292210)" x="23.1109375" y="87.2922098214">300</text>
     </g>
    </g>
    <g id="ytick_8">
     <g id="line2d_72">
      <g>
       <use style="stroke:#000000;stroke-width:0.5;" x="27.1109375" xlink:href="#md7965d1ba0" y="20.935625"/>
      </g>
     </g>
     <g id="line2d_73">
      <g>
       <use style="stroke:#000000;stroke-width:0.5;" x="696.7109375" xlink:href="#md9a1c1a7cd" y="20.935625"/>
      </g>
     </g>
     <g id="text_12">
      <text style="font-family:Arial;font-size:10.0px;font-style:normal;text-anchor:end;" transform="rotate(-0.000000, 23.110938, 23.520781)" x="23.1109375" y="23.52078125">350</text>
     </g>
    </g>
   </g>
   <g id="text_13">
    <text style="font-family:Arial;font-size:10.0px;font-style:normal;" transform="translate(33.8069375 441.717875)"/>
    <text style="font-family:Arial;font-size:10.0px;font-style:normal;" transform="translate(33.8069375 452.29475)"/>
    <text style="font-family:Arial;font-size:10.0px;font-style:normal;" transform="translate(33.8069375 462.871625)">channel_detection.details.powerspectra.upper</text>
   </g>
   <g id="text_14">
    <text style="font-family:Arial;font-size:12.0px;font-style:normal;text-anchor:middle;" transform="rotate(-0.000000, 361.910938, 15.935625)" x="361.9109375" y="15.935625">main_frequency=60.000000</text>
   </g>
  </g>
 </g>
 <defs>
  <clipPath id="p8a97c097eb">
   <rect height="446.4" width="669.6" x="27.1109375" y="20.935625"/>
  </clipPath>
 </defs>
</svg>
