<?xml version="1.0" encoding="utf-8" standalone="no"?>
<!DOCTYPE svg PUBLIC "-//W3C//DTD SVG 1.1//EN"
  "http://www.w3.org/Graphics/SVG/1.1/DTD/svg11.dtd">
<!-- Created with matplotlib (http://matplotlib.org/) -->
<svg height="488pt" version="1.1" viewBox="0 0 712 488" width="712pt" xmlns="http://www.w3.org/2000/svg" xmlns:xlink="http://www.w3.org/1999/xlink">
 <defs>
  <style type="text/css">
*{stroke-linecap:butt;stroke-linejoin:round;}
  </style>
 </defs>
 <g id="figure_1">
  <g id="patch_1">
   <path d="
M0 488.836
L712.461 488.836
L712.461 0
L0 0
L0 488.836" style="fill:none;"/>
  </g>
  <g id="axes_1">
   <g id="patch_2">
    <path d="
M27.1109 467.336
L696.711 467.336
L696.711 20.9356
L27.1109 20.9356
z
" style="fill:#ffffff;"/>
   </g>
   <g id="line2d_1">
    <path clip-path="url(#p8a97c097eb)" d="
M590.217 436.14
L580.004 253.474
L570.766 195.171
L562.331 171.877
L554.572 172.596
L547.389 194.914
L540.701 234.559
L534.445 285.918
L528.568 342.663
L523.028 398.445
L517.787 444.914
L512.815 446.504
L508.085 425.098
L503.576 415.911
L499.267 420.485
L495.141 435.752
L491.184 453.988
L487.382 447.28
L483.724 428.065
L480.199 415.186
L476.797 414.074
L473.511 427.185
L470.332 451.133
L467.255 436.44
L464.272 386.895
L458.568 274.092
L455.838 224.876
L453.182 188.695
L450.597 170.803
L448.079 174.986
L445.625 203.097
L443.231 254.793
L440.895 327.459
L438.614 409.727
L436.386 411.866
L429.992 139.809
L427.951 77.602
L425.953 40.656
L423.994 32.0218
L422.075 52.3693
L420.192 99.9284
L418.346 170.66
L416.534 258.638
L414.755 356.583
L413.009 444.699
L411.293 382.06
L409.607 301.843
L407.95 238.501
L406.321 197.184
L404.719 179.44
L403.143 184.589
L401.592 209.884
L400.065 250.876
L398.562 301.934
L395.625 409.596
L394.188 451.474
L392.773 443.958
L391.379 425.691
L390.004 420.026
L388.648 427.147
L387.311 443.264
L385.992 456.449
L384.691 440.929
L383.407 422.639
L382.14 412.486
L380.889 414.558
L379.654 430.789
L378.435 455.801
L377.231 428.561
L376.041 377.239
L373.705 266.229
L372.558 219.68
L371.424 187.078
L370.304 173.33
L369.196 181.793
L368.101 213.857
L367.017 268.714
L364.887 423.561
L363.839 398.395
L361.776 213.485
L360.761 136.574
L359.757 80.5144
L358.763 49.9352
L357.779 47.3247
L356.804 72.8019
L355.84 124.112
L354.885 196.843
L353.003 379.116
L352.075 442.945
L350.246 292.476
L349.344 235.916
L348.451 201.218
L347.566 189.356
L346.688 199.143
L345.819 227.455
L344.957 269.63
L342.417 421.241
L341.585 455.945
L339.942 427.233
L339.131 425.517
L338.327 435.312
L337.529 451.367
L336.738 452.826
L335.174 417.771
L334.402 410.939
L333.635 416.58
L332.121 457.074
L331.372 419.809
L328.435 219.351
L327.714 191.52
L326.999 182.601
L326.288 195.347
L325.583 230.571
L324.883 286.984
L323.499 436.954
L322.814 389.509
L321.458 215.858
L320.787 146.87
L320.121 98.6328
L319.459 75.0669
L318.802 78.0119
L318.149 107.065
L317.501 159.627
L316.857 231.146
L315.581 401.405
L314.95 428.533
L313.699 290.21
L313.08 241.455
L312.464 213.454
L311.853 206.692
L311.245 219.658
L310.641 249.094
L309.444 338.151
L308.262 429.694
L307.676 454.136
L307.094 440.424
L306.515 430.062
L305.94 431.227
L305.368 442.387
L304.8 456.869
L304.234 448.668
L303.673 430.199
L303.114 416.496
L302.558 412.392
L302.006 420.431
L301.457 440.251
L300.911 452.898
L300.368 413.98
L298.756 264.583
L298.225 226.559
L297.697 203.104
L297.172 198.041
L296.649 213.625
L296.129 250.241
L295.612 306.294
L294.587 447.64
L294.078 384.274
L293.068 223.802
L292.567 162.813
L292.069 122.066
L291.573 104.842
L291.08 112.422
L290.589 143.974
L290.1 196.642
L289.131 345.393
L288.65 421.746
L288.171 415.806
L287.221 291.377
L286.749 250.722
L286.28 229.566
L285.813 227.906
L285.348 243.91
L284.885 274.189
L283.056 438.506
L282.604 450.593
L282.154 438.802
L281.707 432.788
L281.261 437.087
L280.817 449.282
L280.376 458.203
L279.063 414.863
L278.629 413.596
L278.197 423.971
L277.767 444.19
L277.339 447.856
L276.489 361.672
L275.646 270.878
L275.227 237.947
L274.811 219.383
L274.395 218.401
L273.982 236.688
L273.57 274.175
L272.346 448.944
L270.737 183.011
L270.339 150.086
L269.943 139.007
L269.548 150.498
L269.154 183.362
L268.373 299.642
L267.597 436.296
L267.212 407.076
L266.446 298.582
L266.065 265.753
L265.685 250.681
L265.307 252.982
L264.931 270.644
L264.182 337.667
L263.44 415.684
L263.07 443.7
L262.702 447.345
L262.336 438.64
L261.971 436.374
L261.607 443.066
L261.245 455.558
L260.884 456.34
L260.166 424.124
L259.809 415.533
L259.453 416.419
L259.098 428.186
L258.745 447.992
L258.393 445.027
L257.694 363.562
L256.999 282.063
L256.653 254.012
L256.309 239.748
L255.966 241.947
L255.624 261.837
L255.283 299.024
L254.268 440.636
L253.263 248.057
L252.931 203.943
L252.6 177.901
L252.269 171.932
L251.94 186.315
L251.612 219.593
L250.959 329.155
L250.311 441.595
L249.027 282.411
L248.709 272.693
L248.391 278.334
L248.075 297.187
L247.446 360.518
L246.82 428.044
L246.509 446.96
L246.199 444.345
L245.89 438.173
L245.581 439.028
L245.274 447.693
L244.968 460.076
L244.663 453.016
L244.055 423.112
L243.752 416.59
L243.451 419.169
L243.15 431.802
L242.851 450.934
L242.552 443.905
L241.072 273.568
L240.779 263.358
L240.486 268.267
L240.195 289.077
L239.614 374.151
L239.325 428.679
L239.037 432.688
L238.178 264.62
L237.894 228.729
L237.61 209.365
L237.327 207.947
L237.045 224.343
L236.763 256.888
L236.203 356.902
L235.924 412.373
L235.646 438.317
L234.816 322.75
L234.541 303.707
L234.267 298.674
L233.993 306.7
L233.721 325.601
L232.369 447.359
L231.833 439.888
L231.567 443.355
L231.035 464.472
L230.244 423.623
L229.982 419.215
L229.72 423.244
L229.199 454.522
L228.939 444.198
L227.652 296.756
L227.397 290.158
L227.142 297.007
L226.888 317.699
L226.382 395.637
L226.13 441.816
L225.878 427.039
L225.128 284.732
L224.879 256.575
L224.631 243.092
L224.383 245.211
L224.136 262.504
L223.644 334.4
L223.154 426.719
L222.91 434.128
L222.183 338.838
L221.941 325.623
L221.7 324.359
L221.46 333.946
L220.981 376.36
L220.268 444.539
L220.031 447.112
L219.795 442.753
L219.559 441.887
L219.324 447.059
L219.09 456.926
L218.856 461.099
L218.158 425.483
L217.926 422.815
L217.695 427.793
L217.235 458.083
L217.005 445.559
L216.093 335.034
L215.866 320.982
L215.64 317.469
L215.414 325.642
L215.189 345.562
L214.517 449.692
L214.294 422.914
L213.627 306.337
L213.406 285.372
L213.186 277.1
L212.966 282.01
L212.746 299.425
L212.309 363.535
L211.873 435.732
L211.656 430.28
L211.007 356.482
L210.792 348.385
L210.578 350.086
L210.363 360.409
L209.936 398.225
L209.511 438.399
L209.299 447.904
L209.088 446.598
L208.877 443.644
L208.666 444.736
L208.247 459.059
L208.038 457.702
L207.413 429.086
L207.206 428.057
L206.999 433.626
L206.586 461.516
L206.381 446.954
L205.563 356.47
L205.359 346.473
L205.156 345.443
L204.954 354.097
L204.55 398.522
L204.147 447.881
L203.149 316.899
L202.951 312.886
L202.753 319.504
L202.358 360.449
L201.769 441.146
L201.573 429.516
L201.183 387.45
L200.988 375.41
L200.794 371.388
L200.601 375.053
L200.214 400.116
L199.638 446.401
L199.447 449.78
L199.065 445.557
L198.875 447.668
L198.495 458.534
L198.306 455.293
L197.741 434.139
L197.553 434.343
L197.366 439.858
L196.992 460.467
L196.62 428.347
L196.065 379.032
L195.88 372.67
L195.696 373.498
L195.513 381.848
L195.146 418.193
L194.963 439.977
L194.781 444.521
L193.874 350.838
L193.694 350.27
L193.514 357.667
L193.155 392.073
L192.797 435.746
L192.619 442.498
L191.909 394.877
L191.732 394.1
L191.555 398.88
L191.204 420.335
L190.853 444.988
L190.678 451.356
L190.504 451.08
L190.33 448.752
L190.156 448.232
L189.982 450.402
L189.636 456.394
L189.463 453.428
L189.119 442.644
L188.947 440.196
L188.776 441.269
L188.263 456.952
L187.923 434.197
L187.415 400.78
L187.247 397.578
L187.078 399.724
L186.742 419.369
L186.407 445.739
L186.24 441.711
L185.575 385.253
L185.41 381.308
L185.244 383.221
L184.915 402.755
L184.422 444.448
L184.259 442.743
L183.769 415.671
L183.607 412.916
L183.445 414.391
L183.121 427.51
L182.638 452.411
L182.477 453.913
L182.157 450.277
L181.997 450.113
L181.519 453.763
L181.201 449.451
L181.043 447.31
L180.885 446.817
L180.727 448.386
L180.413 454.346
L180.256 452.834
L179.475 420.372
L179.319 420.266
L179.164 423.61
L178.546 446.581
L178.238 429.584
L177.931 413.266
L177.778 409.71
L177.625 409.902
L177.473 413.762
L177.017 439.932
L176.865 447.591
L176.714 448.849
L176.111 430.081
L175.961 430.306
L175.661 437.814
L175.213 454.968
L175.064 457.03
L174.916 456.037
L174.619 452.513
L174.471 451.792
L174.324 451.678
L174.029 451.83
L173.882 451.838
L173.735 452.075
L173.443 454.083
L173.296 455.275
L173.151 455.157
L172.86 448.603
L172.425 436.594
L172.28 435.406
L172.136 436.318
L171.848 444.018
L171.56 452.947
L171.417 451.734
L170.846 430.939
L170.704 429.671
L170.562 430.905
L170.278 439.988
L169.855 456.367
L169.714 454.432
L169.293 443.034
L169.153 442.192
L169.013 443.182
L168.734 449.411
L168.317 460.168
L168.179 460.43
L167.214 450.554
L167.077 450.663
L166.94 451.823
L166.531 460.446
L166.395 460.141
L165.717 438.454
L165.583 438.08
L165.448 439.906
L165.179 449.739
L164.911 464.309
L164.777 460.779
L164.377 441.547
L164.111 438.017
L163.978 439.655
L163.713 448.631
L163.317 463.536
L162.923 451.172
L162.792 449.668
L162.661 449.875
L162.4 454.54
L162.009 465.479
L161.879 464.83
L161.491 459.251
L161.104 453.977
L160.718 449.203
L160.59 449.635
L160.334 455.093
L160.079 465.306
L159.825 454.658
L159.445 438.288
L159.318 435.976
L159.192 435.712
L159.066 437.503
L158.688 451.473
L158.563 455.334
L158.437 455.096
L157.813 438.739
L157.689 439.271
L157.441 443.872
L157.069 451.768
L156.823 453.272
L156.577 454.284
L155.964 459.387
L155.599 458.411
L155.477 458.386
L155.356 458.218
L155.235 457.46
L154.631 449.694
L154.51 450.269
L154.27 455.256
L154.031 460.993
L153.911 458.155
L153.315 432.633
L153.196 431.04
L153.078 431.246
L152.841 436.697
L152.369 450.728
L152.134 443.947
L151.783 433.17
L151.666 432.26
L151.549 432.977
L151.316 438.823
L150.736 458.71
L150.505 454.972
L150.275 451.903
L150.16 451.783
L149.93 453.973
L149.586 457.562
L149.472 456.924
L148.903 450.44
L148.79 450.729
L148.563 453.55
L148.337 456.469
L148.224 455.175
L147.887 440.549
L147.55 427.655
L147.439 426.342
L147.327 427.033
L147.104 434.45
L146.77 451.449
L146.659 450.726
L146.106 425.369
L145.996 425.522
L145.776 432.951
L145.337 462.213
L145.228 460.502
L144.901 447.025
L144.792 445.823
L144.683 446.309
L144.358 453.46
L144.141 456.263
L144.033 455.908
L143.495 452.486
L143.28 451.57
L143.173 451.593
L142.853 452.99
L142.746 451.356
L142.427 436.045
L142.109 423.514
L142.004 423.343
L141.898 425.758
L141.687 437.856
L141.476 453.082
L141.371 452.977
L140.848 421.02
L140.743 421.409
L140.535 430.803
L140.119 465.178
L139.705 442.986
L139.602 442.499
L139.396 446.692
L139.088 454.958
L138.985 455.423
L138.781 455.027
L138.475 455.847
L138.271 453.085
L138.068 449.997
L137.966 449.894
L137.662 452.726
L137.461 444.784
L137.058 423.31
L136.958 422.805
L136.857 425.238
L136.657 438.537
L136.457 456.696
L136.357 455.489
L135.959 421.95
L135.86 419.49
L135.761 420.358
L135.563 431.186
L135.168 460.873
L134.775 440.769
L134.677 441.003
L134.481 446.419
L134.188 454.535
L133.896 456.046
L133.604 459.855
L133.121 448.3
L132.928 452.592
L132.832 455.067
L132.736 454.129
L132.161 424.821
L132.066 427.19
L131.875 440.743
L131.685 460.499
L131.59 457.48
L131.211 423.556
L131.116 421.643
L131.022 423.02
L130.833 434.417
L130.551 458.831
L130.457 456.902
L130.176 441.745
L130.083 440.596
L129.989 441.552
L129.43 453.986
L129.338 454.549
L129.152 459.176
L128.967 463.924
L128.598 448.778
L128.506 448.485
L128.323 454.044
L128.139 459.323
L127.591 429.77
L127.5 432.007
L127.318 444.743
L127.137 463.876
L126.955 447.92
L126.684 427.713
L126.594 426.442
L126.504 428.117
L126.234 446.412
L126.055 456.868
L125.875 449.129
L125.696 442.463
L125.607 441.98
L125.429 445.809
L125.162 453.321
L124.896 455.019
L124.719 459.857
L124.542 463.408
L124.189 449.541
L124.102 449.424
L123.926 455.221
L123.751 465.019
L123.227 436.692
L123.14 438.554
L122.879 456.708
L122.792 462.207
L122.273 433.161
L122.101 438.771
L121.757 455.165
L121.415 444.31
L121.329 444.4
L121.159 448.129
L120.903 453.46
L120.733 453.566
L120.648 454.028
L120.31 458.94
L119.972 451.354
L119.888 451.423
L119.72 455.917
L119.552 462.198
L119.385 455.355
L119.134 444.814
L119.05 444.372
L118.884 448.734
L118.634 458.568
L118.468 451.192
L118.22 441.48
L118.137 441.352
L117.972 445.648
L117.725 454.414
L117.643 453.952
L117.314 446.429
L117.232 446.603
L116.987 451.436
L116.824 453.724
L116.742 453.671
L116.498 452.628
L116.336 453.562
L116.093 454.836
L115.85 454.117
L115.77 454.25
L115.448 455.988
L115.287 454.827
L115.047 453.136
L114.887 454.13
L114.727 455.576
L114.647 455.565
L114.488 453.568
L114.249 450.487
L114.17 450.483
L114.012 452.038
L113.774 454.046
L113.616 452.287
L113.38 449.53
L113.301 449.687
L113.066 453.193
L112.909 454.594
L112.753 452.445
L112.518 448.978
L112.44 449.25
L112.285 452.349
L112.052 457.547
L111.897 454.605
L111.664 450.064
L111.587 450.463
L111.433 454.431
L111.202 461.494
L110.818 453.614
L110.741 454.245
L110.435 459.805
L110.283 457.523
L110.055 454.512
L109.827 454.139
L109.524 451.74
L109.448 452.102
L109.222 455.5
L109.146 455.307
L108.771 444.715
L108.696 445.065
L108.546 450.272
L108.321 461.456
L107.949 444.559
L107.874 444.815
L107.726 450.302
L107.503 464.177
L107.429 462.025
L107.208 452.562
L107.134 452.155
L106.986 455.761
L106.766 465.392
L106.399 454.421
L106.18 456.081
L106.107 455.983
L105.888 453.926
L105.815 454.159
L105.597 456.996
L105.452 452.909
L105.162 442.075
L105.09 442.647
L104.946 449.148
L104.73 464.791
L104.37 440.667
L104.299 440.506
L104.156 445.416
L103.87 458.051
L103.585 451.405
L103.443 453.714
L103.23 457.374
L102.947 454.115
L102.806 456.382
L102.665 458.915
L102.594 458.609
L102.383 455.703
L102.313 456.113
L102.173 458.639
L102.103 458.494
L101.893 447.575
L101.683 440.258
L101.614 441.134
L101.475 448.436
L101.266 462.869
L100.919 437.524
L100.85 436.819
L100.712 440.389
L100.367 454.434
L99.9556 450.918
L99.7503 450.606
L99.6819 450.938
L99.5454 453.449
L99.2729 460.923
L99.0012 457.471
L98.7979 460.482
L98.6626 455.226
L98.3252 440.299
L98.1906 444.234
L97.9219 459.449
L97.5202 435.421
L97.4535 435.664
L97.32 440.026
L96.9873 454.489
L96.9208 453.835
L96.5233 445.584
L96.3911 448.076
L96.0615 461.828
L95.9958 461.49
L95.7987 458.369
L95.6675 460.286
L95.602 461.6
L95.5365 461.163
L95.0794 442.011
L95.0143 443.124
L94.6893 456.535
L94.6245 453.817
L94.3655 437.389
L94.3655 437.389" style="fill:none;stroke:#0000ff;stroke-linecap:square;"/>
   </g>
   <g id="patch_3">
    <path d="
M696.711 467.336
L696.711 20.9356" style="fill:none;stroke:#000000;stroke-linecap:square;stroke-linejoin:miter;"/>
   </g>
   <g id="patch_4">
    <path d="
M27.1109 20.9356
L696.711 20.9356" style="fill:none;stroke:#000000;stroke-linecap:square;stroke-linejoin:miter;"/>
   </g>
   <g id="patch_5">
    <path d="
M27.1109 467.336
L27.1109 20.9356" style="fill:none;stroke:#000000;stroke-linecap:square;stroke-linejoin:miter;"/>
   </g>
   <g id="patch_6">
    <path d="
M27.1109 467.336
L696.711 467.336" style="fill:none;stroke:#000000;stroke-linecap:square;stroke-linejoin:miter;"/>
   </g>
   <g id="matplotlib.axis_1">
    <g id="xtick_1">
     <g id="line2d_2">
      <defs>
       <path d="
M0 0
L0 -4" id="mc7db9fdffb" style="stroke:#000000;stroke-width:0.5;"/>
      </defs>
      <g>
       <use style="stroke:#000000;stroke-width:0.5;" x="27.1109375" xlink:href="#mc7db9fdffb" y="467.335625"/>
      </g>
     </g>
     <g id="line2d_3">
      <defs>
       <path d="
M0 0
L0 4" id="m5a7d422ac3" style="stroke:#000000;stroke-width:0.5;"/>
      </defs>
      <g>
       <use style="stroke:#000000;stroke-width:0.5;" x="27.1109375" xlink:href="#m5a7d422ac3" y="20.935625"/>
      </g>
     </g>
     <g id="text_1">
      <!-- $\mathdefault{10^{0}}$ -->
      <g transform="translate(18.5609375 479.648125)">
       <text>
        <tspan style="font-family:Arial;font-size:7.0px;font-style:regular;" x="11.123046875" y="-5.968750000000001">0</tspan>
        <tspan style="font-family:Arial;font-size:10.0px;font-style:regular;" x="0.0 5.5615234375" y="-0.9906250000000014">10</tspan>
       </text>
      </g>
     </g>
    </g>
    <g id="xtick_2">
     <g id="line2d_4">
      <g>
       <use style="stroke:#000000;stroke-width:0.5;" x="250.3109375" xlink:href="#mc7db9fdffb" y="467.335625"/>
      </g>
     </g>
     <g id="line2d_5">
      <g>
       <use style="stroke:#000000;stroke-width:0.5;" x="250.3109375" xlink:href="#m5a7d422ac3" y="20.935625"/>
      </g>
     </g>
     <g id="text_2">
      <!-- $\mathdefault{10^{1}}$ -->
      <g transform="translate(241.7609375 479.648125)">
       <text>
        <tspan style="font-family:Arial;font-size:7.0px;font-style:regular;" x="11.123046875" y="-5.968750000000001">1</tspan>
        <tspan style="font-family:Arial;font-size:10.0px;font-style:regular;" x="0.0 5.5615234375" y="-0.9906250000000014">10</tspan>
       </text>
      </g>
     </g>
    </g>
    <g id="xtick_3">
     <g id="line2d_6">
      <g>
       <use style="stroke:#000000;stroke-width:0.5;" x="473.5109375" xlink:href="#mc7db9fdffb" y="467.335625"/>
      </g>
     </g>
     <g id="line2d_7">
      <g>
       <use style="stroke:#000000;stroke-width:0.5;" x="473.5109375" xlink:href="#m5a7d422ac3" y="20.935625"/>
      </g>
     </g>
     <g id="text_3">
      <!-- $\mathdefault{10^{2}}$ -->
      <g transform="translate(464.9609375 479.648125)">
       <text>
        <tspan style="font-family:Arial;font-size:7.0px;font-style:regular;" x="11.123046875" y="-5.968750000000001">2</tspan>
        <tspan style="font-family:Arial;font-size:10.0px;font-style:regular;" x="0.0 5.5615234375" y="-0.9906250000000014">10</tspan>
       </text>
      </g>
     </g>
    </g>
    <g id="xtick_4">
     <g id="line2d_8">
      <g>
       <use style="stroke:#000000;stroke-width:0.5;" x="696.7109375" xlink:href="#mc7db9fdffb" y="467.335625"/>
      </g>
     </g>
     <g id="line2d_9">
      <g>
       <use style="stroke:#000000;stroke-width:0.5;" x="696.7109375" xlink:href="#m5a7d422ac3" y="20.935625"/>
      </g>
     </g>
     <g id="text_4">
      <!-- $\mathdefault{10^{3}}$ -->
      <g transform="translate(688.1609375 479.648125)">
       <text>
        <tspan style="font-family:Arial;font-size:7.0px;font-style:regular;" x="11.123046875" y="-5.968750000000001">3</tspan>
        <tspan style="font-family:Arial;font-size:10.0px;font-style:regular;" x="0.0 5.5615234375" y="-0.9906250000000014">10</tspan>
       </text>
      </g>
     </g>
    </g>
    <g id="xtick_5">
     <g id="line2d_10">
      <defs>
       <path d="
M0 0
L0 -2" id="mc21db286a6" style="stroke:#000000;stroke-width:0.5;"/>
      </defs>
      <g>
       <use style="stroke:#000000;stroke-width:0.5;" x="94.3008325322" xlink:href="#mc21db286a6" y="467.335625"/>
      </g>
     </g>
     <g id="line2d_11">
      <defs>
       <path d="
M0 0
L0 2" id="ma9c915e141" style="stroke:#000000;stroke-width:0.5;"/>
      </defs>
      <g>
       <use style="stroke:#000000;stroke-width:0.5;" x="94.3008325322" xlink:href="#ma9c915e141" y="20.935625"/>
      </g>
     </g>
    </g>
    <g id="xtick_6">
     <g id="line2d_12">
      <g>
       <use style="stroke:#000000;stroke-width:0.5;" x="133.604401553" xlink:href="#mc21db286a6" y="467.335625"/>
      </g>
     </g>
     <g id="line2d_13">
      <g>
       <use style="stroke:#000000;stroke-width:0.5;" x="133.604401553" xlink:href="#ma9c915e141" y="20.935625"/>
      </g>
     </g>
    </g>
    <g id="xtick_7">
     <g id="line2d_14">
      <g>
       <use style="stroke:#000000;stroke-width:0.5;" x="161.490727564" xlink:href="#mc21db286a6" y="467.335625"/>
      </g>
     </g>
     <g id="line2d_15">
      <g>
       <use style="stroke:#000000;stroke-width:0.5;" x="161.490727564" xlink:href="#ma9c915e141" y="20.935625"/>
      </g>
     </g>
    </g>
    <g id="xtick_8">
     <g id="line2d_16">
      <g>
       <use style="stroke:#000000;stroke-width:0.5;" x="183.121042468" xlink:href="#mc21db286a6" y="467.335625"/>
      </g>
     </g>
     <g id="line2d_17">
      <g>
       <use style="stroke:#000000;stroke-width:0.5;" x="183.121042468" xlink:href="#ma9c915e141" y="20.935625"/>
      </g>
     </g>
    </g>
    <g id="xtick_9">
     <g id="line2d_18">
      <g>
       <use style="stroke:#000000;stroke-width:0.5;" x="200.794296586" xlink:href="#mc21db286a6" y="467.335625"/>
      </g>
     </g>
     <g id="line2d_19">
      <g>
       <use style="stroke:#000000;stroke-width:0.5;" x="200.794296586" xlink:href="#ma9c915e141" y="20.935625"/>
      </g>
     </g>
    </g>
    <g id="xtick_10">
     <g id="line2d_20">
      <g>
       <use style="stroke:#000000;stroke-width:0.5;" x="215.736820031" xlink:href="#mc21db286a6" y="467.335625"/>
      </g>
     </g>
     <g id="line2d_21">
      <g>
       <use style="stroke:#000000;stroke-width:0.5;" x="215.736820031" xlink:href="#ma9c915e141" y="20.935625"/>
      </g>
     </g>
    </g>
    <g id="xtick_11">
     <g id="line2d_22">
      <g>
       <use style="stroke:#000000;stroke-width:0.5;" x="228.680622597" xlink:href="#mc21db286a6" y="467.335625"/>
      </g>
     </g>
     <g id="line2d_23">
      <g>
       <use style="stroke:#000000;stroke-width:0.5;" x="228.680622597" xlink:href="#ma9c915e141" y="20.935625"/>
      </g>
     </g>
    </g>
    <g id="xtick_12">
     <g id="line2d_24">
      <g>
       <use style="stroke:#000000;stroke-width:0.5;" x="240.097865607" xlink:href="#mc21db286a6" y="467.335625"/>
      </g>
     </g>
     <g id="line2d_25">
      <g>
       <use style="stroke:#000000;stroke-width:0.5;" x="240.097865607" xlink:href="#ma9c915e141" y="20.935625"/>
      </g>
     </g>
    </g>
    <g id="xtick_13">
     <g id="line2d_26">
      <g>
       <use style="stroke:#000000;stroke-width:0.5;" x="317.500832532" xlink:href="#mc21db286a6" y="467.335625"/>
      </g>
     </g>
     <g id="line2d_27">
      <g>
       <use style="stroke:#000000;stroke-width:0.5;" x="317.500832532" xlink:href="#ma9c915e141" y="20.935625"/>
      </g>
     </g>
    </g>
    <g id="xtick_14">
     <g id="line2d_28">
      <g>
       <use style="stroke:#000000;stroke-width:0.5;" x="356.804401553" xlink:href="#mc21db286a6" y="467.335625"/>
      </g>
     </g>
     <g id="line2d_29">
      <g>
       <use style="stroke:#000000;stroke-width:0.5;" x="356.804401553" xlink:href="#ma9c915e141" y="20.935625"/>
      </g>
     </g>
    </g>
    <g id="xtick_15">
     <g id="line2d_30">
      <g>
       <use style="stroke:#000000;stroke-width:0.5;" x="384.690727564" xlink:href="#mc21db286a6" y="467.335625"/>
      </g>
     </g>
     <g id="line2d_31">
      <g>
       <use style="stroke:#000000;stroke-width:0.5;" x="384.690727564" xlink:href="#ma9c915e141" y="20.935625"/>
      </g>
     </g>
    </g>
    <g id="xtick_16">
     <g id="line2d_32">
      <g>
       <use style="stroke:#000000;stroke-width:0.5;" x="406.321042468" xlink:href="#mc21db286a6" y="467.335625"/>
      </g>
     </g>
     <g id="line2d_33">
      <g>
       <use style="stroke:#000000;stroke-width:0.5;" x="406.321042468" xlink:href="#ma9c915e141" y="20.935625"/>
      </g>
     </g>
    </g>
    <g id="xtick_17">
     <g id="line2d_34">
      <g>
       <use style="stroke:#000000;stroke-width:0.5;" x="423.994296586" xlink:href="#mc21db286a6" y="467.335625"/>
      </g>
     </g>
     <g id="line2d_35">
      <g>
       <use style="stroke:#000000;stroke-width:0.5;" x="423.994296586" xlink:href="#ma9c915e141" y="20.935625"/>
      </g>
     </g>
    </g>
    <g id="xtick_18">
     <g id="line2d_36">
      <g>
       <use style="stroke:#000000;stroke-width:0.5;" x="438.936820031" xlink:href="#mc21db286a6" y="467.335625"/>
      </g>
     </g>
     <g id="line2d_37">
      <g>
       <use style="stroke:#000000;stroke-width:0.5;" x="438.936820031" xlink:href="#ma9c915e141" y="20.935625"/>
      </g>
     </g>
    </g>
    <g id="xtick_19">
     <g id="line2d_38">
      <g>
       <use style="stroke:#000000;stroke-width:0.5;" x="451.880622597" xlink:href="#mc21db286a6" y="467.335625"/>
      </g>
     </g>
     <g id="line2d_39">
      <g>
       <use style="stroke:#000000;stroke-width:0.5;" x="451.880622597" xlink:href="#ma9c915e141" y="20.935625"/>
      </g>
     </g>
    </g>
    <g id="xtick_20">
     <g id="line2d_40">
      <g>
       <use style="stroke:#000000;stroke-width:0.5;" x="463.297865607" xlink:href="#mc21db286a6" y="467.335625"/>
      </g>
     </g>
     <g id="line2d_41">
      <g>
       <use style="stroke:#000000;stroke-width:0.5;" x="463.297865607" xlink:href="#ma9c915e141" y="20.935625"/>
      </g>
     </g>
    </g>
    <g id="xtick_21">
     <g id="line2d_42">
      <g>
       <use style="stroke:#000000;stroke-width:0.5;" x="540.700832532" xlink:href="#mc21db286a6" y="467.335625"/>
      </g>
     </g>
     <g id="line2d_43">
      <g>
       <use style="stroke:#000000;stroke-width:0.5;" x="540.700832532" xlink:href="#ma9c915e141" y="20.935625"/>
      </g>
     </g>
    </g>
    <g id="xtick_22">
     <g id="line2d_44">
      <g>
       <use style="stroke:#000000;stroke-width:0.5;" x="580.004401553" xlink:href="#mc21db286a6" y="467.335625"/>
      </g>
     </g>
     <g id="line2d_45">
      <g>
       <use style="stroke:#000000;stroke-width:0.5;" x="580.004401553" xlink:href="#ma9c915e141" y="20.935625"/>
      </g>
     </g>
    </g>
    <g id="xtick_23">
     <g id="line2d_46">
      <g>
       <use style="stroke:#000000;stroke-width:0.5;" x="607.890727564" xlink:href="#mc21db286a6" y="467.335625"/>
      </g>
     </g>
     <g id="line2d_47">
      <g>
       <use style="stroke:#000000;stroke-width:0.5;" x="607.890727564" xlink:href="#ma9c915e141" y="20.935625"/>
      </g>
     </g>
    </g>
    <g id="xtick_24">
     <g id="line2d_48">
      <g>
       <use style="stroke:#000000;stroke-width:0.5;" x="629.521042468" xlink:href="#mc21db286a6" y="467.335625"/>
      </g>
     </g>
     <g id="line2d_49">
      <g>
       <use style="stroke:#000000;stroke-width:0.5;" x="629.521042468" xlink:href="#ma9c915e141" y="20.935625"/>
      </g>
     </g>
    </g>
    <g id="xtick_25">
     <g id="line2d_50">
      <g>
       <use style="stroke:#000000;stroke-width:0.5;" x="647.194296586" xlink:href="#mc21db286a6" y="467.335625"/>
      </g>
     </g>
     <g id="line2d_51">
      <g>
       <use style="stroke:#000000;stroke-width:0.5;" x="647.194296586" xlink:href="#ma9c915e141" y="20.935625"/>
      </g>
     </g>
    </g>
    <g id="xtick_26">
     <g id="line2d_52">
      <g>
       <use style="stroke:#000000;stroke-width:0.5;" x="662.136820031" xlink:href="#mc21db286a6" y="467.335625"/>
      </g>
     </g>
     <g id="line2d_53">
      <g>
       <use style="stroke:#000000;stroke-width:0.5;" x="662.136820031" xlink:href="#ma9c915e141" y="20.935625"/>
      </g>
     </g>
    </g>
    <g id="xtick_27">
     <g id="line2d_54">
      <g>
       <use style="stroke:#000000;stroke-width:0.5;" x="675.080622597" xlink:href="#mc21db286a6" y="467.335625"/>
      </g>
     </g>
     <g id="line2d_55">
      <g>
       <use style="stroke:#000000;stroke-width:0.5;" x="675.080622597" xlink:href="#ma9c915e141" y="20.935625"/>
      </g>
     </g>
    </g>
    <g id="xtick_28">
     <g id="line2d_56">
      <g>
       <use style="stroke:#000000;stroke-width:0.5;" x="686.497865607" xlink:href="#mc21db286a6" y="467.335625"/>
      </g>
     </g>
     <g id="line2d_57">
      <g>
       <use style="stroke:#000000;stroke-width:0.5;" x="686.497865607" xlink:href="#ma9c915e141" y="20.935625"/>
      </g>
     </g>
    </g>
   </g>
   <g id="matplotlib.axis_2">
    <g id="ytick_1">
     <g id="line2d_58">
      <defs>
       <path d="
M0 0
L4 0" id="md7965d1ba0" style="stroke:#000000;stroke-width:0.5;"/>
      </defs>
      <g>
       <use style="stroke:#000000;stroke-width:0.5;" x="27.1109375" xlink:href="#md7965d1ba0" y="467.335625"/>
      </g>
     </g>
     <g id="line2d_59">
      <defs>
       <path d="
M0 0
L-4 0" id="md9a1c1a7cd" style="stroke:#000000;stroke-width:0.5;"/>
      </defs>
      <g>
       <use style="stroke:#000000;stroke-width:0.5;" x="696.7109375" xlink:href="#md9a1c1a7cd" y="467.335625"/>
      </g>
     </g>
     <g id="text_5">
      <text style="font-family:Arial;font-size:10.0px;font-style:normal;text-anchor:end;" transform="rotate(-0.000000, 23.110938, 469.920781)" x="23.1109375" y="469.92078125">0</text>
     </g>
    </g>
    <g id="ytick_2">
     <g id="line2d_60">
      <g>
       <use style="stroke:#000000;stroke-width:0.5;" x="27.1109375" xlink:href="#md7965d1ba0" y="392.935625"/>
      </g>
     </g>
     <g id="line2d_61">
      <g>
       <use style="stroke:#000000;stroke-width:0.5;" x="696.7109375" xlink:href="#md9a1c1a7cd" y="392.935625"/>
      </g>
     </g>
     <g id="text_6">
      <text style="font-family:Arial;font-size:10.0px;font-style:normal;text-anchor:end;" transform="rotate(-0.000000, 23.110938, 395.520781)" x="23.1109375" y="395.52078125">50</text>
     </g>
    </g>
    <g id="ytick_3">
     <g id="line2d_62">
      <g>
       <use style="stroke:#000000;stroke-width:0.5;" x="27.1109375" xlink:href="#md7965d1ba0" y="318.535625"/>
      </g>
     </g>
     <g id="line2d_63">
      <g>
       <use style="stroke:#000000;stroke-width:0.5;" x="696.7109375" xlink:href="#md9a1c1a7cd" y="318.535625"/>
      </g>
     </g>
     <g id="text_7">
      <text style="font-family:Arial;font-size:10.0px;font-style:normal;text-anchor:end;" transform="rotate(-0.000000, 23.110938, 321.120781)" x="23.1109375" y="321.12078125">100</text>
     </g>
    </g>
    <g id="ytick_4">
     <g id="line2d_64">
      <g>
       <use style="stroke:#000000;stroke-width:0.5;" x="27.1109375" xlink:href="#md7965d1ba0" y="244.135625"/>
      </g>
     </g>
     <g id="line2d_65">
      <g>
       <use style="stroke:#000000;stroke-width:0.5;" x="696.7109375" xlink:href="#md9a1c1a7cd" y="244.135625"/>
      </g>
     </g>
     <g id="text_8">
      <text style="font-family:Arial;font-size:10.0px;font-style:normal;text-anchor:end;" transform="rotate(-0.000000, 23.110938, 246.720781)" x="23.1109375" y="246.72078125">150</text>
     </g>
    </g>
    <g id="ytick_5">
     <g id="line2d_66">
      <g>
       <use style="stroke:#000000;stroke-width:0.5;" x="27.1109375" xlink:href="#md7965d1ba0" y="169.735625"/>
      </g>
     </g>
     <g id="line2d_67">
      <g>
       <use style="stroke:#000000;stroke-width:0.5;" x="696.7109375" xlink:href="#md9a1c1a7cd" y="169.735625"/>
      </g>
     </g>
     <g id="text_9">
      <text style="font-family:Arial;font-size:10.0px;font-style:normal;text-anchor:end;" transform="rotate(-0.000000, 23.110938, 172.320781)" x="23.1109375" y="172.32078125">200</text>
     </g>
    </g>
    <g id="ytick_6">
     <g id="line2d_68">
      <g>
       <use style="stroke:#000000;stroke-width:0.5;" x="27.1109375" xlink:href="#md7965d1ba0" y="95.335625"/>
      </g>
     </g>
     <g id="line2d_69">
      <g>
       <use style="stroke:#000000;stroke-width:0.5;" x="696.7109375" xlink:href="#md9a1c1a7cd" y="95.335625"/>
      </g>
     </g>
     <g id="text_10">
      <text style="font-family:Arial;font-size:10.0px;font-style:normal;text-anchor:end;" transform="rotate(-0.000000, 23.110938, 97.920781)" x="23.1109375" y="97.92078125">250</text>
     </g>
    </g>
    <g id="ytick_7">
     <g id="line2d_70">
      <g>
       <use style="stroke:#000000;stroke-width:0.5;" x="27.1109375" xlink:href="#md7965d1ba0" y="20.935625"/>
      </g>
     </g>
     <g id="line2d_71">
      <g>
       <use style="stroke:#000000;stroke-width:0.5;" x="696.7109375" xlink:href="#md9a1c1a7cd" y="20.935625"/>
      </g>
     </g>
     <g id="text_11">
      <text style="font-family:Arial;font-size:10.0px;font-style:normal;text-anchor:end;" transform="rotate(-0.000000, 23.110938, 23.520781)" x="23.1109375" y="23.52078125">300</text>
     </g>
    </g>
   </g>
   <g id="text_12">
    <text style="font-family:Arial;font-size:10.0px;font-style:normal;" transform="translate(33.8069375 441.717875)"/>
    <text style="font-family:Arial;font-size:10.0px;font-style:normal;" transform="translate(33.8069375 452.29475)"/>
    <text style="font-family:Arial;font-size:10.0px;font-style:normal;" transform="translate(33.8069375 462.871625)">channel_detection.details.powerspectra.lower</text>
   </g>
   <g id="text_13">
    <text style="font-family:Arial;font-size:12.0px;font-style:normal;text-anchor:middle;" transform="rotate(-0.000000, 361.910938, 15.935625)" x="361.9109375" y="15.935625">mainfreq=60.000000</text>
   </g>
  </g>
 </g>
 <defs>
  <clipPath id="p8a97c097eb">
   <rect height="446.4" width="669.6" x="27.1109375" y="20.935625"/>
  </clipPath>
 </defs>
</svg>
