<?xml version="1.0" encoding="utf-8" standalone="no"?>
<!DOCTYPE svg PUBLIC "-//W3C//DTD SVG 1.1//EN"
  "http://www.w3.org/Graphics/SVG/1.1/DTD/svg11.dtd">
<!-- Created with matplotlib (http://matplotlib.org/) -->
<svg height="488pt" version="1.1" viewBox="0 0 712 488" width="712pt" xmlns="http://www.w3.org/2000/svg" xmlns:xlink="http://www.w3.org/1999/xlink">
 <defs>
  <style type="text/css">
*{stroke-linecap:butt;stroke-linejoin:round;}
  </style>
 </defs>
 <g id="figure_1">
  <g id="patch_1">
   <path d="
M0 488.836
L712.461 488.836
L712.461 0
L0 0
L0 488.836" style="fill:none;"/>
  </g>
  <g id="axes_1">
   <g id="patch_2">
    <path d="
M27.1109 467.336
L696.711 467.336
L696.711 20.9356
L27.1109 20.9356
z
" style="fill:#ffffff;"/>
   </g>
   <g id="line2d_1">
    <path clip-path="url(#p8a97c097eb)" d="
M590.217 435.845
L580.004 251.607
L570.766 194.843
L562.331 173.531
L554.572 176.355
L547.389 200.8
L540.701 242.478
L534.445 295.648
L528.568 353.857
L523.028 410.582
L517.787 455.189
L512.815 435.28
L508.085 412.775
L503.576 404.595
L499.267 410.318
L495.141 426.087
L491.184 442.518
L487.382 439.096
L483.724 421.248
L480.199 407.36
L476.797 404.749
L473.511 416.484
L470.332 440.974
L467.255 446.23
L464.272 398.584
L455.838 233.845
L453.182 196.117
L450.597 176.545
L448.079 179.016
L445.625 205.471
L443.231 255.62
L440.895 326.857
L438.614 408.056
L436.386 413.719
L429.992 144.587
L427.951 83.0178
L425.953 46.6824
L423.994 38.6363
L422.075 59.532
L420.192 107.558
L418.346 178.607
L416.534 266.637
L414.755 363.46
L413.009 442.047
L411.293 374.274
L409.607 295.156
L407.95 233.487
L406.321 194.122
L404.719 178.603
L403.143 186.169
L401.592 213.963
L400.065 257.404
L398.562 310.722
L395.625 421.459
L394.188 458.521
L392.773 431.953
L391.379 412.303
L390.004 407.231
L388.648 415.121
L387.311 431.483
L385.992 444.979
L384.691 436.409
L383.407 418.877
L382.14 407.373
L380.889 407.727
L379.654 422.374
L378.435 447.722
L377.231 437.325
L376.041 387.867
L373.705 276.395
L372.558 229.068
L371.424 195.446
L370.304 180.523
L369.196 187.737
L368.101 218.549
L367.017 272.204
L364.887 425.114
L363.839 398.658
L361.776 215.363
L360.761 139.435
L359.757 84.4031
L358.763 54.8951
L357.779 53.3782
L356.804 79.9286
L355.84 132.224
L354.885 205.752
L353.003 386.596
L352.075 431.369
L350.246 283.06
L349.344 228.094
L348.451 195.375
L347.566 185.853
L346.688 198.26
L345.819 229.35
L344.957 274.323
L342.417 432.022
L341.585 453.952
L340.76 429.089
L339.942 413.554
L339.131 411.988
L338.327 422.22
L337.529 438.941
L336.738 447.718
L335.953 434.074
L335.174 417.504
L334.402 408.944
L333.635 412.663
L332.875 430.236
L332.121 455.118
L331.372 427.406
L328.435 228.674
L327.714 200.384
L326.999 190.851
L326.288 202.887
L325.583 237.352
L324.883 292.989
L323.499 441.332
L322.814 387.04
L321.458 214.757
L320.787 147.028
L320.121 100.207
L319.459 78.1947
L318.802 82.7892
L318.149 113.519
L317.501 167.689
L316.857 240.616
L315.581 409.976
L314.95 416.615
L313.699 278.253
L313.08 230.887
L312.464 204.795
L311.853 200.419
L311.245 216.15
L310.641 248.602
L309.444 343.87
L308.262 440.064
L307.676 450.748
L307.094 428.856
L306.515 416.779
L305.94 417.596
L305.368 428.967
L304.8 445.243
L304.234 449.852
L303.114 419.747
L302.558 413.793
L302.006 419.857
L300.911 455.804
L300.368 419.581
L298.225 235.143
L297.697 211.829
L297.172 206.754
L296.649 222.206
L296.129 258.591
L295.612 314.319
L294.587 451.294
L292.567 160.368
L292.069 121.335
L291.573 106.044
L291.08 115.718
L290.589 149.442
L290.1 204.246
L288.65 430.565
L288.171 403.538
L287.221 277.564
L286.749 237.97
L286.28 218.508
L285.813 219.115
L285.348 237.86
L284.885 271.233
L283.056 448.79
L282.604 447.542
L282.154 429
L281.707 420.787
L281.261 424.252
L280.376 452.155
L279.936 449.881
L279.063 421.437
L278.629 418.431
L278.197 427.035
L277.767 445.963
L277.339 450.136
L276.489 365.948
L275.646 277.359
L275.227 245.308
L274.811 227.487
L274.395 227.123
L273.982 245.903
L273.57 283.746
L272.346 441.05
L270.737 177.633
L270.339 146.668
L269.943 137.866
L269.548 151.877
L269.154 187.402
L268.373 308.902
L267.597 442.567
L267.212 394.426
L266.446 283.34
L266.065 251.211
L265.685 237.572
L265.307 241.972
L264.931 262.302
L264.182 335.923
L263.07 454.765
L262.702 446.206
L262.336 431.068
L261.971 426.054
L261.607 431.401
L260.884 459.816
L260.524 450.537
L260.166 434.891
L259.809 425.018
L259.453 424.406
L259.098 434.639
L258.745 452.864
L258.393 444.369
L256.653 259.557
L256.309 246.616
L255.966 250.047
L255.624 271.051
L255.283 309.187
L254.605 422.432
L254.268 429.787
L253.263 238.031
L252.931 195.508
L252.6 171.518
L252.269 168.018
L251.94 185.211
L251.612 221.531
L250.959 337.379
L250.635 404.605
L250.311 441.265
L249.346 292.217
L249.027 266.647
L248.709 257.96
L248.391 265.385
L248.075 286.692
L247.446 356.606
L246.82 433.654
L246.509 458.576
L245.89 432.779
L245.581 430.544
L245.274 437.357
L244.663 463.756
L244.055 435.3
L243.752 428.036
L243.451 429.633
L243.15 441.165
L242.851 458.37
L242.552 440.196
L241.072 276.62
L240.779 268.267
L240.486 275.014
L240.195 297.586
L239.614 385.57
L239.325 438.784
L239.037 420.526
L238.178 251.817
L237.894 217.393
L237.61 200.077
L237.327 201.235
L237.045 220.653
L236.483 305.776
L235.924 422.189
L235.646 435.512
L234.816 306.759
L234.541 287.42
L234.267 282.969
L233.993 292.395
L233.449 342.948
L232.638 442.916
L232.369 458.211
L231.833 436.65
L231.567 436.494
L231.301 443.594
L231.035 454.401
L230.771 457.118
L230.244 435.8
L229.982 431.551
L229.72 435.297
L229.199 460.761
L228.681 404.52
L227.908 313.397
L227.652 297.174
L227.397 292.891
L227.142 302.101
L226.888 325.126
L226.382 407.091
L226.13 451.281
L225.878 414.402
L225.128 269.901
L224.879 242.965
L224.631 231.374
L224.383 236.009
L224.136 256.359
L223.644 335.644
L223.154 436.416
L222.91 431.579
L222.425 350.406
L222.183 323.582
L221.941 309.537
L221.7 308.344
L221.46 318.863
L220.981 365.617
L220.268 450.58
L220.031 457.252
L219.559 440.187
L219.324 441.094
L218.856 453.292
L218.623 451.267
L218.158 436.326
L217.926 434.872
L217.695 440.42
L217.465 452.566
L217.235 458.13
L216.776 405.84
L216.093 329.829
L215.866 318.219
L215.64 317.383
L215.414 328.391
L214.964 384.683
L214.517 451.564
L213.627 289.924
L213.406 269.817
L213.186 263.182
L212.966 270.462
L212.746 290.91
L212.309 362.867
L211.873 446.101
L211.656 429.42
L211.223 362.824
L211.007 342.434
L210.792 332.963
L210.578 334.212
L210.363 344.985
L209.936 386.488
L209.299 455.684
L209.088 456.888
L208.666 444.041
L208.456 444.683
L208.247 447.814
L208.038 449.176
L207.829 445.889
L207.413 437.354
L207.206 438.649
L206.999 445.781
L206.792 457.491
L206.586 455.172
L205.563 348.044
L205.359 340.566
L205.156 342.436
L204.954 354.294
L204.55 405.783
L204.348 439.458
L204.147 445.91
L203.348 314.042
L203.149 299.882
L202.951 297.079
L202.753 305.743
L202.358 353.116
L201.769 451.908
L200.794 357.281
L200.601 359.918
L200.214 385.709
L199.447 458.999
L199.256 457.804
L198.875 447.377
L198.685 446.547
L198.495 446.468
L198.306 445.059
L197.929 439.456
L197.741 439.159
L197.553 442.771
L197.179 461.833
L196.992 452.871
L196.065 367.371
L195.88 363.455
L195.696 367.292
L195.513 379.141
L195.146 423.978
L194.963 450.12
L194.781 443.426
L194.236 359.751
L193.874 333.515
L193.694 333.649
L193.514 342.676
L193.155 383.125
L192.619 453.125
L191.909 384.944
L191.732 381.734
L191.555 384.918
L191.204 406.029
L190.504 461.179
L190.33 459.57
L189.982 449.453
L189.463 441.611
L189.291 439.701
L189.119 439.299
L188.947 441.438
L188.605 455.657
L188.434 464.149
L187.923 419.155
L187.584 393.288
L187.415 386.564
L187.247 385.448
L187.078 390.474
L186.742 418.247
L186.407 456.528
L186.24 442.883
L185.741 380.788
L185.41 364.347
L185.244 366.295
L184.915 389.03
L184.259 453.434
L183.769 411.806
L183.607 405.429
L183.445 403.961
L183.283 406.963
L182.96 422.899
L182.317 462.882
L182.157 460.833
L181.678 445.171
L181.36 439.184
L181.201 438.41
L181.043 439.805
L180.727 450.513
L180.413 462.257
L179.63 407.62
L179.475 404.348
L179.319 405.528
L179.164 411.3
L178.854 434.997
L178.546 457.334
L177.778 396.155
L177.625 394.406
L177.473 397.364
L177.168 415.411
L176.714 454.918
L176.563 455.069
L176.111 429.438
L175.961 425.683
L175.811 424.898
L175.661 426.766
L175.362 436.428
L174.767 464.512
L174.619 461.84
L174.029 440.54
L173.882 438.716
L173.735 439.057
L173.589 441.77
L173.296 454.184
L173.151 462.418
L173.005 460.599
L172.425 425.111
L172.28 421.291
L172.136 420.656
L171.991 423.337
L171.704 437.696
L171.417 457.719
L171.274 457.377
L170.704 424.402
L170.562 421.974
L170.42 422.519
L170.137 431.301
L169.573 458.103
L169.433 457.119
L169.013 446.092
L168.734 443.562
L168.595 443.886
L168.317 447.517
L168.04 455.288
L167.764 465.052
L167.489 454.487
L167.077 440.758
L166.94 439.713
L166.804 440.942
L166.531 450.107
L166.259 464.85
L165.988 451.063
L165.583 433.699
L165.448 432.432
L165.313 433.752
L165.045 443.326
L164.643 462.888
L163.978 442.49
L163.846 443.274
L163.581 448.948
L163.186 457.843
L162.923 458.822
L162.792 459.357
L162.4 461.788
L161.75 453.716
L161.62 455.234
L161.233 463.562
L160.59 442.167
L160.462 441.864
L160.334 443.678
L160.079 453.139
L159.825 465.32
L159.192 439.441
L159.066 439.408
L158.94 441.534
L158.688 451.141
L158.437 464.053
L158.312 463.006
L157.938 449.903
L157.813 448.664
L157.689 449.163
L157.441 454.475
L157.069 465.476
L156.577 458.482
L156.454 458.58
L156.209 459.071
L155.964 457.454
L155.721 456.161
L155.599 456.767
L155.235 463.143
L155.114 462.086
L154.51 445.966
L154.39 446.21
L154.15 451.743
L153.791 464.286
L153.315 442.953
L153.078 440.415
L152.959 442.006
L152.723 450.288
L152.487 462.019
L152.369 462.315
L151.9 443.22
L151.783 441.73
L151.666 441.978
L151.433 447.192
L150.968 460.808
L150.39 446.982
L150.275 447.088
L150.045 450.42
L149.472 462.882
L148.79 450.301
L148.676 450.809
L148.45 455.409
L148.224 463.899
L148.112 463.68
L147.55 439.505
L147.439 438.36
L147.327 439.205
L147.104 446.886
L146.77 461.546
L146.216 432.284
L146.106 431.7
L145.996 433.569
L145.776 443.846
L145.447 461.126
L144.901 437.888
L144.792 438.439
L144.574 444.892
L144.141 464.235
L143.925 460.041
L143.71 456.905
L143.495 456.308
L143.388 456.368
L143.28 456.66
L143.066 459.035
L142.853 464.656
L142.746 463.213
L142.109 435.286
L142.004 435.78
L141.792 444.045
L141.476 460.274
L140.952 424.455
L140.848 423.966
L140.743 426.548
L140.535 439.861
L140.223 460.487
L139.809 433.292
L139.705 431.958
L139.602 433.228
L139.396 442.137
L138.985 464.818
L138.679 458.237
L138.576 458.676
L138.271 462.343
L138.068 461.104
L137.966 461.365
L137.764 465.314
L137.662 462.778
L137.058 432.892
L136.958 433.627
L136.757 443.264
L136.557 460.203
L136.457 458.684
L136.059 422.454
L135.86 419.017
L135.662 429.006
L135.365 459.915
L135.266 459.424
L134.873 429.424
L134.775 428.427
L134.677 430.298
L134.383 448.187
L134.09 464.538
L133.896 458.33
L133.798 457.717
L133.604 461.181
L133.411 464.83
L133.121 461.366
L132.928 465.411
L132.736 456.483
L132.352 433.546
L132.257 431.957
L132.161 433.097
L131.97 443.877
L131.78 461.353
L131.685 456.993
L131.305 420.282
L131.211 417.36
L131.116 417.973
L130.928 429.392
L130.645 461.684
L130.551 457.922
L130.176 428.111
L130.083 427.549
L129.896 434.618
L129.43 463.922
L129.152 455.656
L129.06 455.905
L128.69 459.004
L128.598 459.405
L128.414 463.291
L128.323 465.508
L128.048 448.216
L127.773 433.729
L127.682 432.881
L127.591 434.728
L127.409 446.514
L127.227 462.741
L126.684 418.779
L126.594 420.053
L126.414 432.197
L126.144 463.602
L125.607 428.583
L125.429 435.766
L125.073 464.278
L124.984 462.938
L124.719 452.208
L124.63 451.261
L124.542 451.269
L124.366 453.013
L124.189 456.71
L123.926 465.19
L123.401 435.557
L123.314 435.5
L123.14 442.824
L122.879 462.742
L122.446 424.235
L122.36 422.875
L122.273 424.609
L122.101 436.618
L121.843 464.792
L121.415 430.99
L121.329 430.888
L121.159 437.758
L120.818 465.249
L120.733 461.677
L120.394 446.393
L120.31 445.752
L120.225 446.277
L120.057 450.54
L119.72 463.873
L119.301 438.689
L119.217 437.503
L119.134 438.429
L118.967 446.734
L118.717 461.974
L118.303 429.471
L118.22 428.89
L118.054 435.455
L117.725 463.96
L117.314 433.391
L117.232 433.167
L117.069 439.208
L116.742 465.974
L116.661 460.317
L116.336 441.799
L116.255 440.997
L116.174 441.854
L116.012 448.1
L115.77 464.605
L115.689 462.396
L115.367 442.714
L115.287 440.971
L115.207 440.976
L115.047 446.295
L114.807 463.616
L114.727 461.819
L114.329 437.234
L114.249 437.15
L114.091 442.876
L113.774 463.45
L113.38 436.853
L113.301 436.382
L113.144 441.381
L112.831 465.526
L112.44 438.528
L112.363 437.757
L112.285 438.961
L112.129 446.721
L111.897 465.429
L111.433 443.008
L111.279 446.737
L110.971 465.155
L110.894 462.331
L110.588 447.353
L110.512 446.182
L110.435 446.285
L110.283 450.369
L110.055 464.266
L109.979 463.212
L109.599 439.416
L109.524 438.664
L109.448 439.864
L109.297 447.979
L109.071 463.822
L108.696 436.059
L108.621 435.752
L108.471 441.486
L108.172 465.173
L107.874 445.929
L107.8 444.813
L107.726 445.382
L107.578 450.652
L107.282 466.074
L106.913 456.058
L106.766 455.206
L106.692 455.645
L106.546 459.031
L106.399 465.648
L106.253 458.348
L105.961 441.88
L105.888 441.008
L105.815 442.019
L105.67 449.721
L105.524 462.806
L105.452 462.756
L105.09 435.956
L105.018 436.01
L104.874 442.466
L104.586 463.992
L104.299 446.364
L104.227 445.912
L104.084 449.654
L103.727 466.418
L103.585 464.08
L103.514 464.249
L103.372 465.266
L103.088 461.182
L102.947 463.892
L102.876 465.987
L102.665 454.027
L102.383 443.191
L102.243 447.42
L102.033 464.418
L101.963 461.091
L101.614 436.969
L101.544 437.575
L101.405 444.748
L101.197 464.036
L101.127 462.615
L100.85 446.642
L100.781 446.546
L100.643 450.617
L100.299 465.794
L100.024 460.613
L99.8187 459.064
L99.7503 459.157
L99.6136 461.687
L99.4772 465.541
L99.0012 445.092
L98.8656 449.984
L98.6626 465.214
L98.2579 440.437
L98.1906 441.392
L97.989 453.789
L97.8548 465.389
L97.7878 462.025
L97.5202 447.703
L97.4535 447.516
L97.32 450.987
L97.0537 465.811
L96.9873 464.146
L96.6556 452.26
L96.5894 452.14
L96.4572 454.698
L96.2592 464.372
L96.1933 464.183
L95.7987 446.112
L95.6675 449.276
L95.4057 464.696
L95.0794 445.664
L95.0143 445.309
L94.8842 448.911
L94.6245 466.028
L94.5597 461.724
L94.3655 449.818
L94.3655 449.818" style="fill:none;stroke:#0000ff;stroke-linecap:square;"/>
   </g>
   <g id="patch_3">
    <path d="
M27.1109 467.336
L696.711 467.336" style="fill:none;stroke:#000000;stroke-linecap:square;stroke-linejoin:miter;"/>
   </g>
   <g id="patch_4">
    <path d="
M27.1109 20.9356
L696.711 20.9356" style="fill:none;stroke:#000000;stroke-linecap:square;stroke-linejoin:miter;"/>
   </g>
   <g id="patch_5">
    <path d="
M696.711 467.336
L696.711 20.9356" style="fill:none;stroke:#000000;stroke-linecap:square;stroke-linejoin:miter;"/>
   </g>
   <g id="patch_6">
    <path d="
M27.1109 467.336
L27.1109 20.9356" style="fill:none;stroke:#000000;stroke-linecap:square;stroke-linejoin:miter;"/>
   </g>
   <g id="matplotlib.axis_1">
    <g id="xtick_1">
     <g id="line2d_2">
      <defs>
       <path d="
M0 0
L0 -4" id="mc7db9fdffb" style="stroke:#000000;stroke-width:0.5;"/>
      </defs>
      <g>
       <use style="stroke:#000000;stroke-width:0.5;" x="27.1109375" xlink:href="#mc7db9fdffb" y="467.335625"/>
      </g>
     </g>
     <g id="line2d_3">
      <defs>
       <path d="
M0 0
L0 4" id="m5a7d422ac3" style="stroke:#000000;stroke-width:0.5;"/>
      </defs>
      <g>
       <use style="stroke:#000000;stroke-width:0.5;" x="27.1109375" xlink:href="#m5a7d422ac3" y="20.935625"/>
      </g>
     </g>
     <g id="text_1">
      <!-- $\mathdefault{10^{0}}$ -->
      <g transform="translate(18.5609375 479.648125)">
       <text>
        <tspan style="font-family:Arial;font-size:7.0px;font-style:regular;" x="11.123046875" y="-5.968750000000001">0</tspan>
        <tspan style="font-family:Arial;font-size:10.0px;font-style:regular;" x="0.0 5.5615234375" y="-0.9906250000000014">10</tspan>
       </text>
      </g>
     </g>
    </g>
    <g id="xtick_2">
     <g id="line2d_4">
      <g>
       <use style="stroke:#000000;stroke-width:0.5;" x="250.3109375" xlink:href="#mc7db9fdffb" y="467.335625"/>
      </g>
     </g>
     <g id="line2d_5">
      <g>
       <use style="stroke:#000000;stroke-width:0.5;" x="250.3109375" xlink:href="#m5a7d422ac3" y="20.935625"/>
      </g>
     </g>
     <g id="text_2">
      <!-- $\mathdefault{10^{1}}$ -->
      <g transform="translate(241.7609375 479.648125)">
       <text>
        <tspan style="font-family:Arial;font-size:7.0px;font-style:regular;" x="11.123046875" y="-5.968750000000001">1</tspan>
        <tspan style="font-family:Arial;font-size:10.0px;font-style:regular;" x="0.0 5.5615234375" y="-0.9906250000000014">10</tspan>
       </text>
      </g>
     </g>
    </g>
    <g id="xtick_3">
     <g id="line2d_6">
      <g>
       <use style="stroke:#000000;stroke-width:0.5;" x="473.5109375" xlink:href="#mc7db9fdffb" y="467.335625"/>
      </g>
     </g>
     <g id="line2d_7">
      <g>
       <use style="stroke:#000000;stroke-width:0.5;" x="473.5109375" xlink:href="#m5a7d422ac3" y="20.935625"/>
      </g>
     </g>
     <g id="text_3">
      <!-- $\mathdefault{10^{2}}$ -->
      <g transform="translate(464.9609375 479.648125)">
       <text>
        <tspan style="font-family:Arial;font-size:7.0px;font-style:regular;" x="11.123046875" y="-5.968750000000001">2</tspan>
        <tspan style="font-family:Arial;font-size:10.0px;font-style:regular;" x="0.0 5.5615234375" y="-0.9906250000000014">10</tspan>
       </text>
      </g>
     </g>
    </g>
    <g id="xtick_4">
     <g id="line2d_8">
      <g>
       <use style="stroke:#000000;stroke-width:0.5;" x="696.7109375" xlink:href="#mc7db9fdffb" y="467.335625"/>
      </g>
     </g>
     <g id="line2d_9">
      <g>
       <use style="stroke:#000000;stroke-width:0.5;" x="696.7109375" xlink:href="#m5a7d422ac3" y="20.935625"/>
      </g>
     </g>
     <g id="text_4">
      <!-- $\mathdefault{10^{3}}$ -->
      <g transform="translate(688.1609375 479.648125)">
       <text>
        <tspan style="font-family:Arial;font-size:7.0px;font-style:regular;" x="11.123046875" y="-5.968750000000001">3</tspan>
        <tspan style="font-family:Arial;font-size:10.0px;font-style:regular;" x="0.0 5.5615234375" y="-0.9906250000000014">10</tspan>
       </text>
      </g>
     </g>
    </g>
    <g id="xtick_5">
     <g id="line2d_10">
      <defs>
       <path d="
M0 0
L0 -2" id="mc21db286a6" style="stroke:#000000;stroke-width:0.5;"/>
      </defs>
      <g>
       <use style="stroke:#000000;stroke-width:0.5;" x="94.3008325322" xlink:href="#mc21db286a6" y="467.335625"/>
      </g>
     </g>
     <g id="line2d_11">
      <defs>
       <path d="
M0 0
L0 2" id="ma9c915e141" style="stroke:#000000;stroke-width:0.5;"/>
      </defs>
      <g>
       <use style="stroke:#000000;stroke-width:0.5;" x="94.3008325322" xlink:href="#ma9c915e141" y="20.935625"/>
      </g>
     </g>
    </g>
    <g id="xtick_6">
     <g id="line2d_12">
      <g>
       <use style="stroke:#000000;stroke-width:0.5;" x="133.604401553" xlink:href="#mc21db286a6" y="467.335625"/>
      </g>
     </g>
     <g id="line2d_13">
      <g>
       <use style="stroke:#000000;stroke-width:0.5;" x="133.604401553" xlink:href="#ma9c915e141" y="20.935625"/>
      </g>
     </g>
    </g>
    <g id="xtick_7">
     <g id="line2d_14">
      <g>
       <use style="stroke:#000000;stroke-width:0.5;" x="161.490727564" xlink:href="#mc21db286a6" y="467.335625"/>
      </g>
     </g>
     <g id="line2d_15">
      <g>
       <use style="stroke:#000000;stroke-width:0.5;" x="161.490727564" xlink:href="#ma9c915e141" y="20.935625"/>
      </g>
     </g>
    </g>
    <g id="xtick_8">
     <g id="line2d_16">
      <g>
       <use style="stroke:#000000;stroke-width:0.5;" x="183.121042468" xlink:href="#mc21db286a6" y="467.335625"/>
      </g>
     </g>
     <g id="line2d_17">
      <g>
       <use style="stroke:#000000;stroke-width:0.5;" x="183.121042468" xlink:href="#ma9c915e141" y="20.935625"/>
      </g>
     </g>
    </g>
    <g id="xtick_9">
     <g id="line2d_18">
      <g>
       <use style="stroke:#000000;stroke-width:0.5;" x="200.794296586" xlink:href="#mc21db286a6" y="467.335625"/>
      </g>
     </g>
     <g id="line2d_19">
      <g>
       <use style="stroke:#000000;stroke-width:0.5;" x="200.794296586" xlink:href="#ma9c915e141" y="20.935625"/>
      </g>
     </g>
    </g>
    <g id="xtick_10">
     <g id="line2d_20">
      <g>
       <use style="stroke:#000000;stroke-width:0.5;" x="215.736820031" xlink:href="#mc21db286a6" y="467.335625"/>
      </g>
     </g>
     <g id="line2d_21">
      <g>
       <use style="stroke:#000000;stroke-width:0.5;" x="215.736820031" xlink:href="#ma9c915e141" y="20.935625"/>
      </g>
     </g>
    </g>
    <g id="xtick_11">
     <g id="line2d_22">
      <g>
       <use style="stroke:#000000;stroke-width:0.5;" x="228.680622597" xlink:href="#mc21db286a6" y="467.335625"/>
      </g>
     </g>
     <g id="line2d_23">
      <g>
       <use style="stroke:#000000;stroke-width:0.5;" x="228.680622597" xlink:href="#ma9c915e141" y="20.935625"/>
      </g>
     </g>
    </g>
    <g id="xtick_12">
     <g id="line2d_24">
      <g>
       <use style="stroke:#000000;stroke-width:0.5;" x="240.097865607" xlink:href="#mc21db286a6" y="467.335625"/>
      </g>
     </g>
     <g id="line2d_25">
      <g>
       <use style="stroke:#000000;stroke-width:0.5;" x="240.097865607" xlink:href="#ma9c915e141" y="20.935625"/>
      </g>
     </g>
    </g>
    <g id="xtick_13">
     <g id="line2d_26">
      <g>
       <use style="stroke:#000000;stroke-width:0.5;" x="317.500832532" xlink:href="#mc21db286a6" y="467.335625"/>
      </g>
     </g>
     <g id="line2d_27">
      <g>
       <use style="stroke:#000000;stroke-width:0.5;" x="317.500832532" xlink:href="#ma9c915e141" y="20.935625"/>
      </g>
     </g>
    </g>
    <g id="xtick_14">
     <g id="line2d_28">
      <g>
       <use style="stroke:#000000;stroke-width:0.5;" x="356.804401553" xlink:href="#mc21db286a6" y="467.335625"/>
      </g>
     </g>
     <g id="line2d_29">
      <g>
       <use style="stroke:#000000;stroke-width:0.5;" x="356.804401553" xlink:href="#ma9c915e141" y="20.935625"/>
      </g>
     </g>
    </g>
    <g id="xtick_15">
     <g id="line2d_30">
      <g>
       <use style="stroke:#000000;stroke-width:0.5;" x="384.690727564" xlink:href="#mc21db286a6" y="467.335625"/>
      </g>
     </g>
     <g id="line2d_31">
      <g>
       <use style="stroke:#000000;stroke-width:0.5;" x="384.690727564" xlink:href="#ma9c915e141" y="20.935625"/>
      </g>
     </g>
    </g>
    <g id="xtick_16">
     <g id="line2d_32">
      <g>
       <use style="stroke:#000000;stroke-width:0.5;" x="406.321042468" xlink:href="#mc21db286a6" y="467.335625"/>
      </g>
     </g>
     <g id="line2d_33">
      <g>
       <use style="stroke:#000000;stroke-width:0.5;" x="406.321042468" xlink:href="#ma9c915e141" y="20.935625"/>
      </g>
     </g>
    </g>
    <g id="xtick_17">
     <g id="line2d_34">
      <g>
       <use style="stroke:#000000;stroke-width:0.5;" x="423.994296586" xlink:href="#mc21db286a6" y="467.335625"/>
      </g>
     </g>
     <g id="line2d_35">
      <g>
       <use style="stroke:#000000;stroke-width:0.5;" x="423.994296586" xlink:href="#ma9c915e141" y="20.935625"/>
      </g>
     </g>
    </g>
    <g id="xtick_18">
     <g id="line2d_36">
      <g>
       <use style="stroke:#000000;stroke-width:0.5;" x="438.936820031" xlink:href="#mc21db286a6" y="467.335625"/>
      </g>
     </g>
     <g id="line2d_37">
      <g>
       <use style="stroke:#000000;stroke-width:0.5;" x="438.936820031" xlink:href="#ma9c915e141" y="20.935625"/>
      </g>
     </g>
    </g>
    <g id="xtick_19">
     <g id="line2d_38">
      <g>
       <use style="stroke:#000000;stroke-width:0.5;" x="451.880622597" xlink:href="#mc21db286a6" y="467.335625"/>
      </g>
     </g>
     <g id="line2d_39">
      <g>
       <use style="stroke:#000000;stroke-width:0.5;" x="451.880622597" xlink:href="#ma9c915e141" y="20.935625"/>
      </g>
     </g>
    </g>
    <g id="xtick_20">
     <g id="line2d_40">
      <g>
       <use style="stroke:#000000;stroke-width:0.5;" x="463.297865607" xlink:href="#mc21db286a6" y="467.335625"/>
      </g>
     </g>
     <g id="line2d_41">
      <g>
       <use style="stroke:#000000;stroke-width:0.5;" x="463.297865607" xlink:href="#ma9c915e141" y="20.935625"/>
      </g>
     </g>
    </g>
    <g id="xtick_21">
     <g id="line2d_42">
      <g>
       <use style="stroke:#000000;stroke-width:0.5;" x="540.700832532" xlink:href="#mc21db286a6" y="467.335625"/>
      </g>
     </g>
     <g id="line2d_43">
      <g>
       <use style="stroke:#000000;stroke-width:0.5;" x="540.700832532" xlink:href="#ma9c915e141" y="20.935625"/>
      </g>
     </g>
    </g>
    <g id="xtick_22">
     <g id="line2d_44">
      <g>
       <use style="stroke:#000000;stroke-width:0.5;" x="580.004401553" xlink:href="#mc21db286a6" y="467.335625"/>
      </g>
     </g>
     <g id="line2d_45">
      <g>
       <use style="stroke:#000000;stroke-width:0.5;" x="580.004401553" xlink:href="#ma9c915e141" y="20.935625"/>
      </g>
     </g>
    </g>
    <g id="xtick_23">
     <g id="line2d_46">
      <g>
       <use style="stroke:#000000;stroke-width:0.5;" x="607.890727564" xlink:href="#mc21db286a6" y="467.335625"/>
      </g>
     </g>
     <g id="line2d_47">
      <g>
       <use style="stroke:#000000;stroke-width:0.5;" x="607.890727564" xlink:href="#ma9c915e141" y="20.935625"/>
      </g>
     </g>
    </g>
    <g id="xtick_24">
     <g id="line2d_48">
      <g>
       <use style="stroke:#000000;stroke-width:0.5;" x="629.521042468" xlink:href="#mc21db286a6" y="467.335625"/>
      </g>
     </g>
     <g id="line2d_49">
      <g>
       <use style="stroke:#000000;stroke-width:0.5;" x="629.521042468" xlink:href="#ma9c915e141" y="20.935625"/>
      </g>
     </g>
    </g>
    <g id="xtick_25">
     <g id="line2d_50">
      <g>
       <use style="stroke:#000000;stroke-width:0.5;" x="647.194296586" xlink:href="#mc21db286a6" y="467.335625"/>
      </g>
     </g>
     <g id="line2d_51">
      <g>
       <use style="stroke:#000000;stroke-width:0.5;" x="647.194296586" xlink:href="#ma9c915e141" y="20.935625"/>
      </g>
     </g>
    </g>
    <g id="xtick_26">
     <g id="line2d_52">
      <g>
       <use style="stroke:#000000;stroke-width:0.5;" x="662.136820031" xlink:href="#mc21db286a6" y="467.335625"/>
      </g>
     </g>
     <g id="line2d_53">
      <g>
       <use style="stroke:#000000;stroke-width:0.5;" x="662.136820031" xlink:href="#ma9c915e141" y="20.935625"/>
      </g>
     </g>
    </g>
    <g id="xtick_27">
     <g id="line2d_54">
      <g>
       <use style="stroke:#000000;stroke-width:0.5;" x="675.080622597" xlink:href="#mc21db286a6" y="467.335625"/>
      </g>
     </g>
     <g id="line2d_55">
      <g>
       <use style="stroke:#000000;stroke-width:0.5;" x="675.080622597" xlink:href="#ma9c915e141" y="20.935625"/>
      </g>
     </g>
    </g>
    <g id="xtick_28">
     <g id="line2d_56">
      <g>
       <use style="stroke:#000000;stroke-width:0.5;" x="686.497865607" xlink:href="#mc21db286a6" y="467.335625"/>
      </g>
     </g>
     <g id="line2d_57">
      <g>
       <use style="stroke:#000000;stroke-width:0.5;" x="686.497865607" xlink:href="#ma9c915e141" y="20.935625"/>
      </g>
     </g>
    </g>
   </g>
   <g id="matplotlib.axis_2">
    <g id="ytick_1">
     <g id="line2d_58">
      <defs>
       <path d="
M0 0
L4 0" id="md7965d1ba0" style="stroke:#000000;stroke-width:0.5;"/>
      </defs>
      <g>
       <use style="stroke:#000000;stroke-width:0.5;" x="27.1109375" xlink:href="#md7965d1ba0" y="467.335625"/>
      </g>
     </g>
     <g id="line2d_59">
      <defs>
       <path d="
M0 0
L-4 0" id="md9a1c1a7cd" style="stroke:#000000;stroke-width:0.5;"/>
      </defs>
      <g>
       <use style="stroke:#000000;stroke-width:0.5;" x="696.7109375" xlink:href="#md9a1c1a7cd" y="467.335625"/>
      </g>
     </g>
     <g id="text_5">
      <text style="font-family:Arial;font-size:10.0px;font-style:normal;text-anchor:end;" transform="rotate(-0.000000, 23.110938, 469.920781)" x="23.1109375" y="469.92078125">0</text>
     </g>
    </g>
    <g id="ytick_2">
     <g id="line2d_60">
      <g>
       <use style="stroke:#000000;stroke-width:0.5;" x="27.1109375" xlink:href="#md7965d1ba0" y="392.935625"/>
      </g>
     </g>
     <g id="line2d_61">
      <g>
       <use style="stroke:#000000;stroke-width:0.5;" x="696.7109375" xlink:href="#md9a1c1a7cd" y="392.935625"/>
      </g>
     </g>
     <g id="text_6">
      <text style="font-family:Arial;font-size:10.0px;font-style:normal;text-anchor:end;" transform="rotate(-0.000000, 23.110938, 395.520781)" x="23.1109375" y="395.52078125">50</text>
     </g>
    </g>
    <g id="ytick_3">
     <g id="line2d_62">
      <g>
       <use style="stroke:#000000;stroke-width:0.5;" x="27.1109375" xlink:href="#md7965d1ba0" y="318.535625"/>
      </g>
     </g>
     <g id="line2d_63">
      <g>
       <use style="stroke:#000000;stroke-width:0.5;" x="696.7109375" xlink:href="#md9a1c1a7cd" y="318.535625"/>
      </g>
     </g>
     <g id="text_7">
      <text style="font-family:Arial;font-size:10.0px;font-style:normal;text-anchor:end;" transform="rotate(-0.000000, 23.110938, 321.120781)" x="23.1109375" y="321.12078125">100</text>
     </g>
    </g>
    <g id="ytick_4">
     <g id="line2d_64">
      <g>
       <use style="stroke:#000000;stroke-width:0.5;" x="27.1109375" xlink:href="#md7965d1ba0" y="244.135625"/>
      </g>
     </g>
     <g id="line2d_65">
      <g>
       <use style="stroke:#000000;stroke-width:0.5;" x="696.7109375" xlink:href="#md9a1c1a7cd" y="244.135625"/>
      </g>
     </g>
     <g id="text_8">
      <text style="font-family:Arial;font-size:10.0px;font-style:normal;text-anchor:end;" transform="rotate(-0.000000, 23.110938, 246.720781)" x="23.1109375" y="246.72078125">150</text>
     </g>
    </g>
    <g id="ytick_5">
     <g id="line2d_66">
      <g>
       <use style="stroke:#000000;stroke-width:0.5;" x="27.1109375" xlink:href="#md7965d1ba0" y="169.735625"/>
      </g>
     </g>
     <g id="line2d_67">
      <g>
       <use style="stroke:#000000;stroke-width:0.5;" x="696.7109375" xlink:href="#md9a1c1a7cd" y="169.735625"/>
      </g>
     </g>
     <g id="text_9">
      <text style="font-family:Arial;font-size:10.0px;font-style:normal;text-anchor:end;" transform="rotate(-0.000000, 23.110938, 172.320781)" x="23.1109375" y="172.32078125">200</text>
     </g>
    </g>
    <g id="ytick_6">
     <g id="line2d_68">
      <g>
       <use style="stroke:#000000;stroke-width:0.5;" x="27.1109375" xlink:href="#md7965d1ba0" y="95.335625"/>
      </g>
     </g>
     <g id="line2d_69">
      <g>
       <use style="stroke:#000000;stroke-width:0.5;" x="696.7109375" xlink:href="#md9a1c1a7cd" y="95.335625"/>
      </g>
     </g>
     <g id="text_10">
      <text style="font-family:Arial;font-size:10.0px;font-style:normal;text-anchor:end;" transform="rotate(-0.000000, 23.110938, 97.920781)" x="23.1109375" y="97.92078125">250</text>
     </g>
    </g>
    <g id="ytick_7">
     <g id="line2d_70">
      <g>
       <use style="stroke:#000000;stroke-width:0.5;" x="27.1109375" xlink:href="#md7965d1ba0" y="20.935625"/>
      </g>
     </g>
     <g id="line2d_71">
      <g>
       <use style="stroke:#000000;stroke-width:0.5;" x="696.7109375" xlink:href="#md9a1c1a7cd" y="20.935625"/>
      </g>
     </g>
     <g id="text_11">
      <text style="font-family:Arial;font-size:10.0px;font-style:normal;text-anchor:end;" transform="rotate(-0.000000, 23.110938, 23.520781)" x="23.1109375" y="23.52078125">300</text>
     </g>
    </g>
   </g>
   <g id="text_12">
    <text style="font-family:Arial;font-size:10.0px;font-style:normal;" transform="translate(33.8069375 441.717875)"/>
    <text style="font-family:Arial;font-size:10.0px;font-style:normal;" transform="translate(33.8069375 452.29475)"/>
    <text style="font-family:Arial;font-size:10.0px;font-style:normal;" transform="translate(33.8069375 462.871625)">channel_detection.details.powerspectra.lower</text>
   </g>
   <g id="text_13">
    <text style="font-family:Arial;font-size:12.0px;font-style:normal;text-anchor:middle;" transform="rotate(-0.000000, 361.910938, 15.935625)" x="361.9109375" y="15.935625">main_frequency=60.000000</text>
   </g>
  </g>
 </g>
 <defs>
  <clipPath id="p8a97c097eb">
   <rect height="446.4" width="669.6" x="27.1109375" y="20.935625"/>
  </clipPath>
 </defs>
</svg>
